#define x_width 90
#define x_height 90
static char x_bits[] = {
0x00, 0x00, 0x00, 0x00, 0x00, 0x00, 0x00, 0x00, 0x00, 0x00, 0x00, 0x00, 
0x00, 0x00, 0x00, 0x00, 0x00, 0x00, 0x00, 0x00, 0x00, 0x00, 0x00, 0x00, 
0x00, 0x00, 0x00, 0x00, 0x00, 0x38, 0x00, 0x00, 0x00, 0x00, 0x00, 0x00, 
0x00, 0x00, 0x00, 0x00, 0x00, 0x38, 0x00, 0x00, 0x00, 0x00, 0x00, 0x00, 
0x00, 0x00, 0x00, 0x00, 0x00, 0x3c, 0x00, 0x00, 0x00, 0x00, 0x00, 0x00, 
0x00, 0x00, 0x00, 0x00, 0x00, 0x7e, 0x00, 0x00, 0x00, 0x00, 0x00, 0x00, 
0x00, 0x00, 0x00, 0x00, 0x02, 0x7f, 0x00, 0x00, 0x00, 0x00, 0x00, 0x00, 
0x00, 0x00, 0x00, 0x20, 0x08, 0xff, 0x80, 0x00, 0x00, 0x00, 0x00, 0x00, 
0x00, 0x00, 0x00, 0x00, 0x80, 0xff, 0x81, 0x02, 0x00, 0x00, 0x00, 0x00, 
0x00, 0x00, 0x00, 0x08, 0x80, 0xff, 0x41, 0x00, 0x00, 0x00, 0x00, 0x00, 
0x00, 0x00, 0x80, 0x80, 0x82, 0xff, 0x13, 0x02, 0x00, 0x00, 0x00, 0x00, 
0x00, 0x00, 0x20, 0x00, 0xc0, 0xff, 0x03, 0x00, 0x00, 0x00, 0x00, 0x00, 
0x00, 0x00, 0x40, 0x20, 0xc0, 0xff, 0x07, 0x90, 0x00, 0x00, 0x00, 0x00, 
0x00, 0x00, 0x00, 0x04, 0xe1, 0xff, 0x07, 0x00, 0x04, 0x00, 0x00, 0x00, 
0x00, 0x00, 0x01, 0x00, 0xc0, 0xff, 0x0f, 0x28, 0x00, 0x00, 0x00, 0x00, 
0x00, 0x00, 0x10, 0x10, 0x00, 0xff, 0x8f, 0x40, 0x01, 0x00, 0x00, 0x00, 
0x00, 0x40, 0x40, 0x00, 0x08, 0xfe, 0x0f, 0x08, 0x00, 0x00, 0x00, 0x00, 
0x00, 0x00, 0x04, 0x00, 0x50, 0xfc, 0x1f, 0x00, 0x28, 0x00, 0x00, 0x00, 
0x00, 0x20, 0x98, 0x00, 0x00, 0xf0, 0x1f, 0x00, 0x00, 0x00, 0x00, 0x00, 
0x00, 0x00, 0x00, 0x00, 0x04, 0xe0, 0x1f, 0x40, 0x04, 0x00, 0x00, 0x00, 
0x00, 0x10, 0x01, 0x00, 0x00, 0x80, 0x3f, 0x00, 0x00, 0x00, 0x00, 0x00, 
0x00, 0x00, 0x20, 0x00, 0x40, 0x00, 0x3f, 0x08, 0x80, 0x00, 0x00, 0x00, 
0x00, 0x80, 0x02, 0x00, 0x00, 0x00, 0x3e, 0x00, 0x08, 0x01, 0x00, 0x00, 
0x00, 0x40, 0x00, 0x00, 0x00, 0x00, 0x3e, 0x00, 0x00, 0x00, 0x00, 0x00, 
0x00, 0x00, 0x08, 0x00, 0x00, 0x00, 0x7c, 0x00, 0x10, 0x00, 0x00, 0x00, 
0x00, 0x04, 0x01, 0x00, 0x00, 0x02, 0x7c, 0x40, 0x10, 0x00, 0x00, 0x00, 
0x00, 0x40, 0x02, 0x00, 0x00, 0x28, 0x38, 0x00, 0x00, 0x08, 0x00, 0x00, 
0x00, 0x00, 0x00, 0x00, 0x12, 0x00, 0x70, 0x00, 0x40, 0x00, 0x00, 0x00, 
0x00, 0x08, 0x00, 0x20, 0x00, 0x00, 0x00, 0x00, 0x00, 0x00, 0x00, 0x00, 
0x00, 0x08, 0x00, 0x00, 0x00, 0x00, 0x21, 0x00, 0x02, 0x08, 0x00, 0x00, 
0x00, 0x62, 0x01, 0x01, 0x00, 0x00, 0x00, 0x04, 0x00, 0x00, 0x00, 0x00, 
0x00, 0x08, 0x00, 0x00, 0x00, 0x00, 0x10, 0x00, 0x00, 0x00, 0x00, 0x00, 
0x00, 0x10, 0x00, 0x00, 0x00, 0x00, 0x00, 0x00, 0x00, 0x80, 0x00, 0x00, 
0x00, 0x20, 0x00, 0x00, 0x00, 0x00, 0x00, 0x00, 0x0c, 0x42, 0x00, 0x00, 
0x00, 0x00, 0x80, 0x28, 0x00, 0x00, 0x00, 0x00, 0x00, 0x00, 0x00, 0x00, 
0x00, 0x92, 0x00, 0x00, 0x03, 0x00, 0x40, 0x00, 0x00, 0x00, 0x00, 0x00, 
0x00, 0x00, 0x00, 0x18, 0x02, 0x00, 0x00, 0x00, 0x00, 0x04, 0x00, 0x00, 
0x00, 0x00, 0x80, 0xe4, 0x00, 0x02, 0x00, 0x00, 0x10, 0x00, 0x00, 0x00, 
0x00, 0x81, 0x00, 0x08, 0x00, 0x00, 0x00, 0x00, 0x01, 0x40, 0x00, 0x00, 
0x00, 0x08, 0x00, 0x20, 0x04, 0x00, 0x00, 0x00, 0x00, 0x10, 0x02, 0x00, 
0x00, 0x48, 0x00, 0x00, 0x00, 0x00, 0x00, 0x00, 0x10, 0x88, 0x00, 0x00, 
0x00, 0x00, 0x00, 0x00, 0x00, 0x00, 0x04, 0x00, 0x00, 0x00, 0x00, 0x00, 
0x80, 0x40, 0x40, 0x00, 0x00, 0x00, 0x00, 0x00, 0x00, 0x80, 0x00, 0x00, 
0x00, 0x00, 0x00, 0x00, 0x00, 0x00, 0x00, 0x00, 0x00, 0x00, 0x00, 0x00, 
0x00, 0x00, 0x00, 0x00, 0x00, 0x00, 0x00, 0x00, 0x10, 0x88, 0x05, 0x00, 
0x00, 0x02, 0x00, 0x00, 0x00, 0x00, 0x00, 0x00, 0x00, 0x00, 0x00, 0x00, 
0x00, 0x08, 0x40, 0x28, 0x20, 0x00, 0x00, 0x00, 0x10, 0x20, 0x00, 0x00, 
0x00, 0x00, 0x00, 0x01, 0x00, 0x00, 0x00, 0x00, 0x10, 0x00, 0x02, 0x00, 
0x00, 0x45, 0x08, 0x00, 0x40, 0x00, 0x09, 0x00, 0x00, 0x00, 0x00, 0x00, 
0x00, 0x0a, 0x10, 0x08, 0x00, 0x00, 0x00, 0x00, 0x00, 0x00, 0x00, 0x00, 
0x80, 0x00, 0x80, 0x87, 0x00, 0x00, 0x00, 0x00, 0x02, 0x3c, 0x01, 0x00, 
0x00, 0x88, 0x1f, 0x00, 0x00, 0x00, 0x00, 0x00, 0x00, 0x00, 0x01, 0x00, 
0x00, 0xe0, 0x03, 0x00, 0x00, 0x00, 0x00, 0x00, 0x00, 0x00, 0x00, 0x00, 
0x00, 0x01, 0x40, 0x10, 0x00, 0x00, 0x00, 0x00, 0x00, 0x00, 0x00, 0x00, 
0x00, 0x20, 0x20, 0x04, 0x00, 0x00, 0x00, 0x00, 0x00, 0x40, 0x00, 0x00, 
0x00, 0x64, 0x14, 0x00, 0x01, 0x00, 0x00, 0x00, 0x00, 0x04, 0x00, 0x00, 
0x00, 0x06, 0x00, 0x00, 0x00, 0x00, 0x00, 0x00, 0x30, 0x00, 0x00, 0x00, 
0x40, 0x00, 0x00, 0x00, 0x00, 0x02, 0x00, 0x00, 0x00, 0x48, 0x01, 0x00, 
0x00, 0x00, 0x00, 0x00, 0x00, 0x00, 0x00, 0x00, 0x44, 0x00, 0x00, 0x00, 
0x00, 0x00, 0x00, 0x00, 0x00, 0x00, 0x08, 0x00, 0x3f, 0x88, 0x00, 0x00, 
0x80, 0x00, 0x80, 0x00, 0x02, 0x00, 0x00, 0x00, 0x80, 0x02, 0x00, 0x00, 
0x00, 0x04, 0x00, 0x00, 0x00, 0x00, 0x00, 0x00, 0x18, 0x00, 0x00, 0x00, 
0x00, 0x00, 0x00, 0x00, 0x00, 0x00, 0x00, 0x00, 0x40, 0x08, 0x00, 0x00, 
0x00, 0x04, 0x00, 0x00, 0x00, 0x00, 0x00, 0x00, 0x00, 0x40, 0x00, 0x00, 
0x00, 0x02, 0x00, 0x00, 0x00, 0x00, 0x00, 0x00, 0x00, 0x01, 0x00, 0x00, 
0x00, 0x00, 0x00, 0x00, 0x04, 0x00, 0x00, 0x00, 0x02, 0x02, 0x00, 0x00, 
0x80, 0x02, 0x00, 0x01, 0x00, 0x04, 0x00, 0x00, 0x00, 0x00, 0x00, 0x00, 
0x00, 0x20, 0x00, 0x00, 0x00, 0x00, 0x00, 0x00, 0x80, 0x41, 0x00, 0x00, 
0x00, 0x04, 0x00, 0x00, 0x10, 0x03, 0x01, 0x00, 0x02, 0x00, 0x00, 0x00, 
0x00, 0x20, 0x00, 0x00, 0x00, 0x00, 0x00, 0x00, 0x00, 0x00, 0x00, 0x00, 
0x00, 0x01, 0x02, 0x00, 0x01, 0x00, 0x00, 0x00, 0x90, 0x00, 0x00, 0x00, 
0x00, 0x08, 0x00, 0x00, 0x00, 0x00, 0x00, 0x00, 0x10, 0x04, 0x00, 0x00, 
0x00, 0x00, 0x04, 0x00, 0x00, 0x00, 0x00, 0x00, 0x10, 0x00, 0x00, 0x00, 
0x00, 0x10, 0x08, 0x08, 0x00, 0x00, 0x00, 0x80, 0x18, 0x00, 0x00, 0x00, 
0x00, 0x04, 0x06, 0x00, 0x00, 0x00, 0x00, 0x00, 0xe0, 0x0f, 0x00, 0x00, 
0x00, 0xc0, 0x03, 0x40, 0x00, 0x00, 0x00, 0x00, 0x20, 0x2f, 0x00, 0x00, 
0x00, 0xe8, 0x11, 0x00, 0x00, 0x00, 0x00, 0x00, 0x00, 0x00, 0x00, 0x00, 
0x00, 0x00, 0x00, 0x00, 0x00, 0x00, 0x00, 0x90, 0x02, 0x44, 0x00, 0x00, 
0x00, 0x90, 0x88, 0x00, 0x08, 0x00, 0x00, 0x00, 0x00, 0x01, 0x00, 0x00, 
0x00, 0x20, 0x02, 0x00, 0x00, 0x00, 0x00, 0x20, 0x88, 0x00, 0x00, 0x00, 
0x00, 0x00, 0x00, 0x00, 0x00, 0x02, 0x20, 0x00, 0x02, 0x02, 0x00, 0x00, 
0x00, 0x00, 0x80, 0x00, 0x00, 0x00, 0x01, 0x80, 0x10, 0x00, 0x00, 0x00, 
0x00, 0x00, 0x08, 0x0b, 0x00, 0x00, 0x00, 0x40, 0x02, 0x20, 0x00, 0x00, 
0x00, 0x00, 0x20, 0x02, 0xc0, 0x03, 0x2f, 0x28, 0x40, 0x00, 0x00, 0x00, 
0x00, 0x00, 0x20, 0x50, 0xe0, 0xc3, 0x3f, 0x00, 0x00, 0x04, 0x00, 0x00, 
0x00, 0x00, 0x00, 0x00, 0xa0, 0xff, 0x1f, 0x02, 0x22, 0x00, 0x00, 0x00, 
0x00, 0x00, 0x40, 0x22, 0xc0, 0xff, 0x0f, 0x40, 0x00, 0x00, 0x00, 0x00, 
0x00, 0x00, 0x00, 0x00, 0x94, 0xff, 0x07, 0x04, 0x00, 0x00, 0x00, 0x00, 
0x00, 0x00, 0x00, 0x00, 0x00, 0xfc, 0x03, 0x00, 0x00, 0x00, 0x00, 0x00, 
0x00, 0x00, 0x00, 0x00, 0x01, 0xe0, 0x00, 0x00, 0x00, 0x00, 0x00, 0x00};