#define x_width 30
#define x_height 30
static char x_bits[] = {
0x00, 0x00, 0x00, 0x00, 0x00, 0x00, 0x00, 0x00, 0x00, 0x00, 0x00, 0x00, 
0x00, 0x00, 0x00, 0x00, 0x00, 0x00, 0x00, 0x00, 0x00, 0x00, 0x00, 0x00, 
0x00, 0x00, 0x00, 0x00, 0x00, 0x00, 0x00, 0x00, 0x00, 0x20, 0x00, 0x00, 
0x00, 0x20, 0x00, 0x01, 0x00, 0x20, 0x80, 0x01, 0x00, 0x10, 0xf8, 0x00, 
0x00, 0x10, 0x04, 0x00, 0x60, 0x54, 0x03, 0x00, 0xd0, 0x3e, 0x03, 0x00, 
0x90, 0xff, 0x03, 0x00, 0xd0, 0x15, 0x03, 0x00, 0x70, 0x54, 0x07, 0x00, 
0x00, 0x18, 0x04, 0x00, 0x00, 0x10, 0xf8, 0x00, 0x00, 0x20, 0x80, 0x01, 
0x00, 0x20, 0x00, 0x01, 0x00, 0x00, 0x00, 0x00, 0x00, 0x00, 0x00, 0x00, 
0x00, 0x00, 0x00, 0x00, 0x00, 0x00, 0x00, 0x00, 0x00, 0x00, 0x00, 0x00, 
0x00, 0x00, 0x00, 0x00, 0x00, 0x00, 0x00, 0x00, 0x00, 0x00, 0x00, 0x00};