#define x_width 30
#define x_height 30
static char x_bits[] = {
0x00, 0x00, 0x00, 0x00, 0x00, 0x00, 0x00, 0x00, 0x00, 0x00, 0x00, 0x00, 
0x00, 0x00, 0x00, 0x00, 0x00, 0x11, 0x00, 0x00, 0x00, 0x17, 0x00, 0x00, 
0x00, 0x3e, 0x00, 0x00, 0x00, 0x3c, 0x00, 0x00, 0x00, 0x3e, 0x00, 0x00, 
0xc0, 0x1f, 0x00, 0x00, 0xc0, 0x1f, 0x00, 0x00, 0xe0, 0x0f, 0x00, 0x00, 
0xe0, 0x07, 0x00, 0x00, 0xf0, 0x07, 0x00, 0x00, 0xf8, 0x0f, 0x00, 0x00, 
0xf8, 0x0f, 0x00, 0x00, 0xf8, 0x0f, 0x00, 0x00, 0xf8, 0x2f, 0x00, 0x00, 
0xf8, 0x27, 0x00, 0x00, 0xf8, 0x67, 0x00, 0x00, 0xf8, 0x7f, 0x00, 0x00, 
0xf0, 0xff, 0x00, 0x00, 0xe0, 0xff, 0x00, 0x00, 0xc0, 0x6f, 0x00, 0x00, 
0x00, 0x66, 0x00, 0x00, 0x00, 0x60, 0x00, 0x00, 0x00, 0x20, 0x00, 0x00, 
0x00, 0x20, 0x00, 0x00, 0x00, 0x00, 0x00, 0x00, 0x00, 0x00, 0x00, 0x00};