#define x_width 90
#define x_height 90
static char x_bits[] = {
0x00, 0x00, 0x00, 0x00, 0x00, 0x00, 0x00, 0x00, 0x00, 0x00, 0x00, 0x00, 
0x00, 0x00, 0x00, 0x00, 0x00, 0x00, 0x00, 0x00, 0x00, 0x00, 0x00, 0x00, 
0x00, 0x00, 0x00, 0x00, 0x00, 0x00, 0x00, 0x00, 0x00, 0x00, 0x00, 0x00, 
0x00, 0x00, 0x00, 0x00, 0x00, 0x00, 0x00, 0x00, 0x00, 0x00, 0x00, 0x00, 
0x00, 0x00, 0x00, 0x00, 0x00, 0x00, 0x00, 0x00, 0x00, 0x00, 0x00, 0x00, 
0x00, 0x00, 0x00, 0x00, 0x00, 0x00, 0x00, 0x00, 0x00, 0x00, 0x00, 0x00, 
0x00, 0x00, 0x00, 0x00, 0x00, 0x00, 0x00, 0x00, 0x00, 0x00, 0x00, 0x00, 
0x00, 0x00, 0x00, 0x00, 0x00, 0x00, 0x00, 0x00, 0x00, 0x00, 0x00, 0x00, 
0x00, 0x00, 0x00, 0x00, 0x00, 0x00, 0x00, 0x00, 0x00, 0x00, 0x00, 0x00, 
0x00, 0x00, 0x00, 0x00, 0x00, 0x00, 0x00, 0x00, 0x00, 0x00, 0x00, 0x00, 
0x00, 0x00, 0x00, 0x00, 0x00, 0x00, 0x00, 0x00, 0x00, 0x00, 0x00, 0x00, 
0x00, 0x00, 0x00, 0x00, 0x00, 0x00, 0x00, 0x00, 0x00, 0x00, 0x00, 0x00, 
0x00, 0x00, 0x00, 0x00, 0x00, 0x00, 0x00, 0x00, 0x00, 0x00, 0x00, 0x00, 
0x00, 0x00, 0x00, 0x00, 0x00, 0x00, 0x00, 0x00, 0x00, 0x00, 0x00, 0x00, 
0x00, 0x00, 0x00, 0x00, 0x00, 0x00, 0x00, 0x00, 0x00, 0x00, 0x00, 0x00, 
0x00, 0x00, 0x00, 0x00, 0x00, 0x00, 0x00, 0x00, 0x00, 0x00, 0x00, 0x00, 
0x00, 0x00, 0x00, 0x00, 0x00, 0x00, 0x00, 0x00, 0xfc, 0x01, 0x00, 0x00, 
0x00, 0x00, 0x00, 0x00, 0x00, 0x00, 0x00, 0x00, 0xff, 0x03, 0x00, 0x00, 
0x00, 0x00, 0x00, 0x00, 0x00, 0x00, 0x00, 0xc0, 0xff, 0x03, 0x00, 0x00, 
0x00, 0x00, 0x00, 0x00, 0x00, 0x00, 0x00, 0xf0, 0xff, 0x03, 0x00, 0x00, 
0x00, 0x00, 0x00, 0x00, 0x00, 0x00, 0x00, 0xfe, 0xff, 0x03, 0x00, 0x00, 
0x00, 0x00, 0x00, 0x70, 0x00, 0x00, 0x00, 0xff, 0xff, 0x03, 0x00, 0x00, 
0x00, 0x00, 0x00, 0xc0, 0x00, 0x00, 0xc0, 0xff, 0xff, 0x01, 0x00, 0x00, 
0x00, 0x00, 0x00, 0x00, 0x07, 0x00, 0xe0, 0xff, 0xff, 0x01, 0x00, 0x00, 
0x00, 0x00, 0x00, 0x00, 0x0c, 0x00, 0xf8, 0xff, 0xff, 0x00, 0x00, 0x00, 
0x00, 0x00, 0x00, 0x00, 0x30, 0x00, 0xff, 0xff, 0xff, 0x00, 0x00, 0x00, 
0x00, 0x00, 0x00, 0x00, 0xe0, 0x00, 0xff, 0xff, 0xff, 0x00, 0x00, 0x00, 
0x00, 0x00, 0x00, 0x00, 0x00, 0xc3, 0xff, 0xff, 0xff, 0x00, 0x00, 0x00, 
0x00, 0x00, 0xe0, 0x00, 0x00, 0xf4, 0xff, 0xff, 0x7f, 0x00, 0x00, 0x00, 
0x00, 0x00, 0x80, 0x01, 0x00, 0xf8, 0xff, 0xff, 0x7f, 0x00, 0x00, 0x00, 
0x00, 0x00, 0x00, 0x0e, 0x00, 0xf8, 0xff, 0xff, 0x3f, 0x00, 0x00, 0x00, 
0x00, 0x00, 0x00, 0x18, 0x00, 0xfc, 0xff, 0xff, 0x3f, 0x00, 0x00, 0x00, 
0x00, 0x00, 0x00, 0x60, 0x00, 0xfe, 0xff, 0xff, 0x1f, 0x00, 0x00, 0x00, 
0x00, 0x00, 0x00, 0xc0, 0x01, 0xfe, 0xff, 0xff, 0x0f, 0x00, 0x00, 0x00, 
0x00, 0x00, 0x00, 0x00, 0x86, 0xff, 0xff, 0xff, 0x0f, 0x00, 0x00, 0x00, 
0x00, 0xc0, 0x01, 0x00, 0xf8, 0xff, 0xff, 0xff, 0x07, 0x00, 0x00, 0x00, 
0x00, 0x00, 0x03, 0x00, 0xe0, 0xff, 0xff, 0xff, 0x07, 0x00, 0x00, 0x00, 
0x00, 0x00, 0x1c, 0x00, 0xf0, 0xff, 0xff, 0xff, 0x03, 0x00, 0x00, 0x00, 
0x00, 0x00, 0x30, 0x00, 0xf8, 0xff, 0xff, 0xff, 0x03, 0x00, 0x00, 0x00, 
0x00, 0x00, 0xc0, 0x00, 0xfc, 0xff, 0xff, 0xff, 0x01, 0x00, 0x00, 0x00, 
0x00, 0x00, 0x80, 0x03, 0xfc, 0xff, 0xff, 0xff, 0x00, 0x00, 0x00, 0x00, 
0x00, 0x00, 0x00, 0x0c, 0xff, 0xff, 0xff, 0xff, 0x00, 0x00, 0x00, 0x00, 
0x80, 0x03, 0x00, 0xf0, 0xff, 0xff, 0xff, 0x7f, 0x00, 0x00, 0x00, 0x00, 
0x00, 0x06, 0x00, 0xc0, 0xff, 0xff, 0xff, 0x3f, 0x00, 0x00, 0x00, 0x00, 
0x00, 0x38, 0x00, 0xe0, 0xff, 0xff, 0xff, 0x1f, 0x00, 0x00, 0x00, 0x00, 
0x00, 0x60, 0x00, 0xf0, 0xff, 0xff, 0xff, 0x1f, 0x00, 0x00, 0x00, 0x00, 
0x00, 0x80, 0x01, 0xf8, 0xff, 0xff, 0xff, 0x17, 0x00, 0x00, 0x00, 0x00, 
0x00, 0x00, 0x07, 0xf8, 0xff, 0xff, 0xff, 0x23, 0x00, 0x00, 0x00, 0x00, 
0x00, 0x00, 0x18, 0xfe, 0xff, 0xff, 0xff, 0x41, 0x00, 0x00, 0x00, 0x00, 
0x00, 0x00, 0xe0, 0xff, 0xff, 0xff, 0xff, 0x40, 0x00, 0x00, 0x00, 0x00, 
0x00, 0x00, 0x80, 0xff, 0xff, 0xff, 0x7f, 0x80, 0x00, 0x00, 0x00, 0x00, 
0x00, 0x00, 0xc0, 0xff, 0xff, 0xff, 0x3f, 0x80, 0x00, 0x00, 0x00, 0x00, 
0x00, 0x00, 0xc0, 0xff, 0xff, 0xff, 0x3f, 0x80, 0x00, 0x00, 0x00, 0x00, 
0x00, 0x00, 0xe0, 0xff, 0xff, 0xff, 0x2f, 0x00, 0x01, 0x00, 0x00, 0x00, 
0x00, 0x00, 0xe0, 0xff, 0xff, 0xff, 0x47, 0x00, 0x01, 0x00, 0x00, 0x00, 
0x00, 0x00, 0xe0, 0xff, 0xff, 0xff, 0x83, 0x00, 0x02, 0x00, 0x00, 0x00, 
0x00, 0x00, 0xf0, 0xff, 0xff, 0xff, 0x81, 0x00, 0x06, 0x00, 0x00, 0x00, 
0x00, 0x00, 0xf8, 0xff, 0xff, 0xff, 0x00, 0x01, 0x04, 0x00, 0x00, 0x00, 
0x00, 0x00, 0xf8, 0xff, 0xff, 0x7f, 0x00, 0x01, 0x0c, 0x00, 0x00, 0x00, 
0x00, 0x00, 0xfc, 0xff, 0xff, 0x7f, 0x00, 0x01, 0x18, 0x00, 0x00, 0x00, 
0x00, 0x00, 0xfc, 0xff, 0xff, 0x5f, 0x00, 0x02, 0x10, 0x00, 0x00, 0x00, 
0x00, 0x00, 0xfc, 0xff, 0xff, 0x8f, 0x00, 0x02, 0x08, 0x00, 0x00, 0x00, 
0x00, 0x00, 0xfc, 0xff, 0xff, 0x07, 0x01, 0x04, 0x00, 0x00, 0x00, 0x00, 
0x00, 0x00, 0xfe, 0xff, 0xff, 0x03, 0x01, 0x0c, 0x00, 0x00, 0x00, 0x00, 
0x00, 0x00, 0xfe, 0xff, 0xff, 0x01, 0x02, 0x08, 0x00, 0x00, 0x00, 0x00, 
0x00, 0x00, 0xff, 0xff, 0xff, 0x00, 0x02, 0x18, 0x00, 0x00, 0x00, 0x00, 
0x00, 0x00, 0xff, 0xff, 0xff, 0x00, 0x02, 0x30, 0x00, 0x00, 0x00, 0x00, 
0x00, 0x00, 0xff, 0xff, 0xbf, 0x00, 0x04, 0x20, 0x00, 0x00, 0x00, 0x00, 
0x00, 0x00, 0xff, 0xff, 0x1f, 0x01, 0x04, 0x10, 0x00, 0x00, 0x00, 0x00, 
0x00, 0x80, 0xff, 0xff, 0x07, 0x02, 0x08, 0x00, 0x00, 0x00, 0x00, 0x00, 
0x00, 0x80, 0xff, 0xff, 0x01, 0x02, 0x18, 0x00, 0x00, 0x00, 0x00, 0x00, 
0x00, 0x80, 0xff, 0x3f, 0x00, 0x04, 0x10, 0x00, 0x00, 0x00, 0x00, 0x00, 
0x00, 0x00, 0xff, 0x07, 0x00, 0x04, 0x30, 0x00, 0x00, 0x00, 0x00, 0x00, 
0x00, 0x00, 0xfe, 0x00, 0x00, 0x04, 0x60, 0x00, 0x00, 0x00, 0x00, 0x00, 
0x00, 0x00, 0x1c, 0x00, 0x00, 0x08, 0x40, 0x00, 0x00, 0x00, 0x00, 0x00, 
0x00, 0x00, 0x00, 0x00, 0x00, 0x08, 0x20, 0x00, 0x00, 0x00, 0x00, 0x00, 
0x00, 0x00, 0x00, 0x00, 0x00, 0x10, 0x00, 0x00, 0x00, 0x00, 0x00, 0x00, 
0x00, 0x00, 0x00, 0x00, 0x00, 0x30, 0x00, 0x00, 0x00, 0x00, 0x00, 0x00, 
0x00, 0x00, 0x00, 0x00, 0x00, 0x20, 0x00, 0x00, 0x00, 0x00, 0x00, 0x00, 
0x00, 0x00, 0x00, 0x00, 0x00, 0x60, 0x00, 0x00, 0x00, 0x00, 0x00, 0x00, 
0x00, 0x00, 0x00, 0x00, 0x00, 0xc0, 0x00, 0x00, 0x00, 0x00, 0x00, 0x00, 
0x00, 0x00, 0x00, 0x00, 0x00, 0x80, 0x00, 0x00, 0x00, 0x00, 0x00, 0x00, 
0x00, 0x00, 0x00, 0x00, 0x00, 0x40, 0x00, 0x00, 0x00, 0x00, 0x00, 0x00, 
0x00, 0x00, 0x00, 0x00, 0x00, 0x00, 0x00, 0x00, 0x00, 0x00, 0x00, 0x00, 
0x00, 0x00, 0x00, 0x00, 0x00, 0x00, 0x00, 0x00, 0x00, 0x00, 0x00, 0x00, 
0x00, 0x00, 0x00, 0x00, 0x00, 0x00, 0x00, 0x00, 0x00, 0x00, 0x00, 0x00, 
0x00, 0x00, 0x00, 0x00, 0x00, 0x00, 0x00, 0x00, 0x00, 0x00, 0x00, 0x00, 
0x00, 0x00, 0x00, 0x00, 0x00, 0x00, 0x00, 0x00, 0x00, 0x00, 0x00, 0x00, 
0x00, 0x00, 0x00, 0x00, 0x00, 0x00, 0x00, 0x00, 0x00, 0x00, 0x00, 0x00, 
0x00, 0x00, 0x00, 0x00, 0x00, 0x00, 0x00, 0x00, 0x00, 0x00, 0x00, 0x00};