#define x_width 30
#define x_height 30
static char x_bits[] = {
0x00, 0x00, 0x00, 0x00, 0x80, 0x01, 0x60, 0x00, 0x20, 0x01, 0x28, 0x03, 
0x90, 0x03, 0x38, 0x03, 0x80, 0x01, 0x80, 0x03, 0xb0, 0x43, 0x50, 0x03, 
0xb8, 0x23, 0x98, 0x07, 0xbc, 0x21, 0x0c, 0x0f, 0xb4, 0xd1, 0x64, 0x0b, 
0x84, 0xd1, 0x20, 0x08, 0x80, 0xc1, 0x00, 0x00, 0x80, 0xc1, 0x00, 0x00, 
0x80, 0xc1, 0x00, 0x00, 0x80, 0xc1, 0x00, 0x00, 0x00, 0xe1, 0x00, 0x00, 
0x30, 0xe0, 0x40, 0x03, 0x78, 0x31, 0x60, 0x03, 0xf8, 0x31, 0xe0, 0x03, 
0xf8, 0x19, 0xf8, 0x03, 0x78, 0x19, 0xe0, 0x01, 0x78, 0x0d, 0x40, 0x03, 
0xb0, 0x0c, 0x20, 0x01, 0x80, 0x01, 0x20, 0x00, 0x00, 0x01, 0x00, 0x00, 
0x00, 0x00, 0x00, 0x00, 0x00, 0x00, 0x00, 0x00, 0x00, 0x00, 0x00, 0x00, 
0x00, 0x00, 0x00, 0x00, 0x00, 0x00, 0x00, 0x00, 0x00, 0x00, 0x00, 0x00};