#define x_width 90
#define x_height 90
static char x_bits[] = {
0x00, 0x00, 0x00, 0x00, 0x20, 0x00, 0x00, 0x00, 0x00, 0x00, 0x00, 0x00, 
0x00, 0x00, 0x00, 0x00, 0x10, 0xf8, 0x00, 0x00, 0x00, 0x00, 0x00, 0x00, 
0x00, 0x00, 0x00, 0x00, 0x00, 0xff, 0x47, 0x00, 0x00, 0x00, 0x00, 0x00, 
0x00, 0x00, 0x00, 0x00, 0x80, 0xff, 0x0f, 0x00, 0x00, 0x00, 0x00, 0x00, 
0x00, 0x00, 0x00, 0x00, 0xc4, 0xff, 0x9f, 0x00, 0x00, 0x00, 0x00, 0x00, 
0x00, 0x00, 0x00, 0x00, 0xe0, 0xff, 0x3f, 0x00, 0x00, 0x00, 0x00, 0x00, 
0x00, 0x00, 0x00, 0x00, 0xf0, 0xff, 0x7f, 0x00, 0x00, 0x00, 0x00, 0x00, 
0x00, 0x00, 0x00, 0x00, 0xf0, 0xff, 0x7f, 0x01, 0x00, 0x00, 0x00, 0x00, 
0x00, 0x00, 0x00, 0x00, 0xf0, 0xff, 0x7f, 0x00, 0x00, 0x00, 0x00, 0x00, 
0x00, 0x00, 0x00, 0x00, 0xf8, 0xff, 0xff, 0x00, 0x00, 0x00, 0x00, 0x00, 
0x00, 0x00, 0x00, 0x00, 0xf8, 0xff, 0xff, 0x00, 0x00, 0x00, 0x00, 0x00, 
0x00, 0x00, 0x00, 0x00, 0xf8, 0xff, 0xff, 0x00, 0x00, 0x00, 0x00, 0x00, 
0x00, 0x00, 0x00, 0x00, 0xf8, 0xff, 0xff, 0x01, 0x00, 0x00, 0x00, 0x00, 
0x00, 0x00, 0x00, 0x00, 0xfc, 0xff, 0xff, 0x01, 0x00, 0x00, 0x00, 0x00, 
0x00, 0x00, 0x00, 0x00, 0xfc, 0xff, 0xff, 0x01, 0x00, 0x00, 0x00, 0x00, 
0x00, 0x00, 0x00, 0x00, 0xfc, 0xff, 0xff, 0x01, 0x00, 0x00, 0x00, 0x00, 
0x00, 0x00, 0x00, 0x00, 0xfc, 0xff, 0xff, 0x01, 0x00, 0x00, 0x00, 0x00, 
0x00, 0x00, 0x00, 0x00, 0xfe, 0xff, 0xff, 0x03, 0x00, 0x00, 0x00, 0x00, 
0x00, 0x00, 0x00, 0x00, 0xfe, 0xff, 0xff, 0x03, 0x00, 0x00, 0x00, 0x00, 
0x00, 0x00, 0x00, 0xc0, 0xff, 0xff, 0xff, 0x0f, 0x00, 0x00, 0x00, 0x00, 
0x00, 0x00, 0x00, 0x38, 0xfe, 0xff, 0xff, 0xf3, 0x00, 0x00, 0x00, 0x00, 
0x00, 0x00, 0x00, 0x07, 0xff, 0xff, 0xff, 0x07, 0x07, 0x00, 0x00, 0x00, 
0x00, 0x80, 0xe0, 0x00, 0xff, 0xff, 0xff, 0x07, 0x38, 0x0a, 0x00, 0x00, 
0x00, 0x00, 0x1c, 0x00, 0xff, 0xff, 0xff, 0x07, 0xc0, 0x01, 0x00, 0x00, 
0x00, 0x80, 0x03, 0x80, 0xff, 0xff, 0xff, 0x0f, 0x00, 0x0e, 0x00, 0x00, 
0x00, 0x40, 0x00, 0x80, 0xff, 0xff, 0xff, 0x0f, 0x00, 0x20, 0x00, 0x00, 
0x00, 0x00, 0x01, 0x00, 0xff, 0xff, 0xff, 0x07, 0x00, 0x08, 0x00, 0x00, 
0x00, 0x80, 0x00, 0x00, 0xff, 0xff, 0xff, 0x07, 0x00, 0x00, 0x00, 0x00, 
0x00, 0x00, 0x00, 0x00, 0xff, 0xff, 0xff, 0x07, 0x00, 0x00, 0x00, 0x00, 
0x00, 0x00, 0x00, 0x00, 0xfe, 0xff, 0xff, 0x03, 0x00, 0x00, 0x00, 0x00, 
0x00, 0x00, 0x00, 0xc0, 0xff, 0xff, 0xff, 0x0f, 0x00, 0x00, 0x00, 0x00, 
0x00, 0x00, 0x00, 0x38, 0xfe, 0xff, 0xff, 0xf3, 0x00, 0x00, 0x00, 0x00, 
0x00, 0x00, 0x00, 0x07, 0xff, 0xff, 0xff, 0x07, 0x07, 0x00, 0x00, 0x00, 
0x00, 0x00, 0xe0, 0x00, 0xff, 0xff, 0xff, 0x07, 0x38, 0x04, 0x00, 0x00, 
0x00, 0xc0, 0x1c, 0x00, 0xff, 0xff, 0xff, 0x07, 0xc0, 0x11, 0x00, 0x00, 
0x00, 0x80, 0x03, 0x80, 0xff, 0xff, 0xff, 0x0f, 0x00, 0x0e, 0x00, 0x00, 
0x00, 0x00, 0x00, 0x80, 0xff, 0xff, 0xff, 0x0f, 0x00, 0x18, 0x00, 0x00, 
0x00, 0xc0, 0x00, 0x00, 0xff, 0xff, 0xff, 0x07, 0x00, 0x00, 0x00, 0x00, 
0x00, 0x00, 0x00, 0x00, 0xff, 0xff, 0xff, 0x07, 0x00, 0x00, 0x00, 0x00, 
0x00, 0x00, 0x00, 0x00, 0xff, 0xff, 0xff, 0x07, 0x00, 0x00, 0x00, 0x00, 
0x00, 0x00, 0x00, 0x00, 0xfe, 0xff, 0xff, 0x03, 0x00, 0x00, 0x00, 0x00, 
0x00, 0x00, 0x00, 0xc0, 0xff, 0xff, 0xff, 0x0f, 0x00, 0x00, 0x00, 0x00, 
0x00, 0x00, 0x00, 0x38, 0xfe, 0xff, 0xff, 0xf3, 0x00, 0x00, 0x00, 0x00, 
0x00, 0x00, 0x00, 0x07, 0xff, 0xff, 0xff, 0x07, 0x07, 0x00, 0x00, 0x00, 
0x00, 0x00, 0xe0, 0x00, 0xff, 0xff, 0xff, 0x07, 0x38, 0x04, 0x00, 0x00, 
0x00, 0x80, 0x1c, 0x00, 0xff, 0xff, 0xff, 0x07, 0xc0, 0x01, 0x00, 0x00, 
0x00, 0xa0, 0x03, 0x80, 0xff, 0xff, 0xff, 0x0f, 0x00, 0x1e, 0x00, 0x00, 
0x00, 0x20, 0x00, 0x80, 0xff, 0xff, 0xff, 0x0f, 0x00, 0x00, 0x00, 0x00, 
0x00, 0x80, 0x00, 0x00, 0xff, 0xff, 0xff, 0x07, 0x00, 0x08, 0x00, 0x00, 
0x00, 0x00, 0x00, 0x00, 0xff, 0xff, 0xff, 0x07, 0x00, 0x00, 0x00, 0x00, 
0x00, 0x00, 0x00, 0x00, 0xff, 0xff, 0xff, 0x07, 0x00, 0x00, 0x00, 0x00, 
0x00, 0x00, 0x00, 0x00, 0xfe, 0xff, 0xff, 0x03, 0x00, 0x00, 0x00, 0x00, 
0x00, 0x00, 0x00, 0xc0, 0xff, 0xff, 0xff, 0x0f, 0x00, 0x00, 0x00, 0x00, 
0x00, 0x00, 0x00, 0x38, 0xfe, 0xff, 0xff, 0xf3, 0x00, 0x00, 0x00, 0x00, 
0x00, 0x00, 0x00, 0x07, 0xfe, 0xff, 0xff, 0x07, 0x07, 0x00, 0x00, 0x00, 
0x00, 0x00, 0xe0, 0x00, 0xff, 0xff, 0xff, 0x07, 0x38, 0x08, 0x00, 0x00, 
0x00, 0x20, 0x1d, 0x00, 0xff, 0xff, 0xff, 0x07, 0xc0, 0x01, 0x00, 0x00, 
0x00, 0x80, 0x03, 0x80, 0xff, 0xff, 0xff, 0x0f, 0x00, 0x2e, 0x00, 0x00, 
0x00, 0x00, 0x00, 0x90, 0xff, 0xff, 0xff, 0x0f, 0x00, 0x02, 0x00, 0x00, 
0x00, 0x20, 0x00, 0x20, 0xff, 0xff, 0xff, 0x07, 0x00, 0x08, 0x00, 0x00, 
0x00, 0x40, 0x00, 0x20, 0xff, 0xff, 0xff, 0x27, 0x00, 0x00, 0x00, 0x00, 
0x00, 0x00, 0x00, 0x00, 0xff, 0xff, 0xff, 0x27, 0x00, 0x00, 0x00, 0x00, 
0x00, 0x00, 0x00, 0x00, 0xfa, 0xff, 0xff, 0x02, 0x00, 0x00, 0x00, 0x00, 
0x00, 0x00, 0x00, 0x80, 0xf8, 0xff, 0xff, 0x10, 0x00, 0x00, 0x00, 0x00, 
0x00, 0x00, 0x00, 0x00, 0xf8, 0xff, 0xff, 0x00, 0x00, 0x00, 0x00, 0x00, 
0x00, 0x00, 0x00, 0x00, 0xf8, 0xff, 0xff, 0x00, 0x00, 0x00, 0x00, 0x00, 
0x00, 0x00, 0x00, 0x00, 0xf2, 0xff, 0x7f, 0x00, 0x00, 0x00, 0x00, 0x00, 
0x00, 0x00, 0x00, 0x00, 0xf0, 0xff, 0x7f, 0x04, 0x00, 0x00, 0x00, 0x00, 
0x00, 0x00, 0x00, 0x00, 0xf2, 0xff, 0x7f, 0x00, 0x00, 0x00, 0x00, 0x00, 
0x00, 0x00, 0x00, 0x00, 0xf0, 0xff, 0xff, 0x00, 0x00, 0x00, 0x00, 0x00, 
0x00, 0x00, 0x00, 0x00, 0xe0, 0xff, 0x3f, 0x00, 0x00, 0x00, 0x00, 0x00, 
0x00, 0x00, 0x00, 0x00, 0xe8, 0xff, 0x7f, 0x00, 0x00, 0x00, 0x00, 0x00, 
0x00, 0x00, 0x00, 0x00, 0xe0, 0xff, 0x3f, 0x00, 0x00, 0x00, 0x00, 0x00, 
0x00, 0x00, 0x00, 0x00, 0xc0, 0xff, 0x1f, 0x00, 0x00, 0x00, 0x00, 0x00, 
0x00, 0x00, 0x00, 0x00, 0xc0, 0xff, 0x1f, 0x00, 0x00, 0x00, 0x00, 0x00, 
0x00, 0x00, 0x00, 0x00, 0xc0, 0xff, 0x1f, 0x00, 0x00, 0x00, 0x00, 0x00, 
0x00, 0x00, 0x00, 0x00, 0x80, 0xff, 0x4f, 0x00, 0x00, 0x00, 0x00, 0x00, 
0x00, 0x00, 0x00, 0x00, 0xa0, 0xff, 0x2f, 0x00, 0x00, 0x00, 0x00, 0x00, 
0x00, 0x00, 0x00, 0x00, 0x00, 0xff, 0x07, 0x00, 0x00, 0x00, 0x00, 0x00, 
0x00, 0x00, 0x00, 0x00, 0x40, 0xff, 0x07, 0x00, 0x00, 0x00, 0x00, 0x00, 
0x00, 0x00, 0x00, 0x00, 0x00, 0xfe, 0x0b, 0x00, 0x00, 0x00, 0x00, 0x00, 
0x00, 0x00, 0x00, 0x00, 0x80, 0xfe, 0x03, 0x00, 0x00, 0x00, 0x00, 0x00, 
0x00, 0x00, 0x00, 0x00, 0x00, 0xfc, 0x01, 0x00, 0x00, 0x00, 0x00, 0x00, 
0x00, 0x00, 0x00, 0x00, 0x00, 0xfa, 0x00, 0x00, 0x00, 0x00, 0x00, 0x00, 
0x00, 0x00, 0x00, 0x00, 0x00, 0xf8, 0x02, 0x00, 0x00, 0x00, 0x00, 0x00, 
0x00, 0x00, 0x00, 0x00, 0x00, 0xf4, 0x00, 0x00, 0x00, 0x00, 0x00, 0x00, 
0x00, 0x00, 0x00, 0x00, 0x00, 0x70, 0x00, 0x00, 0x00, 0x00, 0x00, 0x00, 
0x00, 0x00, 0x00, 0x00, 0x00, 0xf4, 0x00, 0x00, 0x00, 0x00, 0x00, 0x00, 
0x00, 0x00, 0x00, 0x00, 0x00, 0x00, 0x00, 0x00, 0x00, 0x00, 0x00, 0x00, 
0x00, 0x00, 0x00, 0x00, 0x00, 0x10, 0x00, 0x00, 0x00, 0x00, 0x00, 0x00};