#define x_width 30
#define x_height 30
static char x_bits[] = {
0x00, 0x00, 0x00, 0x00, 0x00, 0x00, 0x00, 0x00, 0x00, 0x00, 0x00, 0x00, 
0x00, 0x00, 0x00, 0x00, 0x00, 0x00, 0x00, 0x00, 0x00, 0x00, 0x00, 0x00, 
0x00, 0x00, 0x00, 0x00, 0x00, 0x00, 0x00, 0x00, 0x00, 0x03, 0x00, 0x00, 
0x80, 0x07, 0x00, 0x00, 0x80, 0x07, 0x00, 0x00, 0x80, 0x07, 0x38, 0x00, 
0x80, 0x07, 0x38, 0x00, 0x80, 0xe7, 0x39, 0x00, 0x80, 0xf7, 0x3b, 0x00, 
0x80, 0xf7, 0x7b, 0x00, 0x80, 0xf7, 0x7f, 0x00, 0x80, 0xf7, 0x7f, 0x00, 
0x80, 0xff, 0x7f, 0x00, 0x80, 0xff, 0x7f, 0x00, 0x80, 0xff, 0x7f, 0x00, 
0x80, 0xff, 0x7f, 0x00, 0x80, 0xff, 0x3f, 0x00, 0x80, 0xff, 0x1f, 0x00, 
0x80, 0xf7, 0x0f, 0x00, 0x80, 0x07, 0x00, 0x00, 0x80, 0x07, 0x00, 0x00, 
0x80, 0x07, 0x00, 0x00, 0x80, 0x07, 0x00, 0x00, 0x00, 0x00, 0x00, 0x00};