#define x_width 90
#define x_height 90
static char x_bits[] = {
0x00, 0x00, 0x00, 0x00, 0x00, 0x00, 0x00, 0x00, 0x00, 0x00, 0x00, 0x00, 
0x00, 0x00, 0x00, 0x00, 0x00, 0x00, 0x00, 0x00, 0x00, 0x00, 0x00, 0x00, 
0x00, 0x00, 0x00, 0x00, 0x00, 0x00, 0x00, 0x00, 0x00, 0x00, 0x00, 0x00, 
0x00, 0x00, 0x00, 0x00, 0x00, 0x00, 0x00, 0x00, 0x00, 0x00, 0x00, 0x00, 
0x00, 0x00, 0x00, 0x00, 0x00, 0x00, 0x00, 0x00, 0x00, 0x00, 0x00, 0x00, 
0x00, 0x00, 0x00, 0x00, 0x00, 0x00, 0x00, 0x00, 0x00, 0x00, 0x00, 0x00, 
0x00, 0x00, 0x00, 0x00, 0x00, 0x00, 0x00, 0x00, 0x00, 0x00, 0x00, 0x00, 
0x00, 0x00, 0x00, 0x00, 0x00, 0x00, 0x00, 0x00, 0x00, 0x00, 0x00, 0x00, 
0x00, 0x00, 0x00, 0x00, 0x00, 0x00, 0x00, 0x00, 0x00, 0x00, 0x00, 0x00, 
0x00, 0x00, 0x00, 0x00, 0x00, 0x00, 0x00, 0x00, 0x00, 0x00, 0x00, 0x00, 
0x00, 0x00, 0x00, 0x00, 0x00, 0x00, 0x00, 0x00, 0x00, 0x00, 0x00, 0x00, 
0x00, 0x00, 0x00, 0x00, 0x00, 0x00, 0x00, 0x00, 0x00, 0x00, 0x00, 0x00, 
0x00, 0x00, 0x00, 0x00, 0xc0, 0x00, 0x00, 0x00, 0x00, 0x00, 0x00, 0x00, 
0x00, 0x00, 0x00, 0x00, 0xc0, 0x01, 0x00, 0x00, 0x00, 0x00, 0x00, 0x00, 
0x00, 0x00, 0x00, 0x00, 0x80, 0x03, 0x00, 0x00, 0x00, 0x00, 0x00, 0x00, 
0x00, 0x00, 0x00, 0x00, 0x00, 0x07, 0x00, 0x00, 0xe0, 0x00, 0x00, 0x00, 
0x00, 0x00, 0x00, 0x00, 0x00, 0x0c, 0x00, 0x00, 0xfc, 0x01, 0x00, 0x00, 
0x00, 0x00, 0x00, 0x00, 0x00, 0x18, 0x00, 0x80, 0xff, 0x03, 0x00, 0x00, 
0x00, 0x00, 0x00, 0x00, 0x00, 0x30, 0x00, 0xf0, 0xff, 0x07, 0x00, 0x00, 
0x00, 0x00, 0x00, 0x80, 0x01, 0x60, 0x00, 0xff, 0xff, 0x07, 0x00, 0x00, 
0x00, 0x00, 0x00, 0x80, 0x03, 0xc0, 0x80, 0xff, 0xff, 0x07, 0x00, 0x00, 
0x00, 0x00, 0x00, 0x00, 0x07, 0x80, 0xe1, 0xff, 0xff, 0x07, 0x00, 0x00, 
0x00, 0x00, 0x00, 0x00, 0x0e, 0x00, 0xf3, 0xff, 0xff, 0x07, 0x00, 0x00, 
0x00, 0x00, 0x00, 0x00, 0x18, 0x00, 0xfe, 0xff, 0xff, 0x03, 0x00, 0x00, 
0x00, 0x00, 0x00, 0x00, 0x30, 0x00, 0xfc, 0xff, 0xff, 0x03, 0x00, 0x00, 
0x00, 0x00, 0x00, 0x00, 0x60, 0x00, 0xfe, 0xff, 0xff, 0x01, 0x00, 0x00, 
0x00, 0x00, 0x00, 0x03, 0xc0, 0x00, 0xff, 0xff, 0xff, 0x01, 0x00, 0x00, 
0x00, 0x00, 0x00, 0x07, 0x80, 0x81, 0xff, 0xff, 0xff, 0x01, 0x00, 0x00, 
0x00, 0x00, 0x00, 0x0e, 0x00, 0xc3, 0xff, 0xff, 0xff, 0x01, 0x00, 0x00, 
0x00, 0x00, 0x00, 0x1c, 0x00, 0xe6, 0xff, 0xff, 0xff, 0x00, 0x00, 0x00, 
0x00, 0x00, 0x00, 0x30, 0x00, 0xfc, 0xff, 0xff, 0xff, 0x00, 0x00, 0x00, 
0x00, 0x00, 0x00, 0x60, 0x00, 0xf8, 0xff, 0xff, 0x7f, 0x00, 0x00, 0x00, 
0x00, 0x00, 0x00, 0xc0, 0x00, 0xfc, 0xff, 0xff, 0x7f, 0x00, 0x00, 0x00, 
0x00, 0x00, 0x06, 0x80, 0x01, 0xfe, 0xff, 0xff, 0x3f, 0x00, 0x00, 0x00, 
0x00, 0x00, 0x0e, 0x00, 0x03, 0xff, 0xff, 0xff, 0x1f, 0x00, 0x00, 0x00, 
0x00, 0x00, 0x1c, 0x00, 0x86, 0xff, 0xff, 0xff, 0x1f, 0x00, 0x00, 0x00, 
0x00, 0x00, 0x38, 0x00, 0xcc, 0xff, 0xff, 0xff, 0x1f, 0x00, 0x00, 0x00, 
0x00, 0x00, 0x60, 0x00, 0xf8, 0xff, 0xff, 0xff, 0x0f, 0x00, 0x00, 0x00, 
0x00, 0x00, 0xc0, 0x00, 0xf0, 0xff, 0xff, 0xff, 0x0f, 0x00, 0x00, 0x00, 
0x00, 0x00, 0x80, 0x01, 0xf8, 0xff, 0xff, 0xff, 0x07, 0x00, 0x00, 0x00, 
0x00, 0x00, 0x00, 0x03, 0xfc, 0xff, 0xff, 0xff, 0x0f, 0x00, 0x00, 0x00, 
0x00, 0x00, 0x00, 0x06, 0xfe, 0xff, 0xff, 0xff, 0x19, 0x00, 0x00, 0x00, 
0x00, 0x00, 0x00, 0x0c, 0xff, 0xff, 0xff, 0x7f, 0x30, 0x00, 0x00, 0x00, 
0x00, 0x00, 0x00, 0x98, 0xff, 0xff, 0xff, 0x7f, 0x60, 0x00, 0x00, 0x00, 
0x00, 0x00, 0x00, 0xf0, 0xff, 0xff, 0xff, 0x3f, 0xc0, 0x00, 0x00, 0x00, 
0x00, 0x00, 0x00, 0xe0, 0xff, 0xff, 0xff, 0x1f, 0x80, 0x01, 0x00, 0x00, 
0x00, 0x00, 0x00, 0xf0, 0xff, 0xff, 0xff, 0x0f, 0x00, 0x03, 0x00, 0x00, 
0x00, 0x00, 0x00, 0xf8, 0xff, 0xff, 0xff, 0x1f, 0x00, 0x06, 0x00, 0x00, 
0x00, 0x00, 0x00, 0xfc, 0xff, 0xff, 0xff, 0x33, 0x00, 0x0c, 0x00, 0x00, 
0x00, 0x00, 0x00, 0xfc, 0xff, 0xff, 0xff, 0x60, 0x00, 0x18, 0x00, 0x00, 
0x00, 0x00, 0x00, 0xfe, 0xff, 0xff, 0xff, 0xc0, 0x00, 0x38, 0x00, 0x00, 
0x00, 0x00, 0x00, 0xff, 0xff, 0xff, 0x7f, 0x80, 0x01, 0x70, 0x00, 0x00, 
0x00, 0x00, 0x00, 0xff, 0xff, 0xff, 0x3f, 0x00, 0x03, 0x20, 0x00, 0x00, 
0x00, 0x00, 0x00, 0xff, 0xff, 0xff, 0x1f, 0x00, 0x06, 0x00, 0x00, 0x00, 
0x00, 0x00, 0x80, 0xff, 0xff, 0xff, 0x3f, 0x00, 0x0c, 0x00, 0x00, 0x00, 
0x00, 0x00, 0xc0, 0xff, 0xff, 0xff, 0x67, 0x00, 0x18, 0x00, 0x00, 0x00, 
0x00, 0x00, 0xc0, 0xff, 0xff, 0xff, 0xc1, 0x00, 0x30, 0x00, 0x00, 0x00, 
0x00, 0x00, 0xe0, 0xff, 0xff, 0xff, 0x81, 0x01, 0x70, 0x00, 0x00, 0x00, 
0x00, 0x00, 0xf0, 0xff, 0xff, 0xff, 0x00, 0x03, 0xe0, 0x00, 0x00, 0x00, 
0x00, 0x00, 0xf0, 0xff, 0xff, 0x7f, 0x00, 0x06, 0x40, 0x00, 0x00, 0x00, 
0x00, 0x00, 0xf8, 0xff, 0xff, 0x3f, 0x00, 0x0c, 0x00, 0x00, 0x00, 0x00, 
0x00, 0x00, 0xf8, 0xff, 0xff, 0x7f, 0x00, 0x18, 0x00, 0x00, 0x00, 0x00, 
0x00, 0x00, 0xf8, 0xff, 0xff, 0xcf, 0x00, 0x30, 0x00, 0x00, 0x00, 0x00, 
0x00, 0x00, 0xfc, 0xff, 0xff, 0x83, 0x01, 0x60, 0x00, 0x00, 0x00, 0x00, 
0x00, 0x00, 0xfc, 0xff, 0xff, 0x03, 0x03, 0xe0, 0x00, 0x00, 0x00, 0x00, 
0x00, 0x00, 0xfc, 0xff, 0x7f, 0x00, 0x06, 0xc0, 0x01, 0x00, 0x00, 0x00, 
0x00, 0x00, 0xfe, 0xff, 0x1f, 0x00, 0x0c, 0x80, 0x00, 0x00, 0x00, 0x00, 
0x00, 0x00, 0xfe, 0xff, 0x0f, 0x00, 0x18, 0x00, 0x00, 0x00, 0x00, 0x00, 
0x00, 0x00, 0xff, 0xff, 0x03, 0x00, 0x30, 0x00, 0x00, 0x00, 0x00, 0x00, 
0x00, 0x00, 0xff, 0xff, 0x01, 0x00, 0x60, 0x00, 0x00, 0x00, 0x00, 0x00, 
0x00, 0x00, 0xff, 0x3f, 0x00, 0x00, 0xc0, 0x00, 0x00, 0x00, 0x00, 0x00, 
0x00, 0x00, 0xff, 0x0f, 0x00, 0x00, 0xc0, 0x01, 0x00, 0x00, 0x00, 0x00, 
0x00, 0x00, 0xff, 0x03, 0x00, 0x00, 0x80, 0x03, 0x00, 0x00, 0x00, 0x00, 
0x00, 0x00, 0xfe, 0x00, 0x00, 0x00, 0x00, 0x01, 0x00, 0x00, 0x00, 0x00, 
0x00, 0x00, 0x00, 0x00, 0x00, 0x00, 0x00, 0x00, 0x00, 0x00, 0x00, 0x00, 
0x00, 0x00, 0x00, 0x00, 0x00, 0x00, 0x00, 0x00, 0x00, 0x00, 0x00, 0x00, 
0x00, 0x00, 0x00, 0x00, 0x00, 0x00, 0x00, 0x00, 0x00, 0x00, 0x00, 0x00, 
0x00, 0x00, 0x00, 0x00, 0x00, 0x00, 0x00, 0x00, 0x00, 0x00, 0x00, 0x00, 
0x00, 0x00, 0x00, 0x00, 0x00, 0x00, 0x00, 0x00, 0x00, 0x00, 0x00, 0x00, 
0x00, 0x00, 0x00, 0x00, 0x00, 0x00, 0x00, 0x00, 0x00, 0x00, 0x00, 0x00, 
0x00, 0x00, 0x00, 0x00, 0x00, 0x00, 0x00, 0x00, 0x00, 0x00, 0x00, 0x00, 
0x00, 0x00, 0x00, 0x00, 0x00, 0x00, 0x00, 0x00, 0x00, 0x00, 0x00, 0x00, 
0x00, 0x00, 0x00, 0x00, 0x00, 0x00, 0x00, 0x00, 0x00, 0x00, 0x00, 0x00, 
0x00, 0x00, 0x00, 0x00, 0x00, 0x00, 0x00, 0x00, 0x00, 0x00, 0x00, 0x00, 
0x00, 0x00, 0x00, 0x00, 0x00, 0x00, 0x00, 0x00, 0x00, 0x00, 0x00, 0x00, 
0x00, 0x00, 0x00, 0x00, 0x00, 0x00, 0x00, 0x00, 0x00, 0x00, 0x00, 0x00, 
0x00, 0x00, 0x00, 0x00, 0x00, 0x00, 0x00, 0x00, 0x00, 0x00, 0x00, 0x00, 
0x00, 0x00, 0x00, 0x00, 0x00, 0x00, 0x00, 0x00, 0x00, 0x00, 0x00, 0x00, 
0x00, 0x00, 0x00, 0x00, 0x00, 0x00, 0x00, 0x00, 0x00, 0x00, 0x00, 0x00, 
0x00, 0x00, 0x00, 0x00, 0x00, 0x00, 0x00, 0x00, 0x00, 0x00, 0x00, 0x00};