#define x_width 90
#define x_height 90
static char x_bits[] = {
0x00, 0x00, 0x00, 0x00, 0x00, 0x00, 0x00, 0x00, 0x00, 0x00, 0x00, 0x00, 
0x00, 0x00, 0x00, 0x00, 0x00, 0x00, 0x00, 0x00, 0x00, 0x00, 0x00, 0x00, 
0x00, 0x00, 0x00, 0x00, 0x00, 0x38, 0x00, 0x00, 0x00, 0x00, 0x00, 0x00, 
0x00, 0x00, 0x00, 0x00, 0x00, 0x38, 0x00, 0x00, 0x00, 0x00, 0x00, 0x00, 
0x00, 0x00, 0x00, 0x00, 0x00, 0x3c, 0x00, 0x00, 0x00, 0x00, 0x00, 0x00, 
0x00, 0x00, 0x00, 0x00, 0x00, 0x7e, 0x00, 0x00, 0x00, 0x00, 0x00, 0x00, 
0x00, 0x00, 0x00, 0x00, 0x00, 0x7e, 0x00, 0x00, 0x00, 0x00, 0x00, 0x00, 
0x00, 0x00, 0x00, 0x00, 0x00, 0xfe, 0x00, 0x00, 0x00, 0x00, 0x00, 0x00, 
0x00, 0x00, 0x00, 0x00, 0x00, 0xff, 0x01, 0x00, 0x00, 0x00, 0x00, 0x00, 
0x00, 0x00, 0x00, 0x00, 0x00, 0xff, 0x01, 0x00, 0x00, 0x00, 0x00, 0x00, 
0x00, 0x00, 0x00, 0x00, 0x80, 0xff, 0x03, 0x00, 0x00, 0x00, 0x00, 0x00, 
0x00, 0x00, 0x00, 0x00, 0x80, 0xff, 0x03, 0x00, 0x00, 0x00, 0x00, 0x00, 
0x00, 0x00, 0x00, 0x00, 0xc0, 0xff, 0x07, 0x00, 0x00, 0x00, 0x00, 0x00, 
0x00, 0x00, 0x00, 0x00, 0xc0, 0xff, 0x07, 0x00, 0x00, 0x00, 0x00, 0x00, 
0x00, 0x00, 0x00, 0x00, 0xe0, 0xff, 0x0f, 0x00, 0x00, 0x00, 0x00, 0x00, 
0x00, 0x00, 0x00, 0x00, 0xe0, 0xff, 0x0f, 0x00, 0x00, 0x00, 0x00, 0x00, 
0x00, 0x00, 0x00, 0x00, 0xf0, 0xff, 0x0f, 0x00, 0x00, 0x00, 0x00, 0x00, 
0x00, 0x00, 0x00, 0x00, 0xf8, 0xff, 0x1f, 0x00, 0x00, 0x00, 0x00, 0x00, 
0x00, 0x00, 0x00, 0x00, 0xf8, 0xff, 0x1f, 0x00, 0x00, 0x00, 0x00, 0x00, 
0x00, 0x00, 0x00, 0x00, 0xf8, 0xff, 0x1f, 0x00, 0x00, 0x00, 0x00, 0x00, 
0x00, 0x00, 0x00, 0x00, 0xf8, 0xff, 0x3f, 0x00, 0x00, 0x00, 0x00, 0x00, 
0x00, 0x00, 0x00, 0x00, 0xf8, 0xff, 0x3f, 0x00, 0x00, 0x00, 0x00, 0x00, 
0x00, 0x00, 0x00, 0x00, 0xfc, 0xff, 0x3f, 0x00, 0x00, 0x00, 0x00, 0x00, 
0x00, 0x00, 0x00, 0x00, 0xfc, 0xff, 0x3f, 0x00, 0x00, 0x00, 0x00, 0x00, 
0x00, 0x00, 0x00, 0x00, 0xfc, 0xff, 0x7f, 0x00, 0x00, 0x00, 0x00, 0x00, 
0x00, 0x00, 0x00, 0x00, 0xfc, 0xff, 0x7f, 0x00, 0x00, 0x00, 0x00, 0x00, 
0x00, 0x00, 0x00, 0x00, 0xfe, 0xff, 0x7f, 0x00, 0x00, 0x00, 0x00, 0x00, 
0x00, 0x00, 0x00, 0x00, 0xff, 0xff, 0x7f, 0x01, 0x00, 0x00, 0x00, 0x00, 
0x00, 0x00, 0x00, 0x80, 0xff, 0xff, 0xff, 0x03, 0x00, 0x00, 0x00, 0x00, 
0x00, 0x00, 0x00, 0x80, 0xff, 0xff, 0xff, 0x03, 0x00, 0x00, 0x00, 0x00, 
0x00, 0x00, 0x00, 0x80, 0xff, 0xff, 0xff, 0x03, 0x00, 0x00, 0x00, 0x00, 
0x00, 0x00, 0x00, 0xc0, 0xff, 0xff, 0xff, 0x07, 0x00, 0x00, 0x00, 0x00, 
0x00, 0x00, 0x00, 0xc0, 0xff, 0xff, 0xff, 0x07, 0x00, 0x00, 0x00, 0x00, 
0x00, 0x00, 0x00, 0x80, 0xff, 0xff, 0xff, 0x03, 0x00, 0x00, 0x00, 0x00, 
0x00, 0x00, 0x50, 0xa0, 0xff, 0xff, 0xff, 0x03, 0x00, 0x00, 0x00, 0x00, 
0x00, 0x00, 0xe8, 0x81, 0xff, 0xff, 0xff, 0x01, 0x00, 0x00, 0x00, 0x00, 
0x00, 0x00, 0x00, 0x1e, 0xff, 0xff, 0xff, 0x21, 0x00, 0x00, 0x00, 0x00, 
0x00, 0x00, 0x00, 0xe0, 0xff, 0xff, 0xff, 0x1f, 0x00, 0x00, 0x00, 0x00, 
0x00, 0x00, 0x00, 0x10, 0xff, 0xff, 0xff, 0x01, 0x00, 0x00, 0x00, 0x00, 
0x00, 0x00, 0x00, 0x90, 0xff, 0xff, 0xff, 0x03, 0x00, 0x00, 0x00, 0x00, 
0x00, 0x00, 0x00, 0x80, 0xff, 0xff, 0xff, 0x33, 0x00, 0x00, 0x00, 0x00, 
0x00, 0x00, 0x00, 0x80, 0xff, 0xff, 0xff, 0x43, 0x00, 0x00, 0x00, 0x00, 
0x00, 0x00, 0x00, 0xc5, 0xff, 0xff, 0xff, 0x07, 0x00, 0x00, 0x00, 0x00, 
0x00, 0x00, 0x00, 0xc0, 0xff, 0xff, 0xff, 0x07, 0x01, 0x00, 0x00, 0x00, 
0x00, 0x00, 0x80, 0x96, 0xff, 0xff, 0xff, 0x03, 0x0c, 0x00, 0x00, 0x00, 
0x00, 0x00, 0x80, 0x80, 0xff, 0xff, 0xff, 0x03, 0x10, 0x00, 0x00, 0x00, 
0x00, 0x00, 0x40, 0x80, 0xff, 0xff, 0xff, 0x13, 0x40, 0x00, 0x00, 0x00, 
0x00, 0x00, 0x20, 0x00, 0xff, 0xff, 0xff, 0x01, 0x00, 0x01, 0x00, 0x00, 
0x00, 0x00, 0x00, 0x00, 0xcf, 0xff, 0xff, 0x1f, 0x00, 0x00, 0x00, 0x00, 
0x00, 0x00, 0x10, 0xf8, 0x87, 0x01, 0x80, 0xe1, 0x00, 0x08, 0x00, 0x00, 
0x00, 0x00, 0x80, 0x87, 0x31, 0x1c, 0x30, 0x0a, 0x1c, 0x10, 0x00, 0x00, 
0x00, 0x80, 0x1f, 0x00, 0x80, 0x00, 0x00, 0x08, 0xe0, 0x0f, 0x00, 0x00, 
0x00, 0xe0, 0x03, 0x80, 0x94, 0x22, 0x02, 0x08, 0x00, 0x2f, 0x00, 0x00, 
0x00, 0x00, 0x00, 0x40, 0x00, 0x06, 0xa0, 0x21, 0x00, 0x00, 0x00, 0x00, 
0x00, 0x00, 0x04, 0x80, 0x1a, 0x30, 0x02, 0x04, 0x00, 0x10, 0x00, 0x00, 
0x00, 0x00, 0x00, 0x00, 0x64, 0x01, 0x38, 0x28, 0x00, 0x50, 0x00, 0x00, 
0x00, 0x00, 0x44, 0x40, 0x04, 0x00, 0x00, 0x02, 0x30, 0x00, 0x00, 0x00, 
0x00, 0x00, 0x20, 0x00, 0x80, 0x04, 0xa1, 0x00, 0x00, 0x10, 0x00, 0x00, 
0x00, 0x00, 0xe4, 0x07, 0x0f, 0x20, 0xc2, 0x51, 0x44, 0x40, 0x00, 0x00, 
0x00, 0x00, 0x28, 0xf8, 0x7f, 0x00, 0xe4, 0xff, 0x3f, 0x00, 0x00, 0x00, 
0x00, 0x00, 0x40, 0x01, 0xff, 0xe3, 0xff, 0x01, 0x80, 0x00, 0x00, 0x00, 
0x00, 0x00, 0x08, 0x80, 0xff, 0xff, 0xff, 0x03, 0x18, 0x08, 0x00, 0x00, 
0x00, 0x00, 0x10, 0x80, 0xff, 0xff, 0xff, 0x03, 0x40, 0x00, 0x00, 0x00, 
0x00, 0x00, 0x00, 0x80, 0xff, 0xff, 0xff, 0x23, 0x00, 0x40, 0x00, 0x00, 
0x00, 0x00, 0x10, 0xc0, 0xff, 0xff, 0xff, 0x07, 0x00, 0x00, 0x00, 0x00, 
0x00, 0x00, 0x20, 0xc0, 0xff, 0xff, 0xff, 0x07, 0x00, 0x00, 0x00, 0x00, 
0x00, 0x00, 0x80, 0x80, 0xff, 0xff, 0xff, 0x03, 0x00, 0x20, 0x00, 0x00, 
0x00, 0x00, 0x80, 0x80, 0xff, 0xff, 0xff, 0x03, 0x00, 0x10, 0x00, 0x00, 
0x00, 0x00, 0x00, 0x82, 0xff, 0xff, 0xff, 0x03, 0x00, 0x00, 0x00, 0x00, 
0x00, 0x00, 0x80, 0x04, 0xff, 0xff, 0xff, 0x01, 0x00, 0x06, 0x00, 0x00, 
0x00, 0x00, 0x00, 0xe0, 0xff, 0xff, 0xff, 0x0f, 0x00, 0x00, 0x00, 0x00, 
0x00, 0x00, 0x00, 0x1c, 0xff, 0xff, 0xff, 0x11, 0x80, 0x00, 0x00, 0x00, 
0x00, 0x00, 0x00, 0x00, 0xff, 0xff, 0xff, 0x01, 0x10, 0x00, 0x00, 0x00, 
0x00, 0x00, 0x00, 0x20, 0xfe, 0xff, 0xff, 0x00, 0x10, 0x00, 0x00, 0x00, 
0x00, 0x00, 0x06, 0x00, 0xfe, 0xff, 0xff, 0x00, 0xe0, 0x0f, 0x00, 0x00, 
0x00, 0xc0, 0x03, 0x00, 0xfe, 0xff, 0xff, 0x00, 0x02, 0x0f, 0x00, 0x00, 
0x00, 0xe0, 0x01, 0x00, 0xfe, 0xff, 0xff, 0xa8, 0x00, 0x00, 0x00, 0x00, 
0x00, 0x00, 0x00, 0x00, 0xfe, 0xff, 0xff, 0x00, 0x00, 0x00, 0x00, 0x00, 
0x00, 0x00, 0x00, 0x00, 0xfc, 0xff, 0x7f, 0x00, 0x00, 0x00, 0x00, 0x00, 
0x00, 0x00, 0x00, 0x00, 0xfc, 0xff, 0x7f, 0x00, 0x00, 0x00, 0x00, 0x00, 
0x00, 0x00, 0x00, 0x00, 0xfc, 0xff, 0x7f, 0x00, 0x00, 0x00, 0x00, 0x00, 
0x00, 0x00, 0x00, 0x00, 0xf8, 0xff, 0x7f, 0x00, 0x00, 0x00, 0x00, 0x00, 
0x00, 0x00, 0x00, 0x00, 0xf8, 0xff, 0x3f, 0x00, 0x00, 0x00, 0x00, 0x00, 
0x00, 0x00, 0x00, 0x00, 0xf8, 0xff, 0x3f, 0x00, 0x00, 0x00, 0x00, 0x00, 
0x00, 0x00, 0x00, 0x00, 0xf0, 0xff, 0x1f, 0x00, 0x00, 0x00, 0x00, 0x00, 
0x00, 0x00, 0x00, 0x00, 0xe0, 0xff, 0x0f, 0x00, 0x00, 0x00, 0x00, 0x00, 
0x00, 0x00, 0x00, 0x00, 0xc0, 0xff, 0x07, 0x00, 0x00, 0x00, 0x00, 0x00, 
0x00, 0x00, 0x00, 0x00, 0x80, 0xff, 0x03, 0x00, 0x00, 0x00, 0x00, 0x00, 
0x00, 0x00, 0x00, 0x00, 0x00, 0x7c, 0x00, 0x00, 0x00, 0x00, 0x00, 0x00, 
0x00, 0x00, 0x00, 0x00, 0x00, 0x00, 0x00, 0x00, 0x00, 0x00, 0x00, 0x00};