#define x_width 90
#define x_height 90
static char x_bits[] = {
0x00, 0x00, 0x00, 0x00, 0x00, 0x00, 0x00, 0x00, 0x00, 0x00, 0x00, 0x00, 
0x00, 0x00, 0x00, 0x00, 0x00, 0x00, 0x00, 0x00, 0x00, 0x00, 0x00, 0x00, 
0x00, 0x00, 0x00, 0x00, 0x00, 0x00, 0x00, 0x00, 0x00, 0x00, 0x00, 0x00, 
0x00, 0x00, 0x00, 0x00, 0x00, 0x00, 0x00, 0x00, 0x00, 0x00, 0x00, 0x00, 
0x00, 0x00, 0x00, 0x00, 0x00, 0x08, 0x00, 0x00, 0x00, 0x00, 0x00, 0x00, 
0x00, 0x00, 0x00, 0x00, 0x00, 0x20, 0x00, 0x00, 0x00, 0x00, 0x00, 0x00, 
0x00, 0x00, 0x00, 0x00, 0x00, 0xf0, 0x00, 0x00, 0x00, 0x00, 0x00, 0x00, 
0x00, 0x00, 0x00, 0x00, 0x00, 0x1a, 0x00, 0x00, 0x00, 0x00, 0x00, 0x00, 
0x00, 0x00, 0x00, 0x00, 0x00, 0x88, 0x00, 0x00, 0x00, 0x00, 0x00, 0x00, 
0x00, 0x00, 0x00, 0x00, 0x00, 0x48, 0x00, 0x00, 0x00, 0x00, 0x00, 0x00, 
0x00, 0x00, 0x00, 0x00, 0x00, 0x01, 0x00, 0x00, 0x00, 0x00, 0x00, 0x00, 
0x00, 0x00, 0x00, 0x00, 0x20, 0x10, 0x53, 0x00, 0x00, 0x00, 0x00, 0x00, 
0x00, 0x00, 0x00, 0x00, 0x08, 0x00, 0x00, 0x00, 0x00, 0x00, 0x00, 0x00, 
0x00, 0x00, 0x00, 0x00, 0x00, 0x00, 0x80, 0x04, 0x00, 0x00, 0x00, 0x00, 
0x00, 0x00, 0xe0, 0x03, 0x10, 0x00, 0x04, 0x00, 0x00, 0x00, 0x00, 0x00, 
0x00, 0x00, 0xf0, 0x0f, 0x04, 0x00, 0x00, 0x08, 0x00, 0x00, 0x00, 0x00, 
0x00, 0x00, 0xfc, 0x3f, 0x00, 0x00, 0x83, 0x10, 0x00, 0x00, 0x00, 0x00, 
0x00, 0x00, 0xff, 0xff, 0x00, 0x00, 0x00, 0x00, 0x00, 0x00, 0x00, 0x00, 
0x00, 0x80, 0xff, 0xff, 0x03, 0x00, 0x00, 0x40, 0x00, 0x00, 0x00, 0x00, 
0x00, 0x80, 0xff, 0xff, 0x03, 0x00, 0x00, 0x40, 0x00, 0x00, 0x00, 0x00, 
0x00, 0xc0, 0xff, 0xff, 0x0f, 0x00, 0x00, 0x10, 0x00, 0x00, 0x00, 0x00, 
0x00, 0xc0, 0xff, 0xff, 0x07, 0x00, 0x00, 0x89, 0x00, 0x00, 0x00, 0x00, 
0x00, 0xc0, 0xff, 0x7f, 0x82, 0x00, 0x00, 0x4c, 0x01, 0x00, 0x00, 0x00, 
0x00, 0xc0, 0xff, 0x1f, 0x48, 0x00, 0x00, 0x2c, 0x00, 0x00, 0x00, 0x00, 
0x00, 0xc0, 0xff, 0x07, 0x00, 0x00, 0x00, 0x42, 0x02, 0x00, 0x00, 0x00, 
0x00, 0xc0, 0xff, 0x83, 0x10, 0x08, 0x00, 0x03, 0x09, 0x00, 0x00, 0x00, 
0x00, 0x80, 0xff, 0x01, 0x00, 0x38, 0x03, 0x00, 0x04, 0x00, 0x00, 0x00, 
0x00, 0x80, 0xff, 0x01, 0x00, 0x00, 0x00, 0x00, 0x05, 0x00, 0x00, 0x00, 
0x00, 0x80, 0xff, 0x00, 0x40, 0x00, 0x92, 0x01, 0x00, 0x00, 0x00, 0x00, 
0x00, 0x80, 0xff, 0x00, 0x00, 0x20, 0x40, 0x00, 0x00, 0x00, 0x00, 0x00, 
0x00, 0x00, 0xff, 0x00, 0x00, 0x00, 0xa0, 0x00, 0x28, 0x00, 0x00, 0x00, 
0x00, 0x00, 0x7e, 0x00, 0x00, 0x00, 0x20, 0x00, 0x00, 0x00, 0x00, 0x00, 
0x00, 0x00, 0x7e, 0x24, 0x00, 0x00, 0x20, 0x00, 0x08, 0x00, 0x00, 0x00, 
0x00, 0x00, 0x7c, 0x00, 0x00, 0xa0, 0x00, 0x00, 0x10, 0x00, 0x00, 0x00, 
0x00, 0x80, 0x3c, 0x01, 0x00, 0x00, 0x0c, 0x00, 0x00, 0x00, 0x00, 0x00, 
0x00, 0x00, 0x18, 0x00, 0x04, 0x00, 0x40, 0x00, 0x09, 0x00, 0x00, 0x00, 
0x00, 0x00, 0x00, 0x06, 0x00, 0x01, 0x00, 0x00, 0x08, 0x00, 0x00, 0x00, 
0x00, 0x28, 0x00, 0x00, 0x00, 0x00, 0x00, 0x00, 0x00, 0x00, 0x00, 0x00, 
0x00, 0x00, 0x00, 0x20, 0x40, 0x00, 0x88, 0x20, 0x00, 0x00, 0x00, 0x00, 
0x00, 0xa0, 0x00, 0x00, 0x80, 0x00, 0xc0, 0x41, 0x04, 0x00, 0x00, 0x00, 
0x00, 0x20, 0x00, 0x00, 0x00, 0x00, 0xe0, 0x2a, 0x04, 0x00, 0x00, 0x00, 
0x00, 0x04, 0x00, 0x18, 0x00, 0x00, 0xc2, 0x4f, 0x02, 0x00, 0x00, 0x00, 
0x20, 0x14, 0x00, 0x08, 0x00, 0x00, 0xe2, 0x87, 0x01, 0x00, 0x00, 0x00, 
0x00, 0x13, 0x00, 0x00, 0x00, 0x00, 0xc0, 0x1b, 0x00, 0x00, 0x00, 0x00, 
0x88, 0x01, 0x00, 0x00, 0x00, 0x00, 0xe0, 0x7f, 0x00, 0x00, 0x00, 0x00, 
0xc0, 0x00, 0x00, 0x80, 0x00, 0x00, 0xe0, 0x6f, 0x00, 0x00, 0x00, 0x00, 
0x08, 0x04, 0x00, 0x00, 0x00, 0x90, 0xf0, 0xff, 0x00, 0x00, 0x00, 0x00, 
0x00, 0x02, 0x00, 0x00, 0x03, 0x04, 0xf0, 0x7f, 0x01, 0x00, 0x00, 0x00, 
0x00, 0x20, 0x80, 0x00, 0x40, 0x06, 0xf0, 0xff, 0x01, 0x00, 0x00, 0x00, 
0x00, 0x00, 0x50, 0xc0, 0x08, 0x00, 0xf8, 0xff, 0x01, 0x00, 0x00, 0x00, 
0x00, 0x20, 0x62, 0x40, 0x40, 0x01, 0xfe, 0xff, 0x01, 0x00, 0x00, 0x00, 
0x00, 0x00, 0x10, 0x00, 0x00, 0x08, 0xff, 0xff, 0x03, 0x00, 0x00, 0x00, 
0x00, 0x00, 0x04, 0x00, 0x00, 0xce, 0xff, 0xff, 0x03, 0x00, 0x00, 0x00, 
0x00, 0x00, 0x50, 0x00, 0x01, 0xff, 0xff, 0xff, 0x07, 0x00, 0x00, 0x00, 
0x00, 0x80, 0x00, 0x00, 0x80, 0xff, 0xff, 0xff, 0x07, 0x00, 0x00, 0x00, 
0x00, 0x00, 0x04, 0x00, 0xc0, 0xff, 0xff, 0xff, 0x1f, 0x00, 0x00, 0x00, 
0x00, 0x00, 0x00, 0x00, 0x00, 0xff, 0xff, 0xff, 0x1f, 0x00, 0x00, 0x00, 
0x00, 0x20, 0x00, 0x00, 0x00, 0xfc, 0xff, 0xff, 0x3f, 0x00, 0x00, 0x00, 
0x00, 0x00, 0x00, 0x01, 0x00, 0xfa, 0xff, 0xff, 0x3f, 0x00, 0x00, 0x00, 
0x00, 0x00, 0x10, 0x00, 0x00, 0xf1, 0xff, 0xff, 0x3f, 0x00, 0x00, 0x00, 
0x00, 0x00, 0x20, 0x00, 0x00, 0xf0, 0xff, 0xff, 0x3f, 0x00, 0x00, 0x00, 
0x00, 0x00, 0x04, 0x00, 0x00, 0xe0, 0xff, 0xff, 0x3f, 0x00, 0x00, 0x00, 
0x00, 0x00, 0x00, 0x40, 0x00, 0xf0, 0xff, 0xff, 0x7f, 0x00, 0x00, 0x00, 
0x00, 0x00, 0x00, 0x00, 0x80, 0x80, 0xf9, 0xff, 0x7f, 0x00, 0x00, 0x00, 
0x00, 0x00, 0x00, 0x04, 0x00, 0x00, 0xf0, 0xff, 0xff, 0x00, 0x00, 0x00, 
0x00, 0x00, 0x00, 0x60, 0x00, 0x20, 0xc0, 0xff, 0xff, 0x00, 0x00, 0x00, 
0x00, 0x00, 0x00, 0x00, 0x22, 0x00, 0x80, 0xff, 0xf7, 0x00, 0x00, 0x00, 
0x00, 0x00, 0x00, 0x00, 0x2a, 0x1a, 0x00, 0xfe, 0xff, 0x01, 0x00, 0x00, 
0x00, 0x00, 0x00, 0x00, 0x00, 0x01, 0x00, 0xf8, 0xff, 0x01, 0x00, 0x00, 
0x00, 0x00, 0x00, 0x08, 0x00, 0x00, 0x00, 0xf0, 0xff, 0x01, 0x00, 0x00, 
0x00, 0x00, 0x00, 0x00, 0x00, 0x00, 0x00, 0x00, 0xff, 0x01, 0x00, 0x00, 
0x00, 0x00, 0x00, 0x00, 0x00, 0x00, 0x00, 0x00, 0xe0, 0x03, 0x00, 0x00, 
0x00, 0x00, 0x00, 0x00, 0x00, 0x20, 0x00, 0x00, 0x80, 0x01, 0x00, 0x00, 
0x00, 0x00, 0x00, 0x00, 0x08, 0x00, 0x00, 0x00, 0x00, 0x00, 0x00, 0x00, 
0x00, 0x00, 0x00, 0x00, 0x00, 0x01, 0x00, 0x00, 0x00, 0x00, 0x00, 0x00, 
0x00, 0x00, 0x00, 0x00, 0x00, 0x00, 0x00, 0x00, 0x00, 0x00, 0x00, 0x00, 
0x00, 0x00, 0x00, 0x00, 0x00, 0x00, 0x00, 0x00, 0x00, 0x00, 0x00, 0x00, 
0x00, 0x00, 0x00, 0x00, 0x00, 0x00, 0x00, 0x00, 0x00, 0x00, 0x00, 0x00, 
0x00, 0x00, 0x00, 0x00, 0x00, 0x00, 0x00, 0x00, 0x00, 0x00, 0x00, 0x00, 
0x00, 0x00, 0x00, 0x00, 0x00, 0x00, 0x00, 0x00, 0x00, 0x00, 0x00, 0x00, 
0x00, 0x00, 0x00, 0x00, 0x00, 0x00, 0x00, 0x00, 0x00, 0x00, 0x00, 0x00, 
0x00, 0x00, 0x00, 0x00, 0x00, 0x00, 0x00, 0x00, 0x00, 0x00, 0x00, 0x00, 
0x00, 0x00, 0x00, 0x00, 0x00, 0x00, 0x00, 0x00, 0x00, 0x00, 0x00, 0x00, 
0x00, 0x00, 0x00, 0x00, 0x00, 0x00, 0x00, 0x00, 0x00, 0x00, 0x00, 0x00, 
0x00, 0x00, 0x00, 0x00, 0x00, 0x00, 0x00, 0x00, 0x00, 0x00, 0x00, 0x00, 
0x00, 0x00, 0x00, 0x00, 0x00, 0x00, 0x00, 0x00, 0x00, 0x00, 0x00, 0x00, 
0x00, 0x00, 0x00, 0x00, 0x00, 0x00, 0x00, 0x00, 0x00, 0x00, 0x00, 0x00, 
0x00, 0x00, 0x00, 0x00, 0x00, 0x00, 0x00, 0x00, 0x00, 0x00, 0x00, 0x00, 
0x00, 0x00, 0x00, 0x00, 0x00, 0x00, 0x00, 0x00, 0x00, 0x00, 0x00, 0x00, 
0x00, 0x00, 0x00, 0x00, 0x00, 0x00, 0x00, 0x00, 0x00, 0x00, 0x00, 0x00};