#define x_width 90
#define x_height 90
static char x_bits[] = {
0x00, 0x00, 0x00, 0x00, 0x00, 0x00, 0x00, 0x00, 0x00, 0x00, 0x00, 0x00, 
0x00, 0x00, 0x00, 0x00, 0x00, 0x00, 0x00, 0x00, 0x00, 0x00, 0x00, 0x00, 
0x00, 0x00, 0x00, 0x00, 0x00, 0x00, 0x00, 0x00, 0x00, 0x00, 0x00, 0x00, 
0x00, 0x00, 0x00, 0x00, 0x00, 0x00, 0x00, 0x00, 0x00, 0x00, 0x00, 0x00, 
0x00, 0x00, 0x00, 0x00, 0x00, 0x00, 0x00, 0x00, 0x00, 0x00, 0x00, 0x00, 
0x00, 0x00, 0x00, 0x00, 0x00, 0x00, 0x00, 0x00, 0x00, 0x00, 0x00, 0x00, 
0x00, 0x00, 0x00, 0x00, 0x00, 0x00, 0x00, 0x00, 0x00, 0x00, 0x00, 0x00, 
0x00, 0x00, 0x00, 0x00, 0x00, 0x00, 0x00, 0x00, 0x00, 0x00, 0x00, 0x00, 
0x00, 0x00, 0x00, 0x00, 0x00, 0x00, 0x00, 0x00, 0x00, 0x00, 0x00, 0x00, 
0x00, 0x00, 0x00, 0x00, 0x00, 0x00, 0x00, 0x00, 0x00, 0x00, 0x00, 0x00, 
0x00, 0x00, 0x00, 0x00, 0x00, 0x00, 0x00, 0x00, 0x00, 0x00, 0x00, 0x00, 
0x00, 0x00, 0x00, 0x00, 0x00, 0x00, 0x00, 0x00, 0x00, 0x00, 0x00, 0x00, 
0x00, 0x00, 0x00, 0x00, 0x00, 0x00, 0x00, 0x00, 0x00, 0x00, 0x00, 0x00, 
0x00, 0x00, 0x00, 0x00, 0x00, 0x00, 0x68, 0x00, 0x00, 0x00, 0x00, 0x00, 
0x00, 0x00, 0x00, 0x00, 0x00, 0x00, 0x20, 0x00, 0x00, 0x00, 0x00, 0x00, 
0x00, 0x00, 0x00, 0x00, 0x00, 0x00, 0x10, 0x00, 0x00, 0x00, 0x00, 0x00, 
0x00, 0x00, 0x3e, 0x00, 0x00, 0x00, 0x10, 0x00, 0x00, 0x00, 0x00, 0x00, 
0x00, 0x00, 0xff, 0x00, 0x00, 0x00, 0x18, 0x00, 0x00, 0x00, 0x00, 0x00, 
0x00, 0x80, 0xff, 0x0f, 0x00, 0x00, 0x08, 0x00, 0x00, 0x00, 0x00, 0x00, 
0x00, 0x00, 0xff, 0x3f, 0x00, 0x00, 0x04, 0x00, 0x00, 0x00, 0x00, 0x00, 
0x00, 0x00, 0xff, 0xff, 0x00, 0x00, 0x06, 0x48, 0x00, 0x00, 0x00, 0x00, 
0x00, 0x00, 0xff, 0xff, 0x03, 0x00, 0x02, 0x10, 0x00, 0x00, 0x00, 0x00, 
0x00, 0x00, 0xff, 0xff, 0x0f, 0x00, 0x01, 0x28, 0x00, 0x00, 0x00, 0x00, 
0x00, 0x00, 0xff, 0xff, 0x3f, 0x00, 0x01, 0x08, 0x00, 0x00, 0x00, 0x00, 
0x00, 0x00, 0xfe, 0xff, 0x7f, 0x80, 0x00, 0x0c, 0x00, 0x00, 0x00, 0x00, 
0x00, 0x00, 0xfe, 0xff, 0xff, 0x40, 0x00, 0x04, 0x00, 0x00, 0x00, 0x00, 
0x00, 0x00, 0xfc, 0xff, 0xff, 0x43, 0x00, 0x02, 0x00, 0x00, 0x00, 0x00, 
0x00, 0x00, 0xfc, 0xff, 0xff, 0x27, 0x00, 0x03, 0x04, 0x00, 0x00, 0x00, 
0x00, 0x00, 0xf8, 0xff, 0xff, 0x1f, 0x00, 0x01, 0x28, 0x00, 0x00, 0x00, 
0x00, 0x00, 0xf8, 0xff, 0xff, 0x1f, 0x80, 0x00, 0x0c, 0x00, 0x00, 0x00, 
0x00, 0x00, 0xf0, 0xff, 0xff, 0x3f, 0x80, 0x00, 0x04, 0x00, 0x00, 0x00, 
0x00, 0x00, 0xf0, 0xff, 0xff, 0x7f, 0x40, 0x00, 0x06, 0x00, 0x00, 0x00, 
0x00, 0x00, 0xf0, 0xff, 0xff, 0xff, 0x20, 0x00, 0x02, 0x00, 0x00, 0x00, 
0x00, 0x00, 0xe0, 0xff, 0xff, 0xff, 0x21, 0x00, 0x01, 0x00, 0x00, 0x00, 
0x00, 0x00, 0xc0, 0xff, 0xff, 0xff, 0x13, 0x80, 0x01, 0x0e, 0x00, 0x00, 
0x00, 0x00, 0xc0, 0xff, 0xff, 0xff, 0x0f, 0x80, 0x00, 0x04, 0x00, 0x00, 
0x00, 0x00, 0x80, 0xff, 0xff, 0xff, 0x0f, 0x40, 0x00, 0x12, 0x00, 0x00, 
0x00, 0x00, 0x00, 0xff, 0xff, 0xff, 0x1f, 0x40, 0x00, 0x12, 0x00, 0x00, 
0x00, 0x00, 0x00, 0xff, 0xff, 0xff, 0x3f, 0x20, 0x00, 0x03, 0x00, 0x00, 
0x00, 0x00, 0x00, 0xfe, 0xff, 0xff, 0x7f, 0x10, 0x00, 0x01, 0x00, 0x00, 
0x00, 0x00, 0x00, 0xfe, 0xff, 0xff, 0xff, 0x10, 0x80, 0x00, 0x00, 0x00, 
0x00, 0x00, 0x00, 0xfe, 0xff, 0xff, 0xff, 0x09, 0xc0, 0x00, 0x00, 0x00, 
0x00, 0x00, 0x00, 0xf8, 0xff, 0xff, 0xff, 0x07, 0x40, 0x00, 0x00, 0x00, 
0x00, 0x00, 0x00, 0xf8, 0xff, 0xff, 0xff, 0x07, 0x20, 0x00, 0x00, 0x00, 
0x00, 0x00, 0x00, 0xf0, 0xff, 0xff, 0xff, 0x0f, 0x20, 0x00, 0x00, 0x00, 
0x00, 0x00, 0x00, 0xe8, 0xff, 0xff, 0xff, 0x1f, 0x10, 0x00, 0x00, 0x00, 
0x00, 0x00, 0x00, 0xc8, 0xff, 0xff, 0xff, 0x3f, 0x08, 0x00, 0x00, 0x00, 
0x00, 0x00, 0x00, 0x87, 0xff, 0xff, 0xff, 0x7f, 0x08, 0x00, 0x00, 0x00, 
0x00, 0x00, 0xe0, 0x00, 0xff, 0xff, 0xff, 0xff, 0x04, 0x00, 0x00, 0x00, 
0x00, 0x00, 0x20, 0x00, 0xfc, 0xff, 0xff, 0xff, 0x03, 0x00, 0x00, 0x00, 
0x00, 0x00, 0x1c, 0x00, 0xfc, 0xff, 0xff, 0xff, 0x03, 0x00, 0x00, 0x00, 
0x00, 0x40, 0x04, 0x00, 0xf8, 0xff, 0xff, 0xff, 0x07, 0x00, 0x00, 0x00, 
0x00, 0x80, 0x03, 0x00, 0xf4, 0xff, 0xff, 0xff, 0x0f, 0x00, 0x00, 0x00, 
0x00, 0x50, 0x00, 0x00, 0xe4, 0xff, 0xff, 0xff, 0x1f, 0x00, 0x00, 0x00, 
0x00, 0x00, 0x00, 0x80, 0xc3, 0xff, 0xff, 0xff, 0x1f, 0x00, 0x00, 0x00, 
0x00, 0x80, 0x01, 0x70, 0x80, 0xff, 0xff, 0xff, 0x3f, 0x00, 0x00, 0x00, 
0x00, 0x00, 0x00, 0x10, 0x00, 0xfe, 0xff, 0xff, 0x7f, 0x00, 0x00, 0x00, 
0x00, 0x00, 0x00, 0x0e, 0x00, 0xfe, 0xff, 0xff, 0x7f, 0x00, 0x00, 0x00, 
0x00, 0x00, 0x20, 0x02, 0x00, 0xfc, 0xff, 0xff, 0x7f, 0x00, 0x00, 0x00, 
0x00, 0x00, 0xc0, 0x01, 0x00, 0xfa, 0xff, 0xff, 0x7f, 0x00, 0x00, 0x00, 
0x00, 0x00, 0x20, 0x00, 0x00, 0xf2, 0xff, 0xff, 0xff, 0x00, 0x00, 0x00, 
0x00, 0x00, 0x20, 0x00, 0xc0, 0xe1, 0xff, 0xff, 0xff, 0x00, 0x00, 0x00, 
0x00, 0x00, 0x00, 0x00, 0x38, 0xc0, 0xff, 0xff, 0xff, 0x00, 0x00, 0x00, 
0x00, 0x00, 0x00, 0x00, 0x08, 0x00, 0xff, 0xff, 0xff, 0x01, 0x00, 0x00, 
0x00, 0x00, 0x00, 0x00, 0x07, 0x00, 0xff, 0xff, 0xff, 0x01, 0x00, 0x00, 
0x00, 0x00, 0x00, 0x00, 0x01, 0x00, 0xfe, 0xff, 0xff, 0x01, 0x00, 0x00, 
0x00, 0x00, 0x00, 0xe0, 0x00, 0x00, 0xfd, 0xff, 0xff, 0x03, 0x00, 0x00, 
0x00, 0x00, 0x00, 0x10, 0x00, 0x00, 0xf9, 0xff, 0xff, 0x03, 0x00, 0x00, 
0x00, 0x00, 0x00, 0x06, 0x00, 0xe0, 0xe0, 0xff, 0xff, 0x03, 0x00, 0x00, 
0x00, 0x00, 0x00, 0x20, 0x00, 0x1c, 0x00, 0xff, 0xff, 0x07, 0x00, 0x00, 
0x00, 0x00, 0x00, 0x00, 0x00, 0x04, 0x00, 0xfe, 0xff, 0x07, 0x00, 0x00, 
0x00, 0x00, 0x00, 0x00, 0x80, 0x03, 0x00, 0xf8, 0xff, 0x07, 0x00, 0x00, 
0x00, 0x00, 0x00, 0x00, 0x80, 0x00, 0x00, 0x80, 0xff, 0x03, 0x00, 0x00, 
0x00, 0x00, 0x00, 0x00, 0x74, 0x00, 0x00, 0x00, 0xff, 0x01, 0x00, 0x00, 
0x00, 0x00, 0x00, 0x00, 0x0a, 0x00, 0x00, 0x00, 0xf8, 0x00, 0x00, 0x00, 
0x00, 0x00, 0x00, 0x00, 0x04, 0x00, 0x00, 0x00, 0x00, 0x00, 0x00, 0x00, 
0x00, 0x00, 0x00, 0x00, 0x00, 0x00, 0x00, 0x00, 0x00, 0x00, 0x00, 0x00, 
0x00, 0x00, 0x00, 0x00, 0x00, 0x00, 0x00, 0x00, 0x00, 0x00, 0x00, 0x00, 
0x00, 0x00, 0x00, 0x00, 0x00, 0x00, 0x00, 0x00, 0x00, 0x00, 0x00, 0x00, 
0x00, 0x00, 0x00, 0x00, 0x00, 0x00, 0x00, 0x00, 0x00, 0x00, 0x00, 0x00, 
0x00, 0x00, 0x00, 0x00, 0x00, 0x00, 0x00, 0x00, 0x00, 0x00, 0x00, 0x00, 
0x00, 0x00, 0x00, 0x00, 0x00, 0x00, 0x00, 0x00, 0x00, 0x00, 0x00, 0x00, 
0x00, 0x00, 0x00, 0x00, 0x00, 0x00, 0x00, 0x00, 0x00, 0x00, 0x00, 0x00, 
0x00, 0x00, 0x00, 0x00, 0x00, 0x00, 0x00, 0x00, 0x00, 0x00, 0x00, 0x00, 
0x00, 0x00, 0x00, 0x00, 0x00, 0x00, 0x00, 0x00, 0x00, 0x00, 0x00, 0x00, 
0x00, 0x00, 0x00, 0x00, 0x00, 0x00, 0x00, 0x00, 0x00, 0x00, 0x00, 0x00, 
0x00, 0x00, 0x00, 0x00, 0x00, 0x00, 0x00, 0x00, 0x00, 0x00, 0x00, 0x00, 
0x00, 0x00, 0x00, 0x00, 0x00, 0x00, 0x00, 0x00, 0x00, 0x00, 0x00, 0x00, 
0x00, 0x00, 0x00, 0x00, 0x00, 0x00, 0x00, 0x00, 0x00, 0x00, 0x00, 0x00, 
0x00, 0x00, 0x00, 0x00, 0x00, 0x00, 0x00, 0x00, 0x00, 0x00, 0x00, 0x00};