#define x_width 30
#define x_height 30
static char x_bits[] = {
0x00, 0x00, 0x00, 0x00, 0x00, 0x00, 0x00, 0x00, 0x00, 0x00, 0x00, 0x00, 
0x00, 0x00, 0x00, 0x00, 0x00, 0x00, 0x00, 0x00, 0x00, 0x00, 0x00, 0x00, 
0x00, 0x00, 0x00, 0x00, 0x00, 0x00, 0x00, 0x00, 0x00, 0x00, 0x00, 0x00, 
0x00, 0x00, 0x10, 0x00, 0x00, 0x00, 0x30, 0x00, 0x00, 0x07, 0x30, 0x00, 
0x00, 0x07, 0x30, 0x00, 0x00, 0xe7, 0x31, 0x00, 0x00, 0xf7, 0x33, 0x00, 
0x80, 0xf7, 0x33, 0x00, 0x80, 0xff, 0x33, 0x00, 0x80, 0xff, 0x33, 0x00, 
0x80, 0xff, 0x3f, 0x00, 0x80, 0xff, 0x3f, 0x00, 0x80, 0xff, 0x3f, 0x00, 
0x80, 0xff, 0x3f, 0x00, 0x00, 0xff, 0x3f, 0x00, 0x00, 0xff, 0x3f, 0x00, 
0x00, 0xff, 0x33, 0x00, 0x00, 0x1e, 0x30, 0x00, 0x00, 0x00, 0x30, 0x00, 
0x00, 0x00, 0x10, 0x00, 0x00, 0x00, 0x10, 0x00, 0x00, 0x00, 0x00, 0x00};