#define x_width 90
#define x_height 90
static char x_bits[] = {
0x00, 0x00, 0x00, 0x00, 0x00, 0x00, 0x00, 0x00, 0x00, 0x00, 0x00, 0x00, 
0x00, 0x00, 0x00, 0x00, 0x00, 0x00, 0x00, 0x00, 0x00, 0x00, 0x00, 0x00, 
0x00, 0x00, 0x00, 0x00, 0x00, 0x00, 0x00, 0x00, 0x00, 0x00, 0x00, 0x00, 
0x00, 0x00, 0x00, 0x00, 0x00, 0x00, 0x00, 0x00, 0x00, 0x00, 0x00, 0x00, 
0x00, 0x00, 0x00, 0x00, 0x00, 0x00, 0x00, 0x00, 0x00, 0x00, 0x00, 0x00, 
0x00, 0x00, 0x00, 0x00, 0x00, 0x00, 0x00, 0x00, 0x00, 0x00, 0x00, 0x00, 
0x00, 0x00, 0x00, 0x00, 0x00, 0x00, 0x00, 0x00, 0x00, 0x00, 0x00, 0x00, 
0x00, 0x00, 0x00, 0x00, 0x00, 0x00, 0x00, 0x00, 0x00, 0x00, 0x00, 0x00, 
0x00, 0x00, 0x00, 0x00, 0x00, 0x00, 0x00, 0x00, 0x00, 0x00, 0x00, 0x00, 
0x00, 0x00, 0x00, 0x00, 0x00, 0x00, 0x00, 0x00, 0x00, 0x00, 0x00, 0x00, 
0x00, 0x00, 0x00, 0x00, 0x00, 0x00, 0x00, 0x00, 0x00, 0x00, 0x00, 0x00, 
0x00, 0x00, 0x00, 0x00, 0x00, 0x00, 0x00, 0x00, 0x00, 0x00, 0x00, 0x00, 
0x00, 0x00, 0x00, 0x00, 0x00, 0x00, 0x00, 0x00, 0x00, 0x00, 0x00, 0x00, 
0x00, 0x00, 0x00, 0x00, 0x00, 0x00, 0x00, 0x00, 0x00, 0x00, 0x00, 0x00, 
0x00, 0x00, 0x00, 0x00, 0x01, 0x00, 0x00, 0x00, 0x00, 0x00, 0x00, 0x00, 
0x00, 0x00, 0x00, 0x00, 0x00, 0x00, 0x00, 0x00, 0x00, 0x00, 0x00, 0x00, 
0x00, 0x00, 0x00, 0x80, 0x0a, 0x00, 0x00, 0x00, 0x80, 0x00, 0x00, 0x00, 
0x00, 0x00, 0x00, 0x00, 0x05, 0x00, 0x00, 0x00, 0xe0, 0x01, 0x00, 0x00, 
0x00, 0x00, 0x00, 0x80, 0x1e, 0x00, 0x00, 0x00, 0xfe, 0x01, 0x00, 0x00, 
0x00, 0x00, 0x00, 0x00, 0x04, 0x00, 0x00, 0x80, 0xff, 0x00, 0x00, 0x00, 
0x00, 0x00, 0x00, 0x00, 0x14, 0x00, 0x00, 0xf0, 0xff, 0x00, 0x00, 0x00, 
0x00, 0x00, 0x00, 0x00, 0x0a, 0x00, 0x00, 0xfe, 0x7f, 0x00, 0x00, 0x00, 
0x00, 0x00, 0x00, 0x00, 0x10, 0x00, 0x00, 0xff, 0x7f, 0x00, 0x00, 0x00, 
0x00, 0x00, 0x00, 0x00, 0x10, 0x00, 0xc0, 0xff, 0x7f, 0x00, 0x00, 0x00, 
0x00, 0x00, 0x00, 0x00, 0x20, 0x00, 0xe0, 0xff, 0x7f, 0x00, 0x00, 0x00, 
0x00, 0x00, 0x00, 0x00, 0x40, 0x80, 0xf9, 0xff, 0x7f, 0x00, 0x00, 0x00, 
0x00, 0x00, 0x00, 0x00, 0x00, 0x40, 0xfd, 0xff, 0x3f, 0x00, 0x00, 0x00, 
0x00, 0x00, 0x00, 0x00, 0xc0, 0xf0, 0xff, 0xff, 0x3f, 0x00, 0x00, 0x00, 
0x00, 0x00, 0x00, 0x00, 0x00, 0xf1, 0xff, 0xff, 0x3f, 0x00, 0x00, 0x00, 
0x00, 0x00, 0x10, 0x01, 0x00, 0xd8, 0xff, 0xff, 0x3f, 0x00, 0x00, 0x00, 
0x00, 0x00, 0xe0, 0x00, 0x00, 0xfb, 0xff, 0xff, 0x1f, 0x00, 0x00, 0x00, 
0x00, 0x00, 0xc4, 0x00, 0x00, 0xf6, 0xff, 0xff, 0x1f, 0x00, 0x00, 0x00, 
0x00, 0x00, 0x00, 0x03, 0x00, 0xff, 0xff, 0xff, 0x0f, 0x00, 0x00, 0x00, 
0x00, 0x00, 0x00, 0x0a, 0x80, 0xfe, 0xff, 0xff, 0x07, 0x00, 0x00, 0x00, 
0x00, 0x00, 0x10, 0x50, 0xeb, 0xff, 0xff, 0xff, 0x07, 0x00, 0x00, 0x00, 
0x00, 0x00, 0x00, 0x20, 0xe0, 0xff, 0xff, 0xff, 0x03, 0x00, 0x00, 0x00, 
0x00, 0x00, 0x00, 0xc0, 0xb0, 0xff, 0xff, 0xff, 0x03, 0x00, 0x00, 0x00, 
0x00, 0x00, 0xc0, 0x08, 0xf1, 0xff, 0xff, 0xff, 0x01, 0x00, 0x00, 0x00, 
0x00, 0x00, 0x20, 0x00, 0xea, 0xff, 0xff, 0xff, 0x01, 0x00, 0x00, 0x00, 
0x00, 0x00, 0xc0, 0x00, 0xfe, 0xff, 0xff, 0xff, 0x00, 0x00, 0x00, 0x00, 
0x00, 0x00, 0xa0, 0x00, 0xfc, 0xff, 0xff, 0xff, 0x00, 0x00, 0x00, 0x00, 
0x00, 0x00, 0x40, 0xc3, 0xc1, 0xff, 0xff, 0xff, 0x00, 0x00, 0x00, 0x00, 
0x10, 0x00, 0x00, 0xc2, 0x9f, 0xff, 0xff, 0xff, 0x00, 0x00, 0x00, 0x00, 
0x80, 0x00, 0x80, 0x62, 0xbf, 0xff, 0xff, 0x7f, 0x00, 0x00, 0x00, 0x00, 
0x64, 0x00, 0x80, 0xec, 0xbf, 0xff, 0xff, 0x7f, 0x00, 0x00, 0x00, 0x00, 
0xc0, 0x02, 0x40, 0xd8, 0x3f, 0xfe, 0xff, 0x5f, 0x00, 0x00, 0x00, 0x00, 
0x80, 0x03, 0x00, 0xfc, 0xff, 0xfd, 0xff, 0x07, 0x00, 0x00, 0x00, 0x00, 
0x00, 0x0c, 0x00, 0xfa, 0xff, 0xfb, 0xff, 0x03, 0x00, 0x00, 0x00, 0x00, 
0x00, 0x70, 0x80, 0xff, 0xff, 0xf3, 0xff, 0x05, 0x00, 0x00, 0x00, 0x00, 
0x00, 0x80, 0x81, 0xff, 0xff, 0xe7, 0xff, 0x39, 0x00, 0x00, 0x00, 0x00, 
0x00, 0x00, 0xc2, 0xfe, 0xff, 0xc7, 0xff, 0x40, 0x00, 0x00, 0x00, 0x00, 
0x00, 0x00, 0xd8, 0xff, 0xff, 0x9f, 0xff, 0x80, 0x00, 0x00, 0x00, 0x00, 
0x00, 0x00, 0xb0, 0xff, 0xff, 0x1f, 0xbf, 0x80, 0x02, 0x00, 0x00, 0x00, 
0x00, 0x00, 0xf0, 0xff, 0xff, 0xff, 0x1e, 0x00, 0x04, 0x00, 0x00, 0x00, 
0x00, 0x00, 0xf0, 0xff, 0xff, 0x7f, 0x86, 0x00, 0x48, 0x00, 0x00, 0x00, 
0x00, 0x00, 0xf0, 0xff, 0xff, 0xff, 0x09, 0x00, 0x30, 0x00, 0x00, 0x00, 
0x00, 0x00, 0xfc, 0xff, 0xff, 0xff, 0x31, 0x00, 0x60, 0x02, 0x00, 0x00, 
0x00, 0x00, 0xfc, 0xff, 0xff, 0xff, 0x01, 0x01, 0xc0, 0x04, 0x00, 0x00, 
0x00, 0x00, 0xfe, 0xff, 0xff, 0xff, 0x21, 0x00, 0x00, 0x01, 0x00, 0x00, 
0x00, 0x00, 0xfe, 0xff, 0xff, 0x7f, 0xc1, 0x00, 0x20, 0x00, 0x00, 0x00, 
0x00, 0x00, 0xff, 0xff, 0xff, 0x3f, 0x00, 0x00, 0x00, 0x00, 0x00, 0x00, 
0x00, 0x00, 0xff, 0xff, 0xff, 0x0f, 0xa0, 0x00, 0x00, 0x00, 0x00, 0x00, 
0x00, 0x80, 0xff, 0xff, 0xff, 0x17, 0x10, 0x01, 0x00, 0x00, 0x00, 0x00, 
0x00, 0x80, 0xff, 0xff, 0xff, 0xe7, 0x00, 0x00, 0x00, 0x00, 0x00, 0x00, 
0x00, 0xc0, 0xff, 0xff, 0xff, 0x43, 0x00, 0x01, 0x00, 0x00, 0x00, 0x00, 
0x00, 0xc0, 0xff, 0xff, 0xff, 0x83, 0x01, 0x26, 0x00, 0x00, 0x00, 0x00, 
0x00, 0xc0, 0xff, 0xff, 0xff, 0x02, 0x01, 0x24, 0x00, 0x00, 0x00, 0x00, 
0x00, 0xc0, 0xff, 0xff, 0x7f, 0x00, 0x26, 0x1c, 0x00, 0x00, 0x00, 0x00, 
0x00, 0xc0, 0xff, 0xff, 0x1f, 0x00, 0x04, 0x18, 0x00, 0x00, 0x00, 0x00, 
0x00, 0x80, 0xff, 0xff, 0x2f, 0x00, 0x2a, 0x04, 0x00, 0x00, 0x00, 0x00, 
0x00, 0x00, 0xff, 0xff, 0x43, 0x00, 0x00, 0x00, 0x00, 0x00, 0x00, 0x00, 
0x00, 0x00, 0xff, 0xff, 0x41, 0x00, 0x10, 0x04, 0x00, 0x00, 0x00, 0x00, 
0x00, 0x00, 0xfe, 0x7f, 0x80, 0x00, 0x04, 0x00, 0x00, 0x00, 0x00, 0x00, 
0x00, 0x00, 0xfc, 0x1f, 0x00, 0x00, 0x00, 0x00, 0x00, 0x00, 0x00, 0x00, 
0x00, 0x00, 0xf8, 0x07, 0x00, 0x01, 0x00, 0x00, 0x00, 0x00, 0x00, 0x00, 
0x00, 0x00, 0x00, 0x00, 0x00, 0x02, 0x00, 0x00, 0x00, 0x00, 0x00, 0x00, 
0x00, 0x00, 0x00, 0x00, 0x00, 0x02, 0x00, 0x00, 0x00, 0x00, 0x00, 0x00, 
0x00, 0x00, 0x00, 0x00, 0x00, 0x04, 0x00, 0x00, 0x00, 0x00, 0x00, 0x00, 
0x00, 0x00, 0x00, 0x00, 0x00, 0x00, 0x00, 0x00, 0x00, 0x00, 0x00, 0x00, 
0x00, 0x00, 0x00, 0x00, 0x00, 0x14, 0x00, 0x00, 0x00, 0x00, 0x00, 0x00, 
0x00, 0x00, 0x00, 0x00, 0x00, 0x08, 0x00, 0x00, 0x00, 0x00, 0x00, 0x00, 
0x00, 0x00, 0x00, 0x00, 0x00, 0x38, 0x00, 0x00, 0x00, 0x00, 0x00, 0x00, 
0x00, 0x00, 0x00, 0x00, 0x00, 0x30, 0x02, 0x00, 0x00, 0x00, 0x00, 0x00, 
0x00, 0x00, 0x00, 0x00, 0x00, 0x24, 0x00, 0x00, 0x00, 0x00, 0x00, 0x00, 
0x00, 0x00, 0x00, 0x00, 0x00, 0x04, 0x04, 0x00, 0x00, 0x00, 0x00, 0x00, 
0x00, 0x00, 0x00, 0x00, 0x00, 0x10, 0x00, 0x00, 0x00, 0x00, 0x00, 0x00, 
0x00, 0x00, 0x00, 0x00, 0x00, 0x00, 0x00, 0x00, 0x00, 0x00, 0x00, 0x00, 
0x00, 0x00, 0x00, 0x00, 0x00, 0x20, 0x00, 0x00, 0x00, 0x00, 0x00, 0x00, 
0x00, 0x00, 0x00, 0x00, 0x00, 0x00, 0x00, 0x00, 0x00, 0x00, 0x00, 0x00, 
0x00, 0x00, 0x00, 0x00, 0x00, 0x00, 0x00, 0x00, 0x00, 0x00, 0x00, 0x00};