#define x_width 90
#define x_height 90
static char x_bits[] = {
0x00, 0x00, 0x00, 0x00, 0x00, 0x00, 0x00, 0x00, 0x00, 0x00, 0x00, 0x00, 
0x00, 0x00, 0x00, 0x00, 0x00, 0x00, 0x00, 0x00, 0x00, 0x00, 0x00, 0x00, 
0x00, 0x00, 0x00, 0x00, 0x00, 0x00, 0x00, 0x00, 0x00, 0x00, 0x00, 0x00, 
0x00, 0x00, 0x00, 0x00, 0x00, 0x00, 0x00, 0x00, 0x00, 0x00, 0x00, 0x00, 
0x00, 0x00, 0x00, 0x00, 0x00, 0x00, 0x00, 0x00, 0x00, 0x00, 0x00, 0x00, 
0x00, 0x00, 0x00, 0x00, 0x00, 0x00, 0x00, 0x00, 0x00, 0x00, 0x00, 0x00, 
0x00, 0x00, 0x00, 0x00, 0x00, 0x00, 0x00, 0x00, 0x00, 0x00, 0x00, 0x00, 
0x00, 0x00, 0x00, 0x00, 0x00, 0x00, 0x00, 0x00, 0x00, 0x00, 0x00, 0x00, 
0x00, 0x00, 0x00, 0x00, 0x00, 0x00, 0x00, 0x00, 0x00, 0x00, 0x00, 0x00, 
0x00, 0x00, 0x00, 0x00, 0x00, 0x00, 0x00, 0x00, 0x00, 0x00, 0x00, 0x00, 
0x00, 0x00, 0x00, 0x00, 0x00, 0x00, 0x00, 0x00, 0x00, 0x00, 0x00, 0x00, 
0x00, 0x00, 0x00, 0x00, 0x00, 0x00, 0x00, 0x00, 0x00, 0x00, 0x00, 0x00, 
0x00, 0x00, 0x00, 0x00, 0x00, 0x00, 0x00, 0x00, 0x00, 0x00, 0x00, 0x00, 
0x00, 0x20, 0x00, 0x00, 0x20, 0x00, 0x00, 0x00, 0x00, 0x00, 0x00, 0x00, 
0x00, 0x60, 0x00, 0x00, 0x20, 0x00, 0x00, 0x00, 0x00, 0x00, 0x00, 0x00, 
0x00, 0x60, 0x00, 0x00, 0x60, 0x00, 0x00, 0x00, 0x00, 0x00, 0x00, 0x00, 
0x00, 0x60, 0x00, 0x00, 0x60, 0x00, 0x00, 0x00, 0x00, 0x00, 0x00, 0x00, 
0x00, 0xc0, 0x00, 0x00, 0x60, 0x00, 0x00, 0x00, 0x00, 0x00, 0x00, 0x00, 
0x00, 0x80, 0x00, 0x80, 0x4a, 0x00, 0x00, 0x00, 0x00, 0x00, 0x00, 0x00, 
0x00, 0x00, 0x00, 0x50, 0x40, 0x00, 0x40, 0x00, 0x00, 0x00, 0x00, 0x00, 
0x00, 0x00, 0x00, 0x0a, 0x40, 0x01, 0x80, 0x00, 0x00, 0x00, 0x00, 0x00, 
0x00, 0x00, 0x00, 0xc1, 0x01, 0x04, 0x40, 0x00, 0x00, 0x00, 0x00, 0x00, 
0x00, 0x00, 0x00, 0xa0, 0x02, 0x08, 0xc0, 0x00, 0x00, 0x00, 0x00, 0x00, 
0x00, 0x00, 0xd0, 0x80, 0x80, 0x30, 0x40, 0x00, 0x00, 0x00, 0x00, 0x00, 
0x00, 0x00, 0x00, 0xa0, 0x80, 0x80, 0x40, 0x00, 0x00, 0x00, 0x00, 0x00, 
0x00, 0x00, 0x20, 0x80, 0x80, 0x20, 0x20, 0x00, 0x00, 0x00, 0x00, 0x00, 
0x00, 0x00, 0x14, 0x80, 0x80, 0xa0, 0x20, 0x00, 0x00, 0x00, 0x00, 0x00, 
0x00, 0x00, 0x04, 0x40, 0x00, 0x01, 0x20, 0x00, 0x00, 0x00, 0x00, 0x00, 
0x00, 0x00, 0x04, 0x40, 0x00, 0x21, 0x2c, 0x00, 0x00, 0x00, 0x00, 0x00, 
0x00, 0x00, 0x09, 0x40, 0x00, 0x01, 0x90, 0x00, 0x00, 0x00, 0x00, 0x00, 
0x00, 0x00, 0x08, 0x43, 0x12, 0xc1, 0x10, 0x06, 0x00, 0x00, 0x00, 0x00, 
0x00, 0x00, 0xe8, 0x5f, 0xa8, 0xf9, 0xd7, 0x3f, 0x00, 0x00, 0x00, 0x00, 
0x00, 0x00, 0xfe, 0xff, 0x80, 0xff, 0xff, 0x7f, 0x00, 0x00, 0x00, 0x00, 
0x00, 0xf0, 0xff, 0xff, 0x08, 0xff, 0xff, 0xff, 0x00, 0x00, 0x00, 0x00, 
0x00, 0xfe, 0xff, 0xff, 0x26, 0xff, 0xff, 0xff, 0x0f, 0x00, 0x00, 0x00, 
0xc0, 0xff, 0xff, 0xff, 0x08, 0xfe, 0xff, 0xff, 0xff, 0x01, 0x00, 0x00, 
0xe0, 0xff, 0xff, 0x7f, 0xa8, 0xfc, 0xff, 0xff, 0xff, 0x03, 0x00, 0x00, 
0xf0, 0xff, 0xff, 0x7f, 0x84, 0xfc, 0xff, 0xff, 0xff, 0x0f, 0x00, 0x00, 
0xf8, 0xff, 0xff, 0x7f, 0x04, 0xfe, 0xff, 0xff, 0xff, 0x3f, 0x00, 0x00, 
0xfc, 0xff, 0xff, 0x3f, 0x61, 0xff, 0xff, 0xff, 0xff, 0xff, 0x00, 0x00, 
0xfc, 0xff, 0xff, 0x3f, 0x04, 0xff, 0xff, 0xff, 0xff, 0xff, 0x03, 0x00, 
0xfc, 0xff, 0xff, 0x3f, 0x30, 0xfe, 0xff, 0xff, 0xff, 0xff, 0x1f, 0x00, 
0xfe, 0xff, 0xff, 0x1f, 0x91, 0xfe, 0xff, 0xff, 0xff, 0xff, 0x3f, 0x00, 
0xfe, 0xff, 0xff, 0x1f, 0x80, 0xfe, 0xff, 0xff, 0xff, 0xff, 0xff, 0x00, 
0xfe, 0xff, 0xff, 0x1f, 0x88, 0xfe, 0xff, 0xff, 0xff, 0xff, 0xff, 0x00, 
0xfe, 0xff, 0xff, 0xbf, 0x28, 0xfe, 0xff, 0xff, 0xff, 0xff, 0xff, 0x00, 
0xfe, 0xff, 0xff, 0x3f, 0x00, 0xfe, 0xff, 0xff, 0xff, 0xff, 0x1f, 0x00, 
0xfc, 0xff, 0xff, 0x3f, 0x00, 0xfe, 0xff, 0xff, 0xff, 0xff, 0x07, 0x00, 
0xfc, 0xff, 0xff, 0x3f, 0x01, 0xfe, 0xff, 0xff, 0xff, 0xff, 0x03, 0x00, 
0xfc, 0xff, 0xff, 0xbf, 0x28, 0xfe, 0xff, 0xff, 0xff, 0xff, 0x00, 0x00, 
0xf8, 0xff, 0xff, 0x7f, 0x00, 0xfe, 0xff, 0xff, 0xff, 0x3f, 0x00, 0x00, 
0xf0, 0xff, 0xff, 0x3f, 0x04, 0xfe, 0xff, 0xff, 0xff, 0x0f, 0x00, 0x00, 
0xe0, 0xff, 0xff, 0x3f, 0x84, 0xfe, 0xff, 0xff, 0xff, 0x01, 0x00, 0x00, 
0xc0, 0xff, 0xff, 0x7f, 0x95, 0xfe, 0xff, 0xff, 0x3f, 0x00, 0x00, 0x00, 
0x00, 0xff, 0xff, 0xff, 0x00, 0xfe, 0xff, 0xff, 0x03, 0x00, 0x00, 0x00, 
0x00, 0xf0, 0xff, 0xff, 0x11, 0xff, 0xff, 0x3f, 0x00, 0x00, 0x00, 0x00, 
0x00, 0x00, 0xfe, 0xff, 0x10, 0xff, 0xff, 0x7f, 0x00, 0x00, 0x00, 0x00, 
0x00, 0x00, 0xe8, 0x5f, 0x82, 0xfa, 0x97, 0x3f, 0x00, 0x00, 0x00, 0x00, 
0x00, 0x00, 0x08, 0x43, 0x08, 0xc2, 0x10, 0x06, 0x00, 0x00, 0x00, 0x00, 
0x00, 0x20, 0x08, 0x40, 0xe4, 0x02, 0x10, 0x00, 0x00, 0x00, 0x00, 0x00, 
0x00, 0x00, 0x04, 0xc0, 0x00, 0x0a, 0x12, 0x00, 0x00, 0x00, 0x00, 0x00, 
0x00, 0x20, 0x00, 0x44, 0x14, 0x01, 0x22, 0x00, 0x00, 0x00, 0x00, 0x00, 
0x00, 0x00, 0x00, 0xc0, 0x00, 0x01, 0x01, 0x00, 0x00, 0x00, 0x00, 0x00, 
0x00, 0x20, 0x00, 0x40, 0x00, 0x01, 0x00, 0x00, 0x00, 0x00, 0x00, 0x00, 
0x00, 0x00, 0x00, 0x40, 0x00, 0x40, 0x00, 0x00, 0x00, 0x00, 0x00, 0x00, 
0x00, 0x40, 0x00, 0x40, 0x00, 0x00, 0x00, 0x00, 0x00, 0x00, 0x00, 0x00, 
0x00, 0x00, 0x00, 0xc0, 0x80, 0x20, 0x00, 0x00, 0x00, 0x00, 0x00, 0x00, 
0x00, 0x00, 0x00, 0x50, 0x80, 0x20, 0x00, 0x00, 0x00, 0x00, 0x00, 0x00, 
0x00, 0x00, 0x03, 0x50, 0x82, 0x10, 0x00, 0x00, 0x00, 0x00, 0x00, 0x00, 
0x00, 0x80, 0x00, 0x40, 0x42, 0x00, 0x00, 0x00, 0x00, 0x00, 0x00, 0x00, 
0x00, 0x80, 0x00, 0x88, 0x40, 0x08, 0x00, 0x00, 0x00, 0x00, 0x00, 0x00, 
0x00, 0x80, 0x04, 0x20, 0x40, 0x00, 0x00, 0x00, 0x00, 0x00, 0x00, 0x00, 
0x00, 0xc0, 0x00, 0x00, 0x60, 0x04, 0x00, 0x00, 0x00, 0x00, 0x00, 0x00, 
0x00, 0xc0, 0x10, 0x00, 0x60, 0x00, 0x00, 0x00, 0x00, 0x00, 0x00, 0x00, 
0x00, 0xc0, 0x10, 0x00, 0x60, 0x00, 0x00, 0x00, 0x00, 0x00, 0x00, 0x00, 
0x00, 0xc0, 0x00, 0x10, 0x60, 0x01, 0x00, 0x00, 0x00, 0x00, 0x00, 0x00, 
0x00, 0x00, 0x40, 0x00, 0x8d, 0x00, 0x00, 0x00, 0x00, 0x00, 0x00, 0x00, 
0x00, 0x00, 0x80, 0x00, 0x20, 0x00, 0x00, 0x00, 0x00, 0x00, 0x00, 0x00, 
0x00, 0x00, 0x00, 0x84, 0x04, 0x00, 0x00, 0x00, 0x00, 0x00, 0x00, 0x00, 
0x00, 0x00, 0x00, 0x00, 0x00, 0x00, 0x00, 0x00, 0x00, 0x00, 0x00, 0x00, 
0x00, 0x00, 0x00, 0x00, 0x00, 0x00, 0x00, 0x00, 0x00, 0x00, 0x00, 0x00, 
0x00, 0x00, 0x00, 0x00, 0x00, 0x00, 0x00, 0x00, 0x00, 0x00, 0x00, 0x00, 
0x00, 0x00, 0x00, 0x00, 0x00, 0x00, 0x00, 0x00, 0x00, 0x00, 0x00, 0x00, 
0x00, 0x00, 0x00, 0x00, 0x00, 0x00, 0x00, 0x00, 0x00, 0x00, 0x00, 0x00, 
0x00, 0x00, 0x00, 0x00, 0x00, 0x00, 0x00, 0x00, 0x00, 0x00, 0x00, 0x00, 
0x00, 0x00, 0x00, 0x00, 0x00, 0x00, 0x00, 0x00, 0x00, 0x00, 0x00, 0x00, 
0x00, 0x00, 0x00, 0x00, 0x00, 0x00, 0x00, 0x00, 0x00, 0x00, 0x00, 0x00, 
0x00, 0x00, 0x00, 0x00, 0x00, 0x00, 0x00, 0x00, 0x00, 0x00, 0x00, 0x00, 
0x00, 0x00, 0x00, 0x00, 0x00, 0x00, 0x00, 0x00, 0x00, 0x00, 0x00, 0x00, 
0x00, 0x00, 0x00, 0x00, 0x00, 0x00, 0x00, 0x00, 0x00, 0x00, 0x00, 0x00};