#define x_width 90
#define x_height 90
static char x_bits[] = {
0x00, 0x00, 0x00, 0x00, 0x00, 0x00, 0x00, 0x00, 0x00, 0x00, 0x00, 0x00, 
0x00, 0x00, 0x00, 0x00, 0x00, 0x00, 0x00, 0x00, 0x00, 0x00, 0x00, 0x00, 
0x00, 0x00, 0x00, 0x00, 0x00, 0x00, 0x00, 0x00, 0x00, 0x00, 0x00, 0x00, 
0x00, 0x00, 0x00, 0x00, 0x00, 0x00, 0x00, 0x00, 0x00, 0x00, 0x00, 0x00, 
0x00, 0x00, 0x00, 0x00, 0x00, 0x00, 0x00, 0x00, 0x00, 0x00, 0x00, 0x00, 
0x00, 0x00, 0x00, 0x00, 0x00, 0x00, 0x00, 0x00, 0x00, 0x00, 0x00, 0x00, 
0x00, 0x00, 0x00, 0x00, 0x00, 0x00, 0x00, 0x00, 0x00, 0x00, 0x00, 0x00, 
0x00, 0x00, 0x00, 0x00, 0x00, 0x00, 0x00, 0x00, 0x00, 0x00, 0x00, 0x00, 
0x00, 0x00, 0x00, 0x00, 0x00, 0x00, 0x00, 0x00, 0x00, 0x00, 0x00, 0x00, 
0x00, 0x00, 0x00, 0x00, 0x00, 0x00, 0x00, 0x00, 0x00, 0x00, 0x00, 0x00, 
0x00, 0x00, 0x00, 0x00, 0x00, 0x00, 0x00, 0x00, 0x00, 0x00, 0x00, 0x00, 
0x00, 0x00, 0x00, 0x00, 0x00, 0x00, 0x00, 0x00, 0x00, 0x00, 0x00, 0x00, 
0x00, 0x00, 0x00, 0x00, 0x00, 0x00, 0x00, 0x00, 0x00, 0x00, 0x00, 0x00, 
0x00, 0x00, 0x00, 0x00, 0x00, 0x00, 0x00, 0x00, 0x00, 0x00, 0x00, 0x00, 
0x00, 0x00, 0x00, 0x00, 0x00, 0x00, 0x00, 0x00, 0x00, 0x00, 0x00, 0x00, 
0x00, 0x00, 0x00, 0x00, 0x00, 0x00, 0x00, 0x00, 0x00, 0x00, 0x00, 0x00, 
0x00, 0x00, 0x00, 0x00, 0x00, 0x00, 0x00, 0x00, 0x80, 0x00, 0x00, 0x00, 
0x00, 0x00, 0x00, 0x00, 0x00, 0x00, 0x00, 0x00, 0xf8, 0x01, 0x00, 0x00, 
0x00, 0x00, 0x00, 0x00, 0x00, 0x00, 0x00, 0x00, 0xff, 0x01, 0x00, 0x00, 
0x00, 0x00, 0x00, 0x00, 0x00, 0x00, 0x00, 0xc0, 0xff, 0x00, 0x00, 0x00, 
0x00, 0x00, 0x00, 0x40, 0x00, 0x00, 0x00, 0xfe, 0xff, 0x00, 0x00, 0x00, 
0x00, 0x00, 0x00, 0x00, 0x02, 0x00, 0x80, 0xff, 0x7f, 0x00, 0x00, 0x00, 
0x00, 0x00, 0x00, 0x42, 0x19, 0x00, 0x80, 0xff, 0x7b, 0x00, 0x00, 0x00, 
0x00, 0x00, 0x00, 0x0c, 0x80, 0x01, 0xe0, 0xff, 0x7f, 0x00, 0x00, 0x00, 
0x00, 0x00, 0x00, 0x01, 0x00, 0x02, 0xf8, 0xff, 0x7f, 0x00, 0x00, 0x00, 
0x00, 0x00, 0x40, 0x0a, 0x08, 0x84, 0xff, 0xff, 0x7f, 0x00, 0x00, 0x00, 
0x00, 0x00, 0x20, 0x00, 0x00, 0x44, 0xff, 0xff, 0x3f, 0x00, 0x00, 0x00, 
0x00, 0x00, 0x4c, 0x01, 0x80, 0xf2, 0xff, 0xff, 0x3f, 0x00, 0x00, 0x00, 
0x00, 0x00, 0x80, 0x00, 0x40, 0xf1, 0xff, 0xff, 0x3f, 0x00, 0x00, 0x00, 
0x00, 0x00, 0x11, 0x00, 0x00, 0xd8, 0xff, 0xff, 0x3f, 0x00, 0x00, 0x00, 
0x00, 0x80, 0xe0, 0x00, 0x00, 0xfb, 0xff, 0xff, 0x1f, 0x00, 0x00, 0x00, 
0x00, 0x20, 0xc0, 0x00, 0x00, 0xf6, 0xff, 0xff, 0x0f, 0x00, 0x00, 0x00, 
0x00, 0x00, 0x00, 0x03, 0x00, 0xff, 0xff, 0xff, 0x0f, 0x00, 0x00, 0x00, 
0x00, 0x00, 0x20, 0x12, 0x80, 0xfe, 0xff, 0xff, 0x07, 0x00, 0x00, 0x00, 
0x00, 0x20, 0x01, 0x50, 0xc0, 0xff, 0xff, 0xff, 0x07, 0x00, 0x00, 0x00, 
0x00, 0x08, 0x00, 0x20, 0x88, 0xff, 0xff, 0xff, 0x03, 0x00, 0x00, 0x00, 
0x00, 0x00, 0x00, 0xc0, 0x01, 0xf5, 0xff, 0xff, 0x01, 0x00, 0x00, 0x00, 
0x00, 0x08, 0x00, 0x10, 0x00, 0xc0, 0xff, 0xff, 0x01, 0x00, 0x00, 0x00, 
0x00, 0x00, 0x00, 0x00, 0x44, 0x00, 0xfe, 0xff, 0x00, 0x00, 0x00, 0x00, 
0x00, 0x40, 0x00, 0x00, 0x04, 0x00, 0xfc, 0x7f, 0x00, 0x00, 0x00, 0x00, 
0x00, 0x08, 0x01, 0x14, 0x00, 0x06, 0xfc, 0x7f, 0x00, 0x00, 0x00, 0x00, 
0x00, 0x08, 0x01, 0x04, 0x00, 0x00, 0xf8, 0xff, 0x00, 0x00, 0x00, 0x00, 
0x40, 0x01, 0x00, 0x00, 0x02, 0x40, 0xf0, 0xff, 0x00, 0x00, 0x00, 0x00, 
0x40, 0x02, 0x00, 0x00, 0x00, 0x00, 0xf0, 0x7f, 0x00, 0x00, 0x00, 0x00, 
0x60, 0x00, 0x00, 0x24, 0x02, 0x00, 0xe0, 0x7f, 0x02, 0x01, 0x00, 0x00, 
0xc0, 0x08, 0x00, 0x04, 0x00, 0x40, 0xe0, 0x5f, 0x08, 0x00, 0x00, 0x00, 
0x90, 0x03, 0x00, 0x06, 0x00, 0x00, 0xf8, 0x07, 0x08, 0x00, 0x00, 0x00, 
0x00, 0x00, 0x00, 0x00, 0x00, 0x80, 0xf1, 0x03, 0x00, 0x00, 0x00, 0x00, 
0x80, 0x00, 0x00, 0x00, 0x00, 0x00, 0xf1, 0x05, 0x08, 0x00, 0x00, 0x00, 
0x00, 0x04, 0x00, 0x00, 0x10, 0x00, 0xe4, 0x09, 0x10, 0x04, 0x00, 0x00, 
0x00, 0x00, 0x40, 0x00, 0x80, 0x00, 0xc0, 0x80, 0x00, 0x00, 0x00, 0x00, 
0x00, 0x00, 0x80, 0x10, 0x40, 0x00, 0x85, 0x00, 0x00, 0x00, 0x00, 0x00, 
0x00, 0x08, 0x00, 0x00, 0x00, 0x00, 0x00, 0x00, 0x0c, 0x00, 0x00, 0x00, 
0x00, 0x40, 0x00, 0x02, 0x00, 0x00, 0x00, 0x00, 0x00, 0x00, 0x00, 0x00, 
0x00, 0x10, 0x90, 0x00, 0x00, 0x00, 0x02, 0x00, 0x08, 0x02, 0x00, 0x00, 
0x00, 0x80, 0x30, 0x00, 0x08, 0x00, 0x00, 0x00, 0x00, 0x00, 0x00, 0x00, 
0x00, 0x00, 0x7c, 0x00, 0x00, 0x80, 0x00, 0x00, 0x0c, 0x00, 0x00, 0x00, 
0x00, 0x00, 0x3c, 0x00, 0x00, 0x80, 0x20, 0x00, 0x00, 0x00, 0x00, 0x00, 
0x00, 0x00, 0x3e, 0x02, 0x00, 0x20, 0x02, 0x00, 0x00, 0x00, 0x00, 0x00, 
0x00, 0x00, 0x7e, 0x00, 0x00, 0x00, 0x06, 0x40, 0x02, 0x00, 0x00, 0x00, 
0x00, 0x00, 0x7f, 0x00, 0x41, 0x00, 0x00, 0x00, 0x02, 0x00, 0x00, 0x00, 
0x00, 0x00, 0xff, 0x00, 0x00, 0x02, 0x00, 0x00, 0x00, 0x00, 0x00, 0x00, 
0x00, 0x80, 0xff, 0x00, 0x00, 0x06, 0x00, 0x00, 0x20, 0x00, 0x00, 0x00, 
0x00, 0x80, 0xff, 0x01, 0x11, 0x00, 0x00, 0x00, 0x01, 0x00, 0x00, 0x00, 
0x00, 0xc0, 0xff, 0x03, 0x10, 0x00, 0x00, 0x00, 0x00, 0x00, 0x00, 0x00, 
0x00, 0xc0, 0xff, 0x0f, 0x04, 0x00, 0x00, 0x04, 0x00, 0x00, 0x00, 0x00, 
0x00, 0xc0, 0xff, 0x7f, 0x00, 0x00, 0x01, 0x00, 0x00, 0x00, 0x00, 0x00, 
0x00, 0xc0, 0xff, 0xff, 0x03, 0x00, 0x26, 0x00, 0x00, 0x00, 0x00, 0x00, 
0x00, 0xc0, 0xff, 0xff, 0x07, 0x00, 0x04, 0x10, 0x00, 0x00, 0x00, 0x00, 
0x00, 0x80, 0xff, 0xff, 0x0f, 0x00, 0x2a, 0x08, 0x00, 0x00, 0x00, 0x00, 
0x00, 0x00, 0xff, 0xff, 0x0f, 0x00, 0x00, 0x00, 0x00, 0x00, 0x00, 0x00, 
0x00, 0x00, 0xff, 0xff, 0x07, 0x00, 0x90, 0x20, 0x00, 0x00, 0x00, 0x00, 
0x00, 0x00, 0xfe, 0xff, 0x01, 0x00, 0x04, 0x00, 0x00, 0x00, 0x00, 0x00, 
0x00, 0x00, 0xfe, 0x7f, 0x00, 0x00, 0x00, 0x00, 0x00, 0x00, 0x00, 0x00, 
0x00, 0x00, 0xfc, 0x3f, 0x84, 0x00, 0x40, 0x00, 0x00, 0x00, 0x00, 0x00, 
0x00, 0x00, 0xf0, 0x03, 0x00, 0x00, 0x00, 0x00, 0x00, 0x00, 0x00, 0x00, 
0x00, 0x00, 0x00, 0x00, 0xa0, 0x01, 0x05, 0x02, 0x00, 0x00, 0x00, 0x00, 
0x00, 0x00, 0x00, 0x00, 0x00, 0x0c, 0x00, 0x00, 0x00, 0x00, 0x00, 0x00, 
0x00, 0x00, 0x00, 0x00, 0x20, 0x00, 0x00, 0x00, 0x00, 0x00, 0x00, 0x00, 
0x00, 0x00, 0x00, 0x00, 0x00, 0x46, 0x00, 0x00, 0x00, 0x00, 0x00, 0x00, 
0x00, 0x00, 0x00, 0x00, 0x00, 0x88, 0x00, 0x00, 0x00, 0x00, 0x00, 0x00, 
0x00, 0x00, 0x00, 0x00, 0x00, 0x18, 0x00, 0x00, 0x00, 0x00, 0x00, 0x00, 
0x00, 0x00, 0x00, 0x00, 0x00, 0x30, 0x00, 0x00, 0x00, 0x00, 0x00, 0x00, 
0x00, 0x00, 0x00, 0x00, 0x00, 0x20, 0x00, 0x00, 0x00, 0x00, 0x00, 0x00, 
0x00, 0x00, 0x00, 0x00, 0x00, 0x04, 0x00, 0x00, 0x00, 0x00, 0x00, 0x00, 
0x00, 0x00, 0x00, 0x00, 0x00, 0x00, 0x00, 0x00, 0x00, 0x00, 0x00, 0x00, 
0x00, 0x00, 0x00, 0x00, 0x00, 0x50, 0x00, 0x00, 0x00, 0x00, 0x00, 0x00, 
0x00, 0x00, 0x00, 0x00, 0x00, 0x00, 0x00, 0x00, 0x00, 0x00, 0x00, 0x00, 
0x00, 0x00, 0x00, 0x00, 0x00, 0x00, 0x00, 0x00, 0x00, 0x00, 0x00, 0x00, 
0x00, 0x00, 0x00, 0x00, 0x00, 0x00, 0x00, 0x00, 0x00, 0x00, 0x00, 0x00};