#define x_width 90
#define x_height 90
static char x_bits[] = {
0x00, 0x00, 0x00, 0x00, 0x00, 0x20, 0x00, 0x00, 0x00, 0x00, 0x00, 0x00, 
0x00, 0x00, 0x00, 0x00, 0x00, 0x00, 0x00, 0x00, 0x00, 0x00, 0x00, 0x00, 
0x00, 0x00, 0x00, 0x00, 0x00, 0xbc, 0x00, 0x00, 0x00, 0x00, 0x00, 0x00, 
0x00, 0x00, 0x00, 0x00, 0x00, 0x38, 0x00, 0x00, 0x00, 0x00, 0x00, 0x00, 
0x00, 0x00, 0x00, 0x00, 0x00, 0xbc, 0x00, 0x00, 0x00, 0x00, 0x00, 0x00, 
0x00, 0x00, 0x00, 0x00, 0x00, 0x7d, 0x00, 0x00, 0x00, 0x00, 0x00, 0x00, 
0x00, 0x00, 0x00, 0x00, 0x00, 0x7c, 0x01, 0x00, 0x00, 0x00, 0x00, 0x00, 
0x00, 0x00, 0x00, 0x00, 0x00, 0xfe, 0x00, 0x00, 0x00, 0x00, 0x00, 0x00, 
0x00, 0x00, 0x00, 0x00, 0x00, 0xff, 0x05, 0x00, 0x00, 0x00, 0x00, 0x00, 
0x00, 0x00, 0x00, 0x00, 0x40, 0xff, 0x01, 0x00, 0x00, 0x00, 0x00, 0x00, 
0x00, 0x00, 0x00, 0x00, 0x80, 0xff, 0x0b, 0x00, 0x00, 0x00, 0x00, 0x00, 
0x00, 0x00, 0x00, 0x00, 0x80, 0xff, 0x03, 0x00, 0x00, 0x00, 0x00, 0x00, 
0x00, 0x00, 0x00, 0x00, 0xd0, 0xff, 0x17, 0x00, 0x00, 0x00, 0x00, 0x00, 
0x00, 0x00, 0x00, 0x00, 0xc8, 0xff, 0x07, 0x00, 0x00, 0x00, 0x00, 0x00, 
0x00, 0x00, 0x00, 0x00, 0xe0, 0xff, 0x0f, 0x00, 0x00, 0x00, 0x00, 0x00, 
0x00, 0x00, 0x00, 0x00, 0xe0, 0xff, 0x0f, 0x00, 0x00, 0x00, 0x00, 0x00, 
0x00, 0x00, 0x00, 0x00, 0xe0, 0xff, 0x0f, 0x00, 0x00, 0x00, 0x00, 0x00, 
0x00, 0x00, 0x00, 0x00, 0xf0, 0xff, 0x1f, 0x00, 0x00, 0x00, 0x00, 0x00, 
0x00, 0x00, 0x00, 0x00, 0xf8, 0xff, 0x5f, 0x00, 0x00, 0x00, 0x00, 0x00, 
0x00, 0x00, 0x00, 0x00, 0xf0, 0xff, 0x1f, 0x00, 0x00, 0x00, 0x00, 0x00, 
0x00, 0x00, 0x00, 0x00, 0xfc, 0xff, 0x3f, 0x00, 0x00, 0x00, 0x00, 0x00, 
0x00, 0x00, 0x00, 0x00, 0xf8, 0xff, 0x3f, 0x01, 0x00, 0x00, 0x00, 0x00, 
0x00, 0x00, 0x00, 0x80, 0xf8, 0xff, 0x3f, 0x00, 0x00, 0x00, 0x00, 0x00, 
0x00, 0x00, 0x00, 0x00, 0xf8, 0xff, 0x3f, 0x01, 0x00, 0x00, 0x00, 0x00, 
0x00, 0x00, 0x00, 0x00, 0xfc, 0xff, 0x7f, 0x00, 0x00, 0x00, 0x00, 0x00, 
0x00, 0x00, 0x00, 0x00, 0xfc, 0xff, 0x7f, 0x00, 0x00, 0x00, 0x00, 0x00, 
0x00, 0x00, 0x00, 0x20, 0xfc, 0xff, 0x7f, 0x04, 0x00, 0x00, 0x00, 0x00, 
0x00, 0x00, 0x00, 0x00, 0xfd, 0xff, 0x7f, 0x01, 0x00, 0x00, 0x00, 0x00, 
0x00, 0x00, 0x00, 0x90, 0xff, 0xff, 0xff, 0x03, 0x00, 0x00, 0x00, 0x00, 
0x00, 0x00, 0x00, 0x90, 0xff, 0xff, 0xff, 0x13, 0x00, 0x08, 0x00, 0x00, 
0x00, 0x40, 0x00, 0x80, 0xff, 0xff, 0xff, 0x13, 0x00, 0x10, 0x00, 0x00, 
0x00, 0x00, 0x01, 0xc0, 0xff, 0xff, 0xff, 0x27, 0x00, 0x00, 0x00, 0x00, 
0x00, 0xd0, 0x01, 0xc0, 0xff, 0xff, 0xff, 0x07, 0x00, 0x07, 0x00, 0x00, 
0x00, 0x00, 0x0e, 0x80, 0xff, 0xff, 0xff, 0x03, 0xe0, 0x12, 0x00, 0x00, 
0x00, 0x40, 0x70, 0x80, 0xff, 0xff, 0xff, 0x03, 0x1c, 0x00, 0x00, 0x00, 
0x00, 0x00, 0x80, 0x83, 0xff, 0xff, 0xff, 0x81, 0x03, 0x00, 0x00, 0x00, 
0x00, 0x00, 0x00, 0x3c, 0xff, 0xff, 0xff, 0x71, 0x00, 0x00, 0x00, 0x00, 
0x00, 0x00, 0x00, 0xc0, 0xff, 0xff, 0xff, 0x0f, 0x00, 0x00, 0x00, 0x00, 
0x00, 0x00, 0x00, 0x00, 0xff, 0xff, 0xff, 0x01, 0x00, 0x00, 0x00, 0x00, 
0x00, 0x00, 0x00, 0x80, 0xff, 0xff, 0xff, 0x03, 0x00, 0x00, 0x00, 0x00, 
0x00, 0x00, 0x00, 0x80, 0xff, 0xff, 0xff, 0x03, 0x00, 0x00, 0x00, 0x00, 
0x00, 0x40, 0x00, 0x80, 0xff, 0xff, 0xff, 0x03, 0x00, 0x04, 0x00, 0x00, 
0x00, 0x00, 0x00, 0xc0, 0xff, 0xff, 0xff, 0x07, 0x00, 0x10, 0x00, 0x00, 
0x00, 0xe0, 0x01, 0xc0, 0xff, 0xff, 0xff, 0x07, 0x00, 0x17, 0x00, 0x00, 
0x00, 0x00, 0x0e, 0x80, 0xff, 0xff, 0xff, 0x03, 0xe0, 0x04, 0x00, 0x00, 
0x00, 0x80, 0x70, 0x80, 0xff, 0xff, 0xff, 0x03, 0x1c, 0x00, 0x00, 0x00, 
0x00, 0x00, 0x80, 0x83, 0xff, 0xff, 0xff, 0x83, 0x03, 0x00, 0x00, 0x00, 
0x00, 0x00, 0x00, 0x3c, 0xff, 0xff, 0xff, 0x71, 0x00, 0x00, 0x00, 0x00, 
0x00, 0x00, 0x00, 0xc0, 0xff, 0xff, 0xff, 0x0f, 0x00, 0x00, 0x00, 0x00, 
0x00, 0x00, 0x00, 0x00, 0xff, 0xff, 0xff, 0x01, 0x00, 0x00, 0x00, 0x00, 
0x00, 0x00, 0x00, 0x80, 0xff, 0xff, 0xff, 0x03, 0x00, 0x00, 0x00, 0x00, 
0x00, 0x00, 0x00, 0x80, 0xff, 0xff, 0xff, 0x03, 0x00, 0x00, 0x00, 0x00, 
0x00, 0x00, 0x00, 0x80, 0xff, 0xff, 0xff, 0x03, 0x00, 0x0c, 0x00, 0x00, 
0x00, 0x60, 0x00, 0xc0, 0xff, 0xff, 0xff, 0x07, 0x00, 0x00, 0x00, 0x00, 
0x00, 0xc0, 0x01, 0xc0, 0xff, 0xff, 0xff, 0x07, 0x00, 0x07, 0x00, 0x00, 
0x00, 0x20, 0x0e, 0x80, 0xff, 0xff, 0xff, 0x03, 0xe0, 0x0c, 0x00, 0x00, 
0x00, 0x80, 0x70, 0x80, 0xff, 0xff, 0xff, 0x03, 0x1c, 0x00, 0x00, 0x00, 
0x00, 0x00, 0x80, 0x83, 0xff, 0xff, 0xff, 0x83, 0x03, 0x00, 0x00, 0x00, 
0x00, 0x00, 0x00, 0x3c, 0xff, 0xff, 0xff, 0x71, 0x00, 0x00, 0x00, 0x00, 
0x00, 0x00, 0x00, 0xc0, 0xff, 0xff, 0xff, 0x0f, 0x00, 0x00, 0x00, 0x00, 
0x00, 0x00, 0x00, 0x00, 0xff, 0xff, 0xff, 0x01, 0x00, 0x00, 0x00, 0x00, 
0x00, 0x00, 0x00, 0x80, 0xff, 0xff, 0xff, 0x03, 0x00, 0x00, 0x00, 0x00, 
0x00, 0x00, 0x00, 0x80, 0xff, 0xff, 0xff, 0x03, 0x00, 0x04, 0x00, 0x00, 
0x00, 0x40, 0x00, 0x80, 0xff, 0xff, 0xff, 0x03, 0x00, 0x02, 0x00, 0x00, 
0x00, 0x10, 0x00, 0xc0, 0xff, 0xff, 0xff, 0x07, 0x00, 0x08, 0x00, 0x00, 
0x00, 0xc0, 0x01, 0xc0, 0xff, 0xff, 0xff, 0x07, 0x00, 0x07, 0x00, 0x00, 
0x00, 0x00, 0x0e, 0x80, 0xff, 0xff, 0xff, 0x03, 0xe0, 0x00, 0x00, 0x00, 
0x00, 0x40, 0x71, 0x80, 0xff, 0xff, 0xff, 0x03, 0x1c, 0x04, 0x00, 0x00, 
0x00, 0x00, 0x80, 0x83, 0xff, 0xff, 0xff, 0x83, 0x03, 0x00, 0x00, 0x00, 
0x00, 0x00, 0x00, 0x3c, 0xff, 0xff, 0xff, 0x71, 0x00, 0x00, 0x00, 0x00, 
0x00, 0x00, 0x00, 0xc0, 0xff, 0xff, 0xff, 0x0f, 0x00, 0x00, 0x00, 0x00, 
0x00, 0x00, 0x00, 0x00, 0xff, 0xff, 0xff, 0x01, 0x00, 0x00, 0x00, 0x00, 
0x00, 0x00, 0x00, 0x00, 0xff, 0xff, 0xff, 0x01, 0x00, 0x00, 0x00, 0x00, 
0x00, 0x00, 0x00, 0x00, 0xfe, 0xff, 0xff, 0x00, 0x00, 0x00, 0x00, 0x00, 
0x00, 0x00, 0x00, 0x00, 0xfe, 0xff, 0xff, 0x00, 0x00, 0x00, 0x00, 0x00, 
0x00, 0x00, 0x00, 0x00, 0xfe, 0xff, 0xff, 0x00, 0x00, 0x00, 0x00, 0x00, 
0x00, 0x00, 0x00, 0x00, 0xfe, 0xff, 0xff, 0x00, 0x00, 0x00, 0x00, 0x00, 
0x00, 0x00, 0x00, 0x00, 0xfe, 0xff, 0x7f, 0x00, 0x00, 0x00, 0x00, 0x00, 
0x00, 0x00, 0x00, 0x00, 0xfc, 0xff, 0x7f, 0x00, 0x00, 0x00, 0x00, 0x00, 
0x00, 0x00, 0x00, 0x00, 0xfc, 0xff, 0x7f, 0x00, 0x00, 0x00, 0x00, 0x00, 
0x00, 0x00, 0x00, 0x00, 0xfc, 0xff, 0x7f, 0x00, 0x00, 0x00, 0x00, 0x00, 
0x00, 0x00, 0x00, 0x00, 0xf8, 0xff, 0x3f, 0x00, 0x00, 0x00, 0x00, 0x00, 
0x00, 0x00, 0x00, 0x00, 0xfa, 0xff, 0x3f, 0x00, 0x00, 0x00, 0x00, 0x00, 
0x00, 0x00, 0x00, 0x00, 0xf8, 0xff, 0x3f, 0x00, 0x00, 0x00, 0x00, 0x00, 
0x00, 0x00, 0x00, 0x00, 0xf0, 0xff, 0x1f, 0x00, 0x00, 0x00, 0x00, 0x00, 
0x00, 0x00, 0x00, 0x00, 0xe4, 0xff, 0x8f, 0x00, 0x00, 0x00, 0x00, 0x00, 
0x00, 0x00, 0x00, 0x00, 0xc0, 0xff, 0x07, 0x00, 0x00, 0x00, 0x00, 0x00, 
0x00, 0x00, 0x00, 0x00, 0x88, 0xff, 0x03, 0x00, 0x00, 0x00, 0x00, 0x00, 
0x00, 0x00, 0x00, 0x00, 0x00, 0x7c, 0x20, 0x00, 0x00, 0x00, 0x00, 0x00, 
0x00, 0x00, 0x00, 0x00, 0x00, 0x00, 0x10, 0x00, 0x00, 0x00, 0x00, 0x00};