#define x_width 30
#define x_height 30
static char x_bits[] = {
0x00, 0x00, 0x00, 0x00, 0x00, 0x00, 0x00, 0x00, 0x00, 0x00, 0x00, 0x00, 
0x00, 0x00, 0x1e, 0x00, 0x00, 0x00, 0x3f, 0x00, 0x00, 0xfc, 0x7f, 0x00, 
0x00, 0xfe, 0x7f, 0x00, 0x00, 0xff, 0x7f, 0x00, 0x80, 0xff, 0x7f, 0x00, 
0x80, 0xff, 0x7f, 0x00, 0x80, 0xff, 0x7f, 0x00, 0x80, 0xff, 0x7f, 0x00, 
0x80, 0xff, 0x7f, 0x00, 0x80, 0xff, 0x7f, 0x00, 0x80, 0xf7, 0x7b, 0x00, 
0x00, 0xf7, 0x73, 0x00, 0x00, 0xe7, 0x71, 0x00, 0x00, 0x07, 0xf0, 0x00, 
0x00, 0x07, 0xe0, 0x00, 0x00, 0x00, 0x00, 0x00, 0x00, 0x00, 0x00, 0x00, 
0x00, 0x00, 0x00, 0x00, 0x00, 0x00, 0x00, 0x00, 0x00, 0x00, 0x00, 0x00, 
0x00, 0x00, 0x00, 0x00, 0x00, 0x00, 0x00, 0x00, 0x00, 0x00, 0x00, 0x00, 
0x00, 0x00, 0x00, 0x00, 0x00, 0x00, 0x00, 0x00, 0x00, 0x00, 0x00, 0x00};