#define x_width 30
#define x_height 30
static char x_bits[] = {
0x00, 0x00, 0x00, 0x00, 0x00, 0x00, 0x00, 0x00, 0x00, 0x00, 0x00, 0x00, 
0x00, 0x00, 0x00, 0x00, 0x00, 0x00, 0x00, 0x00, 0x00, 0x00, 0x00, 0x00, 
0x00, 0x00, 0x00, 0x00, 0x00, 0x00, 0x80, 0x01, 0x00, 0x00, 0xe0, 0x01, 
0x00, 0x00, 0x78, 0x00, 0x00, 0x00, 0x1e, 0x00, 0x00, 0x80, 0x3f, 0x00, 
0x00, 0xe0, 0x39, 0x00, 0x00, 0xf8, 0x39, 0x00, 0x00, 0xfe, 0x3b, 0x00, 
0x80, 0xf7, 0x7b, 0x00, 0xe0, 0xf7, 0x7f, 0x00, 0xf8, 0xf7, 0x7f, 0x00, 
0x98, 0xff, 0x7f, 0x00, 0x00, 0xff, 0x7f, 0x00, 0x00, 0xff, 0x7f, 0x00, 
0x00, 0xff, 0x7f, 0x00, 0x00, 0xfe, 0x3f, 0x00, 0x00, 0xfc, 0x1f, 0x00, 
0x00, 0xf0, 0x0f, 0x00, 0x00, 0x00, 0x00, 0x00, 0x00, 0x00, 0x00, 0x00, 
0x00, 0x00, 0x00, 0x00, 0x00, 0x00, 0x00, 0x00, 0x00, 0x00, 0x00, 0x00};