#define x_width 30
#define x_height 30
static char x_bits[] = {
0x00, 0x00, 0x00, 0x00, 0x00, 0x02, 0x00, 0x00, 0x00, 0x02, 0x00, 0x00, 
0x00, 0x03, 0x00, 0x00, 0x00, 0x03, 0x1e, 0x00, 0x00, 0xf3, 0x3f, 0x00, 
0x00, 0xff, 0x3f, 0x00, 0x00, 0xff, 0x3f, 0x00, 0x00, 0xff, 0x7f, 0x00, 
0x00, 0xff, 0x7f, 0x00, 0x00, 0xff, 0x7f, 0x00, 0x00, 0xff, 0x7f, 0x00, 
0x00, 0xf3, 0x7f, 0x00, 0x00, 0xf3, 0x7f, 0x00, 0x00, 0xf3, 0x7b, 0x00, 
0x00, 0xf3, 0x3b, 0x00, 0x00, 0xe3, 0x39, 0x00, 0x00, 0x03, 0x38, 0x00, 
0x00, 0x03, 0x38, 0x00, 0x00, 0x03, 0x00, 0x00, 0x00, 0x02, 0x00, 0x00, 
0x00, 0x00, 0x00, 0x00, 0x00, 0x00, 0x00, 0x00, 0x00, 0x00, 0x00, 0x00, 
0x00, 0x00, 0x00, 0x00, 0x00, 0x00, 0x00, 0x00, 0x00, 0x00, 0x00, 0x00, 
0x00, 0x00, 0x00, 0x00, 0x00, 0x00, 0x00, 0x00, 0x00, 0x00, 0x00, 0x00};