#define x_width 30
#define x_height 30
static char x_bits[] = {
0x00, 0x00, 0x00, 0x00, 0x00, 0x00, 0x00, 0x00, 0x00, 0x00, 0x00, 0x00, 
0x00, 0x00, 0x00, 0x00, 0x00, 0x00, 0x00, 0x00, 0x00, 0xfc, 0x03, 0x00, 
0x00, 0xfe, 0x0f, 0x00, 0x00, 0xff, 0x1f, 0x00, 0x80, 0xff, 0x3f, 0x00, 
0x80, 0xff, 0x3f, 0x00, 0x80, 0xff, 0x3f, 0x00, 0x80, 0xff, 0xff, 0x00, 
0x80, 0xff, 0xfb, 0x00, 0x80, 0xff, 0x7b, 0x00, 0x80, 0xf7, 0x3f, 0x00, 
0x00, 0xf7, 0x0f, 0x00, 0x00, 0xe7, 0x03, 0x00, 0x00, 0xe7, 0x00, 0x00, 
0x00, 0x3f, 0x00, 0x00, 0x00, 0x0e, 0x00, 0x00, 0x00, 0x03, 0x00, 0x00, 
0xe0, 0x01, 0x00, 0x00, 0x78, 0x00, 0x00, 0x00, 0x18, 0x00, 0x00, 0x00, 
0x00, 0x00, 0x00, 0x00, 0x00, 0x00, 0x00, 0x00, 0x00, 0x00, 0x00, 0x00, 
0x00, 0x00, 0x00, 0x00, 0x00, 0x00, 0x00, 0x00, 0x00, 0x00, 0x00, 0x00};