#define x_width 90
#define x_height 90
static char x_bits[] = {
0x00, 0x00, 0x00, 0x00, 0x00, 0x00, 0x00, 0x00, 0x00, 0x00, 0x00, 0x00, 
0x00, 0x00, 0x00, 0x00, 0x00, 0x00, 0x00, 0x00, 0x00, 0x00, 0x00, 0x00, 
0x00, 0x00, 0x00, 0x00, 0x00, 0x00, 0x00, 0x00, 0x00, 0x00, 0x00, 0x00, 
0x00, 0x00, 0x00, 0x00, 0x00, 0x00, 0x00, 0x00, 0x00, 0x00, 0x00, 0x00, 
0x00, 0x00, 0x00, 0x00, 0x00, 0x00, 0x00, 0x00, 0x00, 0x00, 0x00, 0x00, 
0x00, 0x00, 0x00, 0x00, 0x00, 0x00, 0x00, 0x00, 0x00, 0x00, 0x00, 0x00, 
0x00, 0x00, 0x00, 0x00, 0x00, 0x00, 0x00, 0x00, 0x00, 0x00, 0x00, 0x00, 
0x00, 0x00, 0x00, 0x00, 0x00, 0x00, 0x00, 0x00, 0x00, 0x00, 0x00, 0x00, 
0x00, 0x00, 0x00, 0x00, 0x00, 0x00, 0x00, 0x00, 0x00, 0x00, 0x00, 0x00, 
0x00, 0x00, 0x00, 0x40, 0x00, 0x00, 0x00, 0x00, 0x00, 0x00, 0x00, 0x00, 
0x00, 0x00, 0x00, 0x40, 0x65, 0x00, 0x00, 0x00, 0x00, 0x00, 0x00, 0x00, 
0x00, 0x00, 0x00, 0x0a, 0x00, 0x45, 0x00, 0x00, 0x00, 0x00, 0x00, 0x00, 
0x00, 0xa0, 0x80, 0x00, 0x08, 0x10, 0x00, 0x00, 0x00, 0x00, 0x00, 0x00, 
0x00, 0xa0, 0x40, 0x00, 0x30, 0x41, 0x00, 0x00, 0x00, 0x00, 0x00, 0x00, 
0x00, 0x68, 0x22, 0x60, 0x20, 0x94, 0x11, 0x00, 0x00, 0x00, 0x00, 0x00, 
0x00, 0x60, 0x12, 0x00, 0x68, 0x21, 0x04, 0x00, 0x00, 0x00, 0x00, 0x00, 
0x00, 0x68, 0x00, 0x01, 0x60, 0x00, 0x04, 0x00, 0x00, 0x00, 0x00, 0x00, 
0x00, 0xc0, 0x00, 0x00, 0x68, 0x00, 0x70, 0x00, 0x00, 0x00, 0x00, 0x00, 
0x00, 0x90, 0x02, 0x02, 0x40, 0x00, 0x00, 0x00, 0x00, 0x00, 0x00, 0x00, 
0x00, 0x40, 0x00, 0x01, 0x40, 0x00, 0x40, 0x00, 0x00, 0x00, 0x00, 0x00, 
0x00, 0x00, 0x00, 0x00, 0x40, 0x00, 0x80, 0x00, 0x00, 0x00, 0x00, 0x00, 
0x00, 0x20, 0x00, 0x00, 0x00, 0x00, 0x80, 0x00, 0x00, 0x00, 0x00, 0x00, 
0x00, 0x00, 0x00, 0x00, 0x00, 0x01, 0x10, 0x00, 0x00, 0x00, 0x00, 0x00, 
0x00, 0x00, 0x00, 0x00, 0x80, 0x00, 0x00, 0x01, 0x00, 0x00, 0x00, 0x00, 
0x00, 0x10, 0x02, 0x00, 0x80, 0x00, 0x00, 0x02, 0x00, 0x00, 0x00, 0x00, 
0x00, 0x00, 0x00, 0x00, 0x80, 0x02, 0x00, 0x02, 0x00, 0x00, 0x00, 0x00, 
0x00, 0x08, 0x00, 0x00, 0xa2, 0x00, 0x70, 0x00, 0x00, 0x00, 0x00, 0x00, 
0x00, 0x20, 0x00, 0x00, 0x11, 0x01, 0xa0, 0x02, 0x00, 0x00, 0x00, 0x00, 
0x00, 0x00, 0x00, 0x20, 0x08, 0x02, 0xa0, 0x02, 0x00, 0x00, 0x00, 0x00, 
0x00, 0x28, 0x00, 0x40, 0x00, 0x00, 0x10, 0x00, 0x00, 0x00, 0x00, 0x00, 
0x00, 0x00, 0x00, 0xa8, 0x80, 0x90, 0x10, 0x06, 0x00, 0x00, 0x00, 0x00, 
0x00, 0x04, 0x40, 0x10, 0x20, 0x82, 0xd7, 0x3f, 0x00, 0x00, 0x00, 0x00, 
0x00, 0x00, 0x02, 0x00, 0x01, 0x83, 0xff, 0x7f, 0x00, 0x00, 0x00, 0x00, 
0x00, 0xf0, 0x43, 0x00, 0x20, 0x80, 0xff, 0xff, 0x03, 0x00, 0x00, 0x00, 
0x00, 0xfe, 0x03, 0x00, 0x00, 0x90, 0xff, 0xff, 0x5f, 0x00, 0x00, 0x00, 
0xc0, 0xff, 0x13, 0x00, 0x18, 0x10, 0xfe, 0xff, 0xff, 0x03, 0x00, 0x00, 
0xe0, 0xff, 0x43, 0x00, 0x00, 0x01, 0xfe, 0xff, 0xff, 0x07, 0x00, 0x00, 
0xf0, 0xff, 0x20, 0x04, 0x08, 0x00, 0xfc, 0xff, 0xff, 0x1f, 0x00, 0x00, 
0xf8, 0xff, 0x00, 0x00, 0x80, 0x20, 0xf8, 0xff, 0xff, 0x7f, 0x00, 0x00, 
0xfc, 0xff, 0x20, 0x00, 0x00, 0x40, 0xf8, 0xff, 0xff, 0xff, 0x03, 0x00, 
0xfc, 0x7f, 0x04, 0x00, 0x00, 0x10, 0xf8, 0xff, 0xff, 0xff, 0x0f, 0x00, 
0xfc, 0x3f, 0x00, 0x00, 0x04, 0x04, 0xf0, 0xff, 0xff, 0xff, 0x1f, 0x00, 
0xfe, 0x3f, 0x00, 0x00, 0x00, 0x01, 0xe0, 0xff, 0xff, 0xff, 0x3f, 0x00, 
0xfe, 0x3f, 0x00, 0x00, 0x00, 0x10, 0xe0, 0xff, 0xff, 0xff, 0xff, 0x00, 
0xfe, 0x3f, 0x00, 0x00, 0x0c, 0x80, 0xe0, 0xff, 0xff, 0xff, 0xff, 0x00, 
0xff, 0x3f, 0x04, 0x10, 0x40, 0x40, 0xf0, 0xff, 0xff, 0xff, 0xff, 0x00, 
0xff, 0x3f, 0x08, 0x40, 0x00, 0x20, 0xf0, 0xff, 0xff, 0xff, 0x1f, 0x00, 
0xff, 0x7f, 0x40, 0x00, 0x00, 0x00, 0xf0, 0xff, 0xff, 0xff, 0x07, 0x00, 
0xfe, 0x7f, 0x00, 0x00, 0x00, 0x10, 0xf0, 0xff, 0xff, 0xff, 0x03, 0x00, 
0xfe, 0xff, 0x08, 0x00, 0x00, 0x20, 0xf8, 0xff, 0xff, 0xff, 0x00, 0x00, 
0xfc, 0xff, 0x01, 0x00, 0x00, 0x10, 0xf8, 0xff, 0xff, 0x3f, 0x00, 0x00, 
0xf8, 0xff, 0x01, 0x08, 0x00, 0x00, 0xff, 0xff, 0xff, 0x0f, 0x00, 0x00, 
0xf0, 0xff, 0x8b, 0x00, 0x00, 0xa2, 0xff, 0xff, 0xff, 0x01, 0x00, 0x00, 
0xe0, 0xff, 0x43, 0x00, 0x00, 0x81, 0xff, 0xff, 0x3f, 0x00, 0x00, 0x00, 
0x80, 0xff, 0x03, 0x10, 0x00, 0x88, 0xff, 0xff, 0x03, 0x00, 0x00, 0x00, 
0x00, 0xfe, 0x03, 0x18, 0xa4, 0x81, 0xff, 0x3f, 0x00, 0x00, 0x00, 0x00, 
0x00, 0xf0, 0x03, 0x30, 0x58, 0x80, 0xff, 0x7f, 0x00, 0x00, 0x00, 0x00, 
0x00, 0x80, 0x03, 0x00, 0x02, 0x80, 0x97, 0x3f, 0x00, 0x00, 0x00, 0x00, 
0x00, 0x00, 0x00, 0x00, 0x00, 0x80, 0x10, 0x06, 0x00, 0x00, 0x00, 0x00, 
0x00, 0x10, 0x00, 0x00, 0x31, 0x00, 0x10, 0x00, 0x00, 0x00, 0x00, 0x00, 
0x00, 0x00, 0x00, 0x00, 0x20, 0x00, 0x00, 0x10, 0x00, 0x00, 0x00, 0x00, 
0x00, 0x00, 0x00, 0x00, 0x00, 0x02, 0x00, 0x41, 0x00, 0x00, 0x00, 0x00, 
0x00, 0x00, 0x00, 0x00, 0x00, 0x00, 0x00, 0x20, 0x00, 0x00, 0x00, 0x00, 
0x00, 0x20, 0x01, 0x00, 0x00, 0x00, 0x40, 0x10, 0x00, 0x00, 0x00, 0x00, 
0x00, 0x00, 0x00, 0x40, 0x00, 0x00, 0x00, 0x00, 0x00, 0x00, 0x00, 0x00, 
0x00, 0x90, 0x01, 0x40, 0x00, 0x00, 0x10, 0x08, 0x00, 0x00, 0x00, 0x00, 
0x00, 0x00, 0x02, 0xc0, 0x00, 0x00, 0x00, 0x08, 0x04, 0x00, 0x00, 0x00, 
0x00, 0x00, 0x20, 0x50, 0x00, 0x00, 0x82, 0x02, 0x00, 0x00, 0x00, 0x00, 
0x00, 0x00, 0x03, 0x50, 0x02, 0x00, 0x00, 0x01, 0x00, 0x00, 0x00, 0x00, 
0x00, 0xc0, 0x06, 0x40, 0x02, 0x40, 0x40, 0x00, 0x00, 0x00, 0x00, 0x00, 
0x00, 0xa0, 0x00, 0x88, 0x00, 0x08, 0x10, 0x00, 0x00, 0x00, 0x00, 0x00, 
0x00, 0x80, 0x02, 0x20, 0x40, 0x00, 0x10, 0x80, 0x00, 0x00, 0x00, 0x00, 
0x00, 0xc0, 0x40, 0x00, 0x04, 0x00, 0x03, 0x00, 0x00, 0x00, 0x00, 0x00, 
0x00, 0xc8, 0x04, 0x81, 0x00, 0x00, 0x01, 0x00, 0x00, 0x00, 0x00, 0x00, 
0x00, 0xc8, 0x04, 0x00, 0x00, 0x24, 0x00, 0x08, 0x00, 0x00, 0x00, 0x00, 
0x00, 0xc0, 0x00, 0x10, 0x50, 0x01, 0x00, 0x00, 0x00, 0x00, 0x00, 0x00, 
0x00, 0x00, 0x00, 0x40, 0x02, 0x00, 0x00, 0x00, 0x00, 0x00, 0x00, 0x00, 
0x00, 0x08, 0x00, 0x00, 0x00, 0x00, 0x02, 0x00, 0x00, 0x00, 0x00, 0x00, 
0x00, 0x10, 0x01, 0x08, 0x10, 0x00, 0x00, 0x00, 0x00, 0x00, 0x00, 0x00, 
0x00, 0x40, 0x00, 0x20, 0x00, 0x00, 0x00, 0x00, 0x00, 0x00, 0x00, 0x00, 
0x00, 0x00, 0x00, 0x00, 0x00, 0x00, 0x00, 0x00, 0x00, 0x00, 0x00, 0x00, 
0x00, 0x00, 0x00, 0x00, 0x00, 0x00, 0x00, 0x00, 0x00, 0x00, 0x00, 0x00, 
0x00, 0x00, 0x00, 0x00, 0x00, 0x00, 0x00, 0x00, 0x00, 0x00, 0x00, 0x00, 
0x00, 0x00, 0x00, 0x00, 0x00, 0x00, 0x00, 0x00, 0x00, 0x00, 0x00, 0x00, 
0x00, 0x00, 0x00, 0x00, 0x00, 0x00, 0x00, 0x00, 0x00, 0x00, 0x00, 0x00, 
0x00, 0x00, 0x00, 0x00, 0x00, 0x00, 0x00, 0x00, 0x00, 0x00, 0x00, 0x00, 
0x00, 0x00, 0x00, 0x00, 0x00, 0x00, 0x00, 0x00, 0x00, 0x00, 0x00, 0x00, 
0x00, 0x00, 0x00, 0x00, 0x00, 0x00, 0x00, 0x00, 0x00, 0x00, 0x00, 0x00, 
0x00, 0x00, 0x00, 0x00, 0x00, 0x00, 0x00, 0x00, 0x00, 0x00, 0x00, 0x00, 
0x00, 0x00, 0x00, 0x00, 0x00, 0x00, 0x00, 0x00, 0x00, 0x00, 0x00, 0x00};