#define x_width 30
#define x_height 30
static char x_bits[] = {
0x00, 0x00, 0x00, 0x00, 0x00, 0x00, 0x00, 0x00, 0x00, 0x00, 0x00, 0x00, 
0x00, 0x00, 0x00, 0x00, 0x00, 0x00, 0x00, 0x00, 0x00, 0x06, 0x30, 0x00, 
0x00, 0x0c, 0x18, 0x00, 0x00, 0x08, 0x08, 0x00, 0x00, 0x08, 0x08, 0x00, 
0x00, 0x08, 0x08, 0x00, 0x00, 0x08, 0x08, 0x00, 0x00, 0x10, 0x06, 0x00, 
0x00, 0xe0, 0x03, 0x00, 0x00, 0xe0, 0x03, 0x00, 0x00, 0x80, 0x00, 0x00, 
0x00, 0xa0, 0x02, 0x00, 0x00, 0xc7, 0x30, 0x00, 0x00, 0xf8, 0x0f, 0x00, 
0x00, 0xc0, 0x04, 0x00, 0x00, 0xe0, 0x03, 0x00, 0x00, 0xc0, 0x00, 0x00, 
0x00, 0x80, 0x01, 0x00, 0x00, 0xc0, 0x01, 0x00, 0x00, 0x60, 0x03, 0x00, 
0x00, 0x20, 0x02, 0x00, 0x00, 0xc0, 0x03, 0x00, 0x00, 0x00, 0x00, 0x00, 
0x00, 0x00, 0x00, 0x00, 0x00, 0x00, 0x00, 0x00, 0x00, 0x00, 0x00, 0x00};