#define x_width 90
#define x_height 90
static char x_bits[] = {
0x00, 0x00, 0x00, 0x00, 0x00, 0x00, 0x00, 0x00, 0x00, 0x00, 0x00, 0x00, 
0x00, 0x00, 0x00, 0x00, 0x00, 0x7c, 0x00, 0x00, 0x00, 0x00, 0x00, 0x00, 
0x00, 0x00, 0x00, 0x00, 0x00, 0x7c, 0x00, 0x00, 0x00, 0x00, 0x00, 0x00, 
0x00, 0x00, 0x00, 0x00, 0x00, 0xfe, 0x00, 0x00, 0x00, 0x00, 0x00, 0x00, 
0x00, 0x00, 0x00, 0x00, 0x00, 0xff, 0x01, 0x00, 0x00, 0x00, 0x00, 0x00, 
0x00, 0x00, 0x00, 0x00, 0x00, 0xff, 0x01, 0x00, 0x00, 0x00, 0x00, 0x00, 
0x00, 0x00, 0x00, 0x00, 0x80, 0xff, 0x03, 0x00, 0x00, 0x00, 0x00, 0x00, 
0x00, 0x00, 0x00, 0x00, 0x80, 0xff, 0x03, 0x00, 0x00, 0x00, 0x00, 0x00, 
0x00, 0x00, 0x00, 0x00, 0xc0, 0xff, 0x07, 0x00, 0x00, 0x00, 0x00, 0x00, 
0x00, 0x00, 0x00, 0x00, 0xc0, 0xff, 0x07, 0x00, 0x00, 0x00, 0x00, 0x00, 
0x00, 0x00, 0x00, 0x00, 0xe0, 0xff, 0x0f, 0x00, 0x00, 0x00, 0x00, 0x00, 
0x00, 0x00, 0x00, 0x00, 0xe0, 0xff, 0x0f, 0x00, 0x00, 0x00, 0x00, 0x00, 
0x00, 0x00, 0x00, 0x00, 0xe0, 0xff, 0x0f, 0x00, 0x00, 0x00, 0x00, 0x00, 
0x00, 0x00, 0x00, 0x00, 0xf0, 0xff, 0x1f, 0x00, 0x00, 0x00, 0x00, 0x00, 
0x00, 0x00, 0x00, 0x00, 0xf0, 0xff, 0x1f, 0x00, 0x00, 0x00, 0x00, 0x00, 
0x00, 0x00, 0x00, 0x00, 0xf0, 0xff, 0x1f, 0x00, 0x00, 0x00, 0x00, 0x00, 
0x00, 0x00, 0x00, 0x00, 0xf8, 0xff, 0x3f, 0x00, 0x00, 0x00, 0x00, 0x00, 
0x00, 0x00, 0x00, 0x00, 0xf8, 0xff, 0x3f, 0x00, 0x00, 0x00, 0x00, 0x00, 
0x00, 0x00, 0x00, 0x00, 0xf8, 0xff, 0x3f, 0x00, 0x00, 0x00, 0x00, 0x00, 
0x00, 0x00, 0x00, 0x00, 0xf8, 0xff, 0x3f, 0x00, 0x00, 0x00, 0x00, 0x00, 
0x00, 0x00, 0x00, 0x00, 0xfc, 0xff, 0x7f, 0x00, 0x00, 0x00, 0x00, 0x00, 
0x00, 0x00, 0x00, 0x00, 0xfc, 0xff, 0x7f, 0x00, 0x00, 0x00, 0x00, 0x00, 
0x00, 0x00, 0x00, 0x00, 0xfc, 0xff, 0x7f, 0x00, 0x00, 0x00, 0x00, 0x00, 
0x00, 0x00, 0x00, 0x00, 0xfc, 0xff, 0x7f, 0x00, 0x00, 0x00, 0x00, 0x00, 
0x00, 0x00, 0x00, 0x00, 0xfe, 0xff, 0xff, 0x00, 0x00, 0x00, 0x00, 0x00, 
0x00, 0x00, 0x00, 0x00, 0xfe, 0xff, 0xff, 0x00, 0x00, 0x00, 0x00, 0x00, 
0x00, 0x00, 0x00, 0x00, 0xfe, 0xff, 0xff, 0x00, 0x00, 0x00, 0x00, 0x00, 
0x00, 0x00, 0x00, 0x00, 0xff, 0xff, 0xff, 0x01, 0x00, 0x00, 0x00, 0x00, 
0x00, 0x00, 0x00, 0x00, 0xff, 0xff, 0xff, 0x01, 0x00, 0x00, 0x00, 0x00, 
0x00, 0x00, 0x00, 0x00, 0xff, 0xff, 0xff, 0x01, 0x00, 0x00, 0x00, 0x00, 
0x00, 0x00, 0x00, 0x00, 0xff, 0xff, 0xff, 0x01, 0x00, 0x00, 0x00, 0x00, 
0x00, 0x00, 0x00, 0x00, 0xff, 0xff, 0xff, 0x01, 0x00, 0x00, 0x00, 0x00, 
0x00, 0x00, 0x00, 0x00, 0xff, 0xff, 0xff, 0x01, 0x00, 0x00, 0x00, 0x00, 
0x00, 0x00, 0x00, 0x80, 0xff, 0xff, 0xff, 0x03, 0x00, 0x00, 0x00, 0x00, 
0x00, 0x00, 0x00, 0x70, 0xff, 0xff, 0xff, 0x1d, 0x00, 0x00, 0x00, 0x00, 
0x00, 0x00, 0x00, 0x0e, 0xff, 0xff, 0xff, 0xe1, 0x00, 0x00, 0x00, 0x00, 
0x00, 0x00, 0xc0, 0x01, 0xff, 0xff, 0xff, 0x01, 0x07, 0x02, 0x00, 0x00, 
0x00, 0xa0, 0x38, 0x00, 0xff, 0xff, 0xff, 0x01, 0x38, 0x08, 0x00, 0x00, 
0x00, 0x10, 0x07, 0x00, 0xff, 0xff, 0xff, 0x01, 0xc0, 0x01, 0x00, 0x00, 
0x00, 0xc0, 0x00, 0x00, 0xff, 0xff, 0xff, 0x01, 0x00, 0x06, 0x00, 0x00, 
0x00, 0x20, 0x00, 0x00, 0xff, 0xff, 0xff, 0x01, 0x00, 0x10, 0x00, 0x00, 
0x00, 0x80, 0x01, 0x00, 0xff, 0xff, 0xff, 0x01, 0x00, 0x0a, 0x00, 0x00, 
0x00, 0x00, 0x00, 0x00, 0xff, 0xff, 0xff, 0x01, 0x00, 0x00, 0x00, 0x00, 
0x00, 0x00, 0x00, 0x00, 0xff, 0xff, 0xff, 0x01, 0x00, 0x00, 0x00, 0x00, 
0x00, 0x00, 0x00, 0x80, 0xff, 0xff, 0xff, 0x03, 0x00, 0x00, 0x00, 0x00, 
0x00, 0x00, 0x00, 0x70, 0xff, 0xff, 0xff, 0x1d, 0x00, 0x00, 0x00, 0x00, 
0x00, 0x00, 0x00, 0x0e, 0xff, 0xff, 0xff, 0xe1, 0x00, 0x00, 0x00, 0x00, 
0x00, 0x00, 0xc0, 0x01, 0xff, 0xff, 0xff, 0x01, 0x07, 0x00, 0x00, 0x00, 
0x00, 0xa0, 0x38, 0x00, 0xff, 0xff, 0xff, 0x01, 0x38, 0x04, 0x00, 0x00, 
0x00, 0x10, 0x07, 0x00, 0xff, 0xff, 0xff, 0x01, 0xc0, 0x11, 0x00, 0x00, 
0x00, 0xc0, 0x00, 0x00, 0xff, 0xff, 0xff, 0x01, 0x00, 0x06, 0x00, 0x00, 
0x00, 0x10, 0x01, 0x00, 0xff, 0xff, 0xff, 0x01, 0x00, 0x10, 0x00, 0x00, 
0x00, 0xa0, 0x00, 0x00, 0xff, 0xff, 0xff, 0x01, 0x00, 0x0a, 0x00, 0x00, 
0x00, 0x00, 0x00, 0x00, 0xff, 0xff, 0xff, 0x01, 0x00, 0x00, 0x00, 0x00, 
0x00, 0x00, 0x00, 0x00, 0xff, 0xff, 0xff, 0x01, 0x00, 0x00, 0x00, 0x00, 
0x00, 0x00, 0x00, 0x80, 0xff, 0xff, 0xff, 0x03, 0x00, 0x00, 0x00, 0x00, 
0x00, 0x00, 0x00, 0x70, 0xff, 0xff, 0xff, 0x1d, 0x00, 0x00, 0x00, 0x00, 
0x00, 0x00, 0x00, 0x0e, 0xff, 0xff, 0xff, 0xe1, 0x00, 0x00, 0x00, 0x00, 
0x00, 0x00, 0xc0, 0x01, 0xff, 0xff, 0xff, 0x01, 0x07, 0x00, 0x00, 0x00, 
0x00, 0x60, 0x38, 0x00, 0xff, 0xff, 0xff, 0x01, 0x38, 0x0c, 0x00, 0x00, 
0x00, 0x00, 0x07, 0x00, 0xff, 0xff, 0xff, 0x01, 0xc0, 0x01, 0x00, 0x00, 
0x00, 0xe0, 0x00, 0x00, 0xff, 0xff, 0xff, 0x01, 0x00, 0x06, 0x00, 0x00, 
0x00, 0x20, 0x00, 0x00, 0xff, 0xff, 0xff, 0x01, 0x00, 0x0a, 0x00, 0x00, 
0x00, 0xc0, 0x00, 0x00, 0xff, 0xff, 0xff, 0x01, 0x00, 0x04, 0x00, 0x00, 
0x00, 0x00, 0x00, 0x00, 0xff, 0xff, 0xff, 0x01, 0x00, 0x00, 0x00, 0x00, 
0x00, 0x00, 0x00, 0x00, 0xff, 0xff, 0xff, 0x01, 0x00, 0x00, 0x00, 0x00, 
0x00, 0x00, 0x00, 0x80, 0xff, 0xff, 0xff, 0x03, 0x00, 0x00, 0x00, 0x00, 
0x00, 0x00, 0x00, 0x70, 0xff, 0xff, 0xff, 0x1d, 0x00, 0x00, 0x00, 0x00, 
0x00, 0x00, 0x00, 0x0e, 0xff, 0xff, 0xff, 0xe1, 0x00, 0x00, 0x00, 0x00, 
0x00, 0x00, 0xc0, 0x01, 0xfe, 0xff, 0xff, 0x01, 0x07, 0x00, 0x00, 0x00, 
0x00, 0xa0, 0x38, 0x00, 0xfe, 0xff, 0xff, 0x01, 0x38, 0x04, 0x00, 0x00, 
0x00, 0x00, 0x07, 0x00, 0xfe, 0xff, 0xff, 0x01, 0xc0, 0x01, 0x00, 0x00, 
0x00, 0xd0, 0x00, 0x00, 0xfe, 0xff, 0xff, 0x00, 0x00, 0x0e, 0x00, 0x00, 
0x00, 0x20, 0x01, 0x00, 0xfc, 0xff, 0xff, 0x00, 0x00, 0x0a, 0x00, 0x00, 
0x00, 0x00, 0x01, 0x00, 0xfc, 0xff, 0xff, 0x00, 0x00, 0x04, 0x00, 0x00, 
0x00, 0x00, 0x00, 0x00, 0xfc, 0xff, 0x7f, 0x00, 0x00, 0x00, 0x00, 0x00, 
0x00, 0x00, 0x00, 0x00, 0xf8, 0xff, 0x7f, 0x00, 0x00, 0x00, 0x00, 0x00, 
0x00, 0x00, 0x00, 0x00, 0xf8, 0xff, 0x3f, 0x00, 0x00, 0x00, 0x00, 0x00, 
0x00, 0x00, 0x00, 0x00, 0xf0, 0xff, 0x3f, 0x00, 0x00, 0x00, 0x00, 0x00, 
0x00, 0x00, 0x00, 0x00, 0xf0, 0xff, 0x1f, 0x00, 0x00, 0x00, 0x00, 0x00, 
0x00, 0x00, 0x00, 0x00, 0xe0, 0xff, 0x0f, 0x00, 0x00, 0x00, 0x00, 0x00, 
0x00, 0x00, 0x00, 0x00, 0xe0, 0xff, 0x0f, 0x00, 0x00, 0x00, 0x00, 0x00, 
0x00, 0x00, 0x00, 0x00, 0xe0, 0xff, 0x0f, 0x00, 0x00, 0x00, 0x00, 0x00, 
0x00, 0x00, 0x00, 0x00, 0xc0, 0xff, 0x07, 0x00, 0x00, 0x00, 0x00, 0x00, 
0x00, 0x00, 0x00, 0x00, 0xc0, 0xff, 0x07, 0x00, 0x00, 0x00, 0x00, 0x00, 
0x00, 0x00, 0x00, 0x00, 0x80, 0xff, 0x03, 0x00, 0x00, 0x00, 0x00, 0x00, 
0x00, 0x00, 0x00, 0x00, 0x80, 0xff, 0x03, 0x00, 0x00, 0x00, 0x00, 0x00, 
0x00, 0x00, 0x00, 0x00, 0x00, 0xff, 0x01, 0x00, 0x00, 0x00, 0x00, 0x00, 
0x00, 0x00, 0x00, 0x00, 0x00, 0xff, 0x01, 0x00, 0x00, 0x00, 0x00, 0x00, 
0x00, 0x00, 0x00, 0x00, 0x00, 0xfe, 0x00, 0x00, 0x00, 0x00, 0x00, 0x00};