#define x_width 90
#define x_height 90
static char x_bits[] = {
0x00, 0x00, 0x00, 0x00, 0x00, 0x00, 0x00, 0x00, 0x00, 0x00, 0x00, 0x00, 
0x00, 0x00, 0x00, 0x00, 0x00, 0x00, 0x00, 0x00, 0x00, 0x00, 0x00, 0x00, 
0x00, 0x00, 0x00, 0x00, 0x00, 0x00, 0x00, 0x00, 0x00, 0x00, 0x00, 0x00, 
0x00, 0x00, 0x00, 0x00, 0x00, 0x00, 0x00, 0x00, 0x00, 0x00, 0x00, 0x00, 
0x00, 0x00, 0x00, 0x00, 0x00, 0x00, 0x00, 0x00, 0x00, 0x00, 0x00, 0x00, 
0x00, 0x00, 0x00, 0x00, 0x00, 0x00, 0x00, 0x00, 0x00, 0x00, 0x00, 0x00, 
0x00, 0x00, 0x00, 0x00, 0x00, 0x00, 0x00, 0x00, 0x00, 0x00, 0x00, 0x00, 
0x00, 0x00, 0x00, 0x00, 0x00, 0x00, 0x00, 0x00, 0x00, 0x00, 0x00, 0x00, 
0x00, 0x00, 0x00, 0x00, 0x00, 0x00, 0x00, 0x00, 0x00, 0x00, 0x00, 0x00, 
0x00, 0x00, 0x00, 0x00, 0x00, 0x00, 0x00, 0x00, 0x00, 0x00, 0x00, 0x00, 
0x00, 0x00, 0x00, 0x00, 0x00, 0x00, 0x00, 0x00, 0x00, 0x00, 0x00, 0x00, 
0x00, 0x00, 0x00, 0x00, 0x00, 0x00, 0x00, 0x00, 0x00, 0x00, 0x00, 0x00, 
0x00, 0x00, 0x00, 0x00, 0x00, 0x00, 0x00, 0x00, 0x00, 0x00, 0x00, 0x00, 
0x00, 0x00, 0x00, 0x00, 0x00, 0x00, 0x00, 0x00, 0x00, 0x00, 0x00, 0x00, 
0x00, 0x00, 0x00, 0x00, 0x00, 0x00, 0x00, 0x00, 0x00, 0x00, 0x00, 0x00, 
0x00, 0x00, 0x00, 0x00, 0x00, 0x00, 0x00, 0x00, 0x00, 0x00, 0x00, 0x00, 
0x00, 0x00, 0x00, 0x00, 0x00, 0x00, 0x00, 0x00, 0x00, 0x00, 0x00, 0x00, 
0x00, 0x00, 0x06, 0x00, 0x00, 0x00, 0x00, 0x00, 0x00, 0x00, 0x00, 0x00, 
0x00, 0x00, 0x1f, 0x00, 0x00, 0x00, 0x00, 0x00, 0x00, 0x00, 0x00, 0x00, 
0x00, 0x00, 0xfe, 0x03, 0x00, 0x00, 0x00, 0x00, 0x00, 0x00, 0x00, 0x00, 
0x00, 0x00, 0xfe, 0x3f, 0x00, 0x00, 0x00, 0x00, 0x00, 0x00, 0x00, 0x00, 
0x00, 0x00, 0xfe, 0x7f, 0x00, 0x00, 0x00, 0x00, 0x00, 0x00, 0x00, 0x00, 
0x00, 0x00, 0xfc, 0xff, 0x01, 0x00, 0x00, 0x00, 0x00, 0x00, 0x00, 0x00, 
0x00, 0x00, 0xfc, 0xff, 0x07, 0x00, 0x00, 0x00, 0x00, 0x00, 0x00, 0x00, 
0x00, 0x00, 0xfc, 0xff, 0x0f, 0x00, 0x00, 0x00, 0x00, 0x00, 0x00, 0x00, 
0x00, 0x00, 0xf0, 0xff, 0x3f, 0x00, 0x00, 0x00, 0x00, 0x00, 0x00, 0x00, 
0x00, 0x00, 0xf8, 0xff, 0x7f, 0x06, 0x00, 0x00, 0x00, 0x00, 0x00, 0x00, 
0x00, 0x00, 0xf0, 0xff, 0xff, 0x3f, 0x00, 0x00, 0x10, 0x00, 0x00, 0x00, 
0x00, 0x00, 0xf0, 0xff, 0xff, 0x1f, 0x02, 0x80, 0x40, 0x00, 0x00, 0x00, 
0x00, 0x00, 0xf0, 0xff, 0xff, 0x3f, 0x02, 0x04, 0x18, 0x01, 0x00, 0x00, 
0x00, 0x00, 0xe0, 0xff, 0xff, 0x3f, 0x02, 0x04, 0x58, 0x00, 0x00, 0x00, 
0x00, 0x00, 0xe0, 0xff, 0xff, 0x7f, 0x39, 0x00, 0x8e, 0x04, 0x00, 0x00, 
0x00, 0x00, 0xe0, 0xff, 0xff, 0xff, 0x00, 0x00, 0x02, 0x01, 0x00, 0x00, 
0x00, 0x00, 0xe0, 0xff, 0xff, 0xff, 0x03, 0x40, 0x01, 0x00, 0x00, 0x00, 
0x00, 0x00, 0xc0, 0xff, 0xff, 0xff, 0x1f, 0x00, 0x00, 0x20, 0x00, 0x00, 
0x00, 0x00, 0x80, 0xff, 0xff, 0xff, 0x8f, 0x08, 0x00, 0x04, 0x00, 0x00, 
0x00, 0x00, 0x80, 0xff, 0xff, 0xff, 0x1f, 0x05, 0x28, 0x00, 0x00, 0x00, 
0x00, 0x00, 0x00, 0xff, 0xff, 0xff, 0x3b, 0x01, 0x80, 0x80, 0x00, 0x00, 
0x00, 0x00, 0x00, 0xfe, 0xff, 0xff, 0xbf, 0x02, 0x20, 0x00, 0x00, 0x00, 
0x00, 0x00, 0x00, 0xfe, 0xff, 0xff, 0x6f, 0x14, 0x18, 0x01, 0x00, 0x00, 
0x00, 0x00, 0x00, 0xfe, 0xff, 0xff, 0x7f, 0x04, 0x28, 0x00, 0x00, 0x00, 
0x00, 0x00, 0x00, 0xfe, 0xff, 0xff, 0x1f, 0x18, 0x07, 0x40, 0x00, 0x00, 
0x00, 0x00, 0x00, 0xfa, 0xff, 0xff, 0x2f, 0x02, 0x02, 0x00, 0x00, 0x00, 
0x00, 0x00, 0x00, 0xfc, 0xff, 0xff, 0x07, 0x81, 0x01, 0x00, 0x00, 0x00, 
0x00, 0x00, 0x00, 0xd8, 0xff, 0xff, 0x83, 0x80, 0x00, 0x40, 0x0c, 0x00, 
0x00, 0x00, 0x00, 0xf8, 0xff, 0xff, 0x01, 0x59, 0x00, 0x00, 0x06, 0x00, 
0x00, 0x00, 0x00, 0x60, 0xff, 0xff, 0x10, 0x31, 0x00, 0x00, 0x03, 0x00, 
0x00, 0x00, 0x00, 0x80, 0xff, 0x7f, 0xa0, 0xf8, 0x00, 0xa0, 0x00, 0x00, 
0x00, 0x00, 0x00, 0xc0, 0xff, 0xbf, 0x02, 0xf8, 0x07, 0x00, 0x00, 0x00, 
0x00, 0x00, 0x00, 0x50, 0xfd, 0x5f, 0x00, 0xf8, 0x03, 0x00, 0x00, 0x00, 
0x00, 0x00, 0x00, 0x08, 0xfe, 0x1f, 0x04, 0xfe, 0x07, 0x00, 0x00, 0x00, 
0x00, 0x00, 0x00, 0x4a, 0xec, 0x83, 0x01, 0xfe, 0xce, 0x00, 0x00, 0x00, 
0x00, 0x00, 0x80, 0x01, 0xfc, 0x29, 0x20, 0xff, 0x2f, 0x10, 0x00, 0x00, 
0x00, 0x00, 0xc0, 0x00, 0xb0, 0x05, 0x80, 0xff, 0x1b, 0x00, 0x00, 0x00, 
0x00, 0x00, 0x40, 0x80, 0xc0, 0x01, 0x81, 0xff, 0x3f, 0x08, 0x00, 0x00, 
0x00, 0x00, 0x00, 0x00, 0x81, 0xe5, 0xc0, 0xff, 0x3f, 0x00, 0x00, 0x00, 
0x00, 0x00, 0x00, 0x00, 0xc1, 0x10, 0xf0, 0xff, 0x7f, 0x00, 0x00, 0x00, 
0x00, 0x00, 0x00, 0x40, 0x20, 0x18, 0xfa, 0xff, 0xff, 0x00, 0x00, 0x00, 
0x00, 0x00, 0x00, 0x80, 0x10, 0x20, 0xfe, 0xff, 0xff, 0x01, 0x00, 0x00, 
0x00, 0x00, 0x00, 0x80, 0x10, 0xc0, 0xff, 0xff, 0xff, 0x01, 0x00, 0x00, 
0x00, 0x00, 0x00, 0x00, 0x08, 0xc0, 0xff, 0xff, 0xff, 0x01, 0x00, 0x00, 
0x00, 0x00, 0x00, 0x80, 0x04, 0xe4, 0xff, 0xff, 0xff, 0x03, 0x00, 0x00, 
0x00, 0x00, 0x00, 0x00, 0x00, 0xf0, 0xff, 0xff, 0xff, 0x03, 0x00, 0x00, 
0x00, 0x00, 0x00, 0x00, 0x00, 0x50, 0xff, 0xff, 0xff, 0x07, 0x00, 0x00, 
0x00, 0x00, 0x00, 0x00, 0x03, 0x8e, 0xff, 0xff, 0xff, 0x07, 0x00, 0x00, 
0x00, 0x00, 0x00, 0x00, 0x01, 0x02, 0xfb, 0xff, 0xff, 0x07, 0x00, 0x00, 
0x00, 0x00, 0x00, 0xc0, 0xa0, 0x01, 0xff, 0xff, 0xff, 0x07, 0x00, 0x00, 
0x00, 0x00, 0x00, 0xc0, 0xa4, 0x02, 0xec, 0xff, 0xff, 0x07, 0x00, 0x00, 
0x00, 0x00, 0x00, 0x40, 0x40, 0x01, 0xf0, 0xff, 0xff, 0x07, 0x00, 0x00, 
0x00, 0x00, 0x00, 0x20, 0x30, 0x00, 0xf8, 0xff, 0xff, 0x03, 0x00, 0x00, 
0x00, 0x00, 0x00, 0x00, 0x00, 0x00, 0x08, 0xff, 0xff, 0x03, 0x00, 0x00, 
0x00, 0x00, 0x00, 0x00, 0x00, 0x91, 0x01, 0xff, 0xff, 0x03, 0x00, 0x00, 
0x00, 0x00, 0x00, 0x00, 0x00, 0x26, 0x24, 0xfc, 0xff, 0x01, 0x00, 0x00, 
0x00, 0x00, 0x00, 0x00, 0x00, 0x40, 0x02, 0xf0, 0xff, 0x00, 0x00, 0x00, 
0x00, 0x00, 0x00, 0x00, 0x00, 0x00, 0x00, 0xc0, 0x3f, 0x00, 0x00, 0x00, 
0x00, 0x00, 0x00, 0x00, 0x00, 0x00, 0x00, 0x00, 0x1f, 0x00, 0x00, 0x00, 
0x00, 0x00, 0x00, 0x00, 0x00, 0x00, 0x00, 0x00, 0x00, 0x00, 0x00, 0x00, 
0x00, 0x00, 0x00, 0x00, 0x00, 0x00, 0x00, 0x00, 0x00, 0x00, 0x00, 0x00, 
0x00, 0x00, 0x00, 0x00, 0x00, 0x00, 0x00, 0x00, 0x00, 0x00, 0x00, 0x00, 
0x00, 0x00, 0x00, 0x00, 0x00, 0x00, 0x00, 0x00, 0x00, 0x00, 0x00, 0x00, 
0x00, 0x00, 0x00, 0x00, 0x00, 0x40, 0x00, 0x00, 0x00, 0x00, 0x00, 0x00, 
0x00, 0x00, 0x00, 0x00, 0x00, 0x40, 0x00, 0x00, 0x00, 0x00, 0x00, 0x00, 
0x00, 0x00, 0x00, 0x00, 0x00, 0x60, 0x00, 0x00, 0x00, 0x00, 0x00, 0x00, 
0x00, 0x00, 0x00, 0x00, 0x00, 0x30, 0x00, 0x00, 0x00, 0x00, 0x00, 0x00, 
0x00, 0x00, 0x00, 0x00, 0x00, 0x10, 0x00, 0x00, 0x00, 0x00, 0x00, 0x00, 
0x00, 0x00, 0x00, 0x00, 0x00, 0x00, 0x00, 0x00, 0x00, 0x00, 0x00, 0x00, 
0x00, 0x00, 0x00, 0x00, 0x00, 0x00, 0x00, 0x00, 0x00, 0x00, 0x00, 0x00, 
0x00, 0x00, 0x00, 0x00, 0x00, 0x00, 0x00, 0x00, 0x00, 0x00, 0x00, 0x00, 
0x00, 0x00, 0x00, 0x00, 0x00, 0x00, 0x00, 0x00, 0x00, 0x00, 0x00, 0x00, 
0x00, 0x00, 0x00, 0x00, 0x00, 0x00, 0x00, 0x00, 0x00, 0x00, 0x00, 0x00};