#define x_width 30
#define x_height 30
static char x_bits[] = {
0x00, 0x00, 0x00, 0x00, 0x00, 0x00, 0x00, 0x00, 0x00, 0x00, 0x00, 0x00, 
0x00, 0x00, 0x00, 0x00, 0x00, 0x00, 0x00, 0x00, 0x00, 0xf0, 0x0f, 0x00, 
0x00, 0xfc, 0x1f, 0x00, 0x80, 0xff, 0x3f, 0x00, 0xb0, 0xff, 0x7f, 0x00, 
0xf0, 0xff, 0x7f, 0x00, 0xc0, 0xff, 0x7f, 0x00, 0x80, 0xf3, 0x7f, 0x00, 
0x00, 0xf6, 0x7f, 0x00, 0x00, 0xfc, 0x7f, 0x00, 0x00, 0xf8, 0x7b, 0x00, 
0x00, 0xf0, 0x3b, 0x00, 0x00, 0xe0, 0x39, 0x00, 0x00, 0x80, 0x3b, 0x00, 
0x00, 0x00, 0x3f, 0x00, 0x00, 0x00, 0x1c, 0x00, 0x00, 0x00, 0x78, 0x00, 
0x00, 0x00, 0xe0, 0x00, 0x00, 0x00, 0x80, 0x01, 0x00, 0x00, 0x00, 0x01, 
0x00, 0x00, 0x00, 0x00, 0x00, 0x00, 0x00, 0x00, 0x00, 0x00, 0x00, 0x00, 
0x00, 0x00, 0x00, 0x00, 0x00, 0x00, 0x00, 0x00, 0x00, 0x00, 0x00, 0x00};