#define x_width 30
#define x_height 30
static char x_bits[] = {
0x00, 0x00, 0x00, 0x00, 0x00, 0x00, 0x00, 0x00, 0x00, 0x00, 0x00, 0x00, 
0xc0, 0x01, 0x00, 0x00, 0x00, 0x01, 0x00, 0x00, 0x10, 0x00, 0x00, 0x00, 
0x60, 0x0a, 0x80, 0x00, 0x00, 0x00, 0x0b, 0x02, 0xc0, 0x17, 0x14, 0x05, 
0x00, 0x09, 0x08, 0x01, 0xc0, 0xc1, 0xa8, 0x0a, 0xd0, 0x00, 0xf1, 0x00, 
0x30, 0xa3, 0xf9, 0x00, 0x70, 0x42, 0x41, 0x00, 0x00, 0x00, 0x03, 0x00, 
0x00, 0x40, 0x02, 0x00, 0x00, 0xe0, 0x01, 0x00, 0x00, 0xc1, 0x00, 0x00, 
0x00, 0x00, 0x00, 0x00, 0x80, 0x01, 0x00, 0x00, 0x40, 0x08, 0x00, 0x00, 
0x40, 0x21, 0x40, 0x00, 0x40, 0x04, 0x20, 0x04, 0x80, 0x28, 0x00, 0x02, 
0x40, 0x0a, 0x40, 0x03, 0x80, 0x0e, 0xe0, 0x06, 0x00, 0x1b, 0xc0, 0x06, 
0x40, 0x01, 0x00, 0x00, 0x00, 0x00, 0x00, 0x00, 0x00, 0x00, 0x00, 0x00};