#define x_width 30
#define x_height 30
static char x_bits[] = {
0x00, 0x00, 0x00, 0x00, 0x00, 0x00, 0x00, 0x00, 0x00, 0x00, 0x00, 0x00, 
0x00, 0x00, 0x00, 0x00, 0x00, 0x00, 0x00, 0x00, 0x00, 0x00, 0x00, 0x00, 
0x00, 0x00, 0x00, 0x00, 0x00, 0x00, 0x00, 0x00, 0x00, 0xc0, 0x00, 0x00, 
0x00, 0xf0, 0x03, 0x00, 0x00, 0xf8, 0x07, 0x00, 0x00, 0xfc, 0x0f, 0x00, 
0x00, 0xfc, 0x0f, 0x00, 0x00, 0xfe, 0x1f, 0x00, 0x00, 0xfe, 0x1f, 0x00, 
0x00, 0xfe, 0x1f, 0x00, 0x00, 0xfc, 0x0f, 0x00, 0x00, 0xfc, 0x0f, 0x00, 
0x00, 0xf8, 0x07, 0x00, 0x00, 0xf0, 0x03, 0x00, 0x00, 0xc0, 0x00, 0x00, 
0x00, 0x00, 0x00, 0x00, 0x00, 0x00, 0x00, 0x00, 0x00, 0x00, 0x00, 0x00, 
0x00, 0x00, 0x00, 0x00, 0x00, 0x00, 0x00, 0x00, 0x00, 0x00, 0x00, 0x00, 
0x00, 0x00, 0x00, 0x00, 0x00, 0x00, 0x00, 0x00, 0x00, 0x00, 0x00, 0x00};