#define x_width 30
#define x_height 30
static char x_bits[] = {
0x00, 0x00, 0x00, 0x00, 0x00, 0x00, 0x00, 0x00, 0x00, 0x00, 0x30, 0x00, 
0x00, 0x00, 0x18, 0x00, 0x00, 0x00, 0x1c, 0x00, 0x00, 0x80, 0x3f, 0x00, 
0x00, 0x80, 0xff, 0x00, 0x00, 0x80, 0xfd, 0x01, 0x00, 0xc0, 0xf8, 0x03, 
0x00, 0x60, 0xf0, 0x07, 0x00, 0x30, 0xf0, 0x07, 0x00, 0x10, 0xfe, 0x07, 
0x00, 0x00, 0xff, 0x07, 0x00, 0x00, 0xff, 0x07, 0x00, 0x00, 0xff, 0x07, 
0x00, 0x00, 0xff, 0x07, 0x00, 0x00, 0xfe, 0x03, 0x00, 0x00, 0xf8, 0x01, 
0x00, 0x00, 0xfe, 0x01, 0x00, 0xc0, 0xff, 0x00, 0x00, 0xe8, 0x3f, 0x00, 
0x00, 0xf0, 0x07, 0x00, 0x00, 0x7e, 0x00, 0x00, 0xc0, 0x1f, 0x00, 0x00, 
0xe0, 0x17, 0x00, 0x00, 0x20, 0x00, 0x00, 0x00, 0x00, 0x00, 0x00, 0x00, 
0x00, 0x00, 0x00, 0x00, 0x00, 0x00, 0x00, 0x00, 0x00, 0x00, 0x00, 0x00};