#define x_width 90
#define x_height 90
static char x_bits[] = {
0x00, 0x00, 0x00, 0x00, 0x00, 0xfc, 0x01, 0x00, 0x00, 0x00, 0x00, 0x00, 
0x00, 0x00, 0x00, 0x00, 0x00, 0xfe, 0x03, 0x00, 0x00, 0x00, 0x00, 0x00, 
0x00, 0x00, 0x00, 0x00, 0x00, 0xfe, 0x03, 0x00, 0x00, 0x00, 0x00, 0x00, 
0x00, 0x00, 0x00, 0x00, 0x00, 0xff, 0x07, 0x00, 0x00, 0x00, 0x00, 0x00, 
0x00, 0x00, 0x00, 0x00, 0x00, 0xff, 0x07, 0x00, 0x00, 0x00, 0x00, 0x00, 
0x00, 0x00, 0x00, 0x00, 0x80, 0xff, 0x0f, 0x00, 0x00, 0x00, 0x00, 0x00, 
0x00, 0x00, 0x00, 0x00, 0x80, 0xff, 0x0f, 0x00, 0x00, 0x00, 0x00, 0x00, 
0x00, 0x00, 0x00, 0x00, 0xc0, 0xff, 0x1f, 0x00, 0x00, 0x00, 0x00, 0x00, 
0x00, 0x00, 0x00, 0x00, 0xc0, 0xff, 0x1f, 0x00, 0x00, 0x00, 0x00, 0x00, 
0x00, 0x00, 0x00, 0x00, 0xc0, 0xff, 0x1f, 0x00, 0x00, 0x00, 0x00, 0x00, 
0x00, 0x00, 0x00, 0x00, 0xe0, 0xff, 0x3f, 0x00, 0x00, 0x00, 0x00, 0x00, 
0x00, 0x00, 0x00, 0x00, 0xf0, 0xff, 0x3f, 0x00, 0x00, 0x00, 0x00, 0x00, 
0x00, 0x00, 0x00, 0x00, 0xf0, 0xff, 0x7f, 0x00, 0x00, 0x00, 0x00, 0x00, 
0x00, 0x00, 0x00, 0x00, 0xf8, 0xff, 0x7f, 0x00, 0x00, 0x00, 0x00, 0x00, 
0x00, 0x00, 0x00, 0x00, 0xf8, 0xff, 0xff, 0x00, 0x00, 0x00, 0x00, 0x00, 
0x00, 0x00, 0x00, 0x00, 0xfc, 0xff, 0xff, 0x00, 0x00, 0x00, 0x00, 0x00, 
0x00, 0x00, 0x00, 0x00, 0xfc, 0xff, 0xff, 0x00, 0x00, 0x00, 0x00, 0x00, 
0x00, 0x00, 0x00, 0x00, 0xfc, 0xff, 0xff, 0x01, 0x00, 0x00, 0x00, 0x00, 
0x00, 0x00, 0x00, 0x00, 0xfe, 0xff, 0xff, 0x01, 0x00, 0x00, 0x00, 0x00, 
0x00, 0x00, 0x00, 0x00, 0xfe, 0xff, 0xff, 0x01, 0x00, 0x00, 0x00, 0x00, 
0x00, 0x00, 0x00, 0x00, 0xfe, 0xff, 0xff, 0x01, 0x00, 0x00, 0x00, 0x00, 
0x00, 0x00, 0x00, 0x00, 0xfe, 0xff, 0xff, 0x03, 0x00, 0x00, 0x00, 0x00, 
0x00, 0x00, 0x00, 0x00, 0xfe, 0xff, 0xff, 0x03, 0x00, 0x00, 0x00, 0x00, 
0x00, 0x00, 0x00, 0x80, 0xff, 0xff, 0xff, 0x0f, 0x00, 0x00, 0x00, 0x00, 
0x00, 0x00, 0x00, 0x78, 0xfe, 0xff, 0xff, 0xf3, 0x00, 0x00, 0x00, 0x00, 
0x00, 0x00, 0x80, 0x07, 0xfe, 0xff, 0xff, 0x03, 0x0f, 0x00, 0x00, 0x00, 
0x00, 0x80, 0x70, 0x00, 0xfe, 0xff, 0xff, 0x03, 0x70, 0x0c, 0x00, 0x00, 
0x00, 0x20, 0x0f, 0x00, 0xfe, 0xff, 0xff, 0x03, 0x80, 0x17, 0x00, 0x00, 
0x00, 0xd0, 0x07, 0x00, 0xfe, 0xff, 0xff, 0x03, 0x00, 0x5f, 0x00, 0x00, 
0x00, 0xd0, 0x01, 0x00, 0xfe, 0xff, 0xff, 0x03, 0x00, 0x1c, 0x00, 0x00, 
0x00, 0x00, 0x02, 0x00, 0xfe, 0xff, 0xff, 0x03, 0x00, 0x44, 0x00, 0x00, 
0x00, 0xa0, 0x00, 0x00, 0xfe, 0xff, 0xff, 0x03, 0x00, 0x10, 0x00, 0x00, 
0x00, 0x00, 0x00, 0x00, 0xfe, 0xff, 0xff, 0x03, 0x00, 0x00, 0x00, 0x00, 
0x00, 0x00, 0x00, 0x00, 0xfe, 0xff, 0xff, 0x03, 0x00, 0x00, 0x00, 0x00, 
0x00, 0x00, 0x00, 0x80, 0xff, 0xff, 0xff, 0x0f, 0x00, 0x00, 0x00, 0x00, 
0x00, 0x00, 0x00, 0x78, 0xfe, 0xff, 0xff, 0xf3, 0x00, 0x00, 0x00, 0x00, 
0x00, 0x00, 0x80, 0x07, 0xfe, 0xff, 0xff, 0x03, 0x0f, 0x0c, 0x00, 0x00, 
0x00, 0x40, 0x70, 0x00, 0xfe, 0xff, 0xff, 0x03, 0x70, 0x00, 0x00, 0x00, 
0x00, 0x20, 0x0f, 0x00, 0xfe, 0xff, 0xff, 0x03, 0x80, 0x07, 0x00, 0x00, 
0x00, 0xc8, 0x07, 0x00, 0xfe, 0xff, 0xff, 0x03, 0x00, 0x3f, 0x00, 0x00, 
0x00, 0xc8, 0x01, 0x00, 0xfe, 0xff, 0xff, 0x03, 0x00, 0x5c, 0x00, 0x00, 
0x00, 0x00, 0x02, 0x00, 0xfe, 0xff, 0xff, 0x03, 0x00, 0x02, 0x00, 0x00, 
0x00, 0x00, 0x00, 0x00, 0xfe, 0xff, 0xff, 0x03, 0x00, 0x08, 0x00, 0x00, 
0x00, 0x40, 0x01, 0x00, 0xfe, 0xff, 0xff, 0x03, 0x00, 0x20, 0x00, 0x00, 
0x00, 0x00, 0x00, 0x00, 0xfe, 0xff, 0xff, 0x03, 0x00, 0x00, 0x00, 0x00, 
0x00, 0x00, 0x00, 0x80, 0xff, 0xff, 0xff, 0x0f, 0x00, 0x00, 0x00, 0x00, 
0x00, 0x00, 0x00, 0x78, 0xfe, 0xff, 0xff, 0xf3, 0x00, 0x00, 0x00, 0x00, 
0x00, 0x00, 0x80, 0x07, 0xfe, 0xff, 0xff, 0x03, 0x0f, 0x04, 0x00, 0x00, 
0x00, 0xc0, 0x70, 0x00, 0xfe, 0xff, 0xff, 0x03, 0x70, 0x30, 0x00, 0x00, 
0x00, 0x00, 0x0f, 0x00, 0xfe, 0xff, 0xff, 0x03, 0x80, 0x07, 0x00, 0x00, 
0x00, 0xd0, 0x07, 0x00, 0xfe, 0xff, 0xff, 0x03, 0x00, 0x1f, 0x00, 0x00, 
0x00, 0xc0, 0x01, 0x00, 0xfe, 0xff, 0xff, 0x03, 0x00, 0x1c, 0x00, 0x00, 
0x00, 0x00, 0x01, 0x00, 0xfe, 0xff, 0xff, 0x03, 0x00, 0x00, 0x00, 0x00, 
0x00, 0x20, 0x01, 0x00, 0xfe, 0xff, 0xff, 0x03, 0x00, 0x42, 0x00, 0x00, 
0x00, 0x00, 0x00, 0x00, 0xfe, 0xff, 0xff, 0x03, 0x00, 0x20, 0x00, 0x00, 
0x00, 0x00, 0x00, 0x00, 0xfe, 0xff, 0xff, 0x03, 0x00, 0x00, 0x00, 0x00, 
0x00, 0x00, 0x00, 0x80, 0xff, 0xff, 0xff, 0x0f, 0x00, 0x00, 0x00, 0x00, 
0x00, 0x00, 0x00, 0x78, 0xfe, 0xff, 0xff, 0xf3, 0x00, 0x00, 0x00, 0x00, 
0x00, 0x20, 0x80, 0x07, 0xfe, 0xff, 0xff, 0x03, 0x0f, 0x00, 0x00, 0x00, 
0x00, 0x10, 0x70, 0x00, 0xfe, 0xff, 0xff, 0x03, 0x70, 0x18, 0x00, 0x00, 
0x00, 0x00, 0x0f, 0x00, 0xfe, 0xff, 0xff, 0x03, 0x80, 0x47, 0x00, 0x00, 
0x00, 0xc0, 0x07, 0x00, 0xfe, 0xff, 0xff, 0x03, 0x00, 0x1f, 0x00, 0x00, 
0x00, 0xc4, 0x03, 0x00, 0xfe, 0xff, 0xff, 0x03, 0x00, 0x5c, 0x00, 0x00, 
0x00, 0x00, 0x00, 0x00, 0xfc, 0xff, 0xff, 0x01, 0x00, 0x44, 0x00, 0x00, 
0x00, 0x08, 0x02, 0x00, 0xfc, 0xff, 0xff, 0x01, 0x00, 0x00, 0x00, 0x00, 
0x00, 0x80, 0x00, 0x00, 0xfc, 0xff, 0xff, 0x01, 0x00, 0x10, 0x00, 0x00, 
0x00, 0x00, 0x00, 0x00, 0xf8, 0xff, 0xff, 0x00, 0x00, 0x00, 0x00, 0x00, 
0x00, 0x00, 0x00, 0x00, 0xf8, 0xff, 0xff, 0x00, 0x00, 0x00, 0x00, 0x00, 
0x00, 0x00, 0x00, 0x00, 0xf8, 0xff, 0xff, 0x00, 0x00, 0x00, 0x00, 0x00, 
0x00, 0x00, 0x00, 0x00, 0xf8, 0xff, 0xff, 0x00, 0x00, 0x00, 0x00, 0x00, 
0x00, 0x00, 0x00, 0x00, 0xf0, 0xff, 0x7f, 0x00, 0x00, 0x00, 0x00, 0x00, 
0x00, 0x00, 0x00, 0x00, 0xf0, 0xff, 0x7f, 0x00, 0x00, 0x00, 0x00, 0x00, 
0x00, 0x00, 0x00, 0x00, 0xf0, 0xff, 0x7f, 0x00, 0x00, 0x00, 0x00, 0x00, 
0x00, 0x00, 0x00, 0x00, 0xf0, 0xff, 0x7f, 0x00, 0x00, 0x00, 0x00, 0x00, 
0x00, 0x00, 0x00, 0x00, 0xe0, 0xff, 0x3f, 0x00, 0x00, 0x00, 0x00, 0x00, 
0x00, 0x00, 0x00, 0x00, 0xe0, 0xff, 0x3f, 0x00, 0x00, 0x00, 0x00, 0x00, 
0x00, 0x00, 0x00, 0x00, 0xe0, 0xff, 0x3f, 0x00, 0x00, 0x00, 0x00, 0x00, 
0x00, 0x00, 0x00, 0x00, 0xc0, 0xff, 0x1f, 0x00, 0x00, 0x00, 0x00, 0x00, 
0x00, 0x00, 0x00, 0x00, 0xc0, 0xff, 0x1f, 0x00, 0x00, 0x00, 0x00, 0x00, 
0x00, 0x00, 0x00, 0x00, 0xc0, 0xff, 0x1f, 0x00, 0x00, 0x00, 0x00, 0x00, 
0x00, 0x00, 0x00, 0x00, 0x80, 0xff, 0x0f, 0x00, 0x00, 0x00, 0x00, 0x00, 
0x00, 0x00, 0x00, 0x00, 0x80, 0xff, 0x0f, 0x00, 0x00, 0x00, 0x00, 0x00, 
0x00, 0x00, 0x00, 0x00, 0x00, 0xff, 0x07, 0x00, 0x00, 0x00, 0x00, 0x00, 
0x00, 0x00, 0x00, 0x00, 0x00, 0xff, 0x07, 0x00, 0x00, 0x00, 0x00, 0x00, 
0x00, 0x00, 0x00, 0x00, 0x00, 0xfe, 0x03, 0x00, 0x00, 0x00, 0x00, 0x00, 
0x00, 0x00, 0x00, 0x00, 0x00, 0xfe, 0x03, 0x00, 0x00, 0x00, 0x00, 0x00, 
0x00, 0x00, 0x00, 0x00, 0x00, 0xfc, 0x01, 0x00, 0x00, 0x00, 0x00, 0x00, 
0x00, 0x00, 0x00, 0x00, 0x00, 0xf8, 0x00, 0x00, 0x00, 0x00, 0x00, 0x00, 
0x00, 0x00, 0x00, 0x00, 0x00, 0xf8, 0x00, 0x00, 0x00, 0x00, 0x00, 0x00, 
0x00, 0x00, 0x00, 0x00, 0x00, 0x00, 0x00, 0x00, 0x00, 0x00, 0x00, 0x00};