#define x_width 90
#define x_height 90
static char x_bits[] = {
0x00, 0x00, 0x00, 0x00, 0x00, 0x00, 0x00, 0x00, 0x00, 0x00, 0x00, 0x00, 
0x00, 0x00, 0x00, 0x00, 0x00, 0x00, 0x00, 0x00, 0x00, 0x00, 0x00, 0x00, 
0x00, 0x00, 0x00, 0x00, 0x00, 0x00, 0x00, 0x00, 0x00, 0x00, 0x00, 0x00, 
0x00, 0x00, 0x00, 0x00, 0x00, 0x00, 0x00, 0x00, 0x00, 0x00, 0x00, 0x00, 
0x00, 0x00, 0x00, 0x00, 0x00, 0x00, 0x00, 0x00, 0x00, 0x00, 0x00, 0x00, 
0x00, 0x00, 0x00, 0x00, 0x00, 0x20, 0x00, 0x00, 0x00, 0x00, 0x00, 0x00, 
0x00, 0x00, 0x00, 0x00, 0x00, 0x30, 0x00, 0x00, 0x00, 0x00, 0x00, 0x00, 
0x00, 0x00, 0x00, 0x00, 0x00, 0x18, 0x00, 0x00, 0x00, 0x00, 0x00, 0x00, 
0x00, 0x00, 0x00, 0x00, 0x00, 0x08, 0x00, 0x00, 0x00, 0x00, 0x00, 0x00, 
0x00, 0x00, 0x00, 0x00, 0x00, 0x08, 0x00, 0x00, 0x00, 0x00, 0x00, 0x00, 
0x00, 0x00, 0x00, 0x00, 0x00, 0x00, 0x00, 0x00, 0x00, 0x00, 0x00, 0x00, 
0x00, 0x00, 0x00, 0x00, 0x00, 0x00, 0x00, 0x00, 0x00, 0x00, 0x00, 0x00, 
0x00, 0x00, 0x00, 0x00, 0x00, 0x00, 0x00, 0x00, 0x00, 0x00, 0x00, 0x00, 
0x00, 0x00, 0x00, 0x00, 0x00, 0x00, 0x00, 0x00, 0x00, 0x00, 0x00, 0x00, 
0x00, 0x00, 0xe0, 0x03, 0x00, 0x00, 0x00, 0x00, 0x00, 0x00, 0x00, 0x00, 
0x00, 0x00, 0xf0, 0x0f, 0x00, 0x00, 0x00, 0x00, 0x00, 0x00, 0x00, 0x00, 
0x00, 0x00, 0xfc, 0x3f, 0x00, 0x09, 0x00, 0x00, 0x00, 0x00, 0x00, 0x00, 
0x00, 0x00, 0xfe, 0xff, 0x90, 0x90, 0x01, 0x00, 0x00, 0x00, 0x00, 0x00, 
0x00, 0x00, 0xff, 0xff, 0x03, 0x26, 0x02, 0x00, 0x00, 0x00, 0x00, 0x00, 
0x00, 0x00, 0xff, 0xff, 0x43, 0x00, 0x00, 0x00, 0x00, 0x00, 0x00, 0x00, 
0x00, 0x00, 0xff, 0xff, 0x7f, 0x00, 0x30, 0x10, 0x00, 0x00, 0x00, 0x00, 
0x00, 0x80, 0xff, 0xff, 0x3f, 0x00, 0x0a, 0x08, 0x00, 0x00, 0x00, 0x00, 
0x00, 0x80, 0xff, 0xff, 0xdf, 0x00, 0x95, 0x0c, 0x00, 0x00, 0x00, 0x00, 
0x00, 0x80, 0xff, 0xff, 0xff, 0x03, 0x16, 0x0c, 0x00, 0x00, 0x00, 0x00, 
0x00, 0x80, 0xff, 0xff, 0x7f, 0x03, 0x01, 0x02, 0x00, 0x00, 0x00, 0x00, 
0x00, 0x80, 0xff, 0xff, 0xff, 0xc7, 0x01, 0x03, 0x00, 0x00, 0x00, 0x00, 
0x00, 0x80, 0xff, 0xff, 0xff, 0x2b, 0x00, 0x00, 0x00, 0x00, 0x00, 0x00, 
0x00, 0x00, 0xff, 0xff, 0xff, 0x3f, 0x00, 0x00, 0x00, 0x00, 0x00, 0x00, 
0x00, 0x00, 0xff, 0xff, 0xff, 0x9f, 0x80, 0x04, 0x00, 0x00, 0x00, 0x00, 
0x00, 0x00, 0xfe, 0xff, 0xff, 0x0f, 0x40, 0x00, 0x00, 0x00, 0x00, 0x00, 
0x00, 0x00, 0xfe, 0xff, 0xff, 0x0f, 0x20, 0x04, 0x00, 0x00, 0x00, 0x00, 
0x00, 0x00, 0xfe, 0xff, 0xff, 0x11, 0x20, 0x04, 0x00, 0x00, 0x00, 0x00, 
0x00, 0x00, 0xfc, 0xff, 0x7f, 0x61, 0x10, 0x08, 0x00, 0x00, 0x00, 0x00, 
0x00, 0x00, 0xf8, 0xff, 0x3f, 0x20, 0x0c, 0x02, 0x00, 0x00, 0x00, 0x00, 
0x00, 0x00, 0xf0, 0xff, 0x0f, 0x9c, 0x06, 0x02, 0x00, 0x00, 0x00, 0x00, 
0x00, 0x40, 0xf0, 0xff, 0x07, 0x02, 0x0e, 0x04, 0x08, 0x00, 0x00, 0x00, 
0x00, 0x00, 0x60, 0xff, 0x07, 0x80, 0x36, 0x00, 0x0c, 0x00, 0x00, 0x00, 
0x00, 0x20, 0xd0, 0xff, 0x13, 0x50, 0xfe, 0x00, 0x06, 0x00, 0x00, 0x00, 
0x00, 0x00, 0xcc, 0xfd, 0x01, 0x06, 0xdf, 0x48, 0x01, 0x00, 0x00, 0x00, 
0x00, 0x00, 0x80, 0xff, 0x81, 0xe0, 0xff, 0x41, 0x00, 0x00, 0x00, 0x00, 
0x00, 0x00, 0x00, 0x7f, 0x00, 0xe8, 0xff, 0x2a, 0x00, 0x00, 0x00, 0x00, 
0x00, 0x00, 0x80, 0x7f, 0x00, 0xf5, 0xff, 0x0f, 0x00, 0x00, 0x00, 0x00, 
0x00, 0x14, 0x00, 0x7c, 0x14, 0xf8, 0xff, 0x07, 0x00, 0x00, 0x00, 0x00, 
0x00, 0x03, 0x00, 0x30, 0x22, 0xfc, 0xff, 0x1b, 0x00, 0x00, 0x00, 0x00, 
0x80, 0x01, 0x00, 0x68, 0x02, 0xfe, 0xff, 0x7f, 0x00, 0x00, 0x00, 0x00, 
0xc0, 0x08, 0x00, 0x04, 0x04, 0xff, 0xff, 0x6f, 0x00, 0x00, 0x00, 0x00, 
0x00, 0x00, 0x00, 0x06, 0x82, 0xff, 0xff, 0xff, 0x00, 0x00, 0x00, 0x00, 
0x00, 0x00, 0x00, 0x01, 0xd1, 0xff, 0xff, 0x7f, 0x01, 0x00, 0x00, 0x00, 
0x00, 0x08, 0x80, 0x63, 0xe0, 0xff, 0xff, 0xff, 0x01, 0x00, 0x00, 0x00, 
0x00, 0x00, 0x50, 0x80, 0xf8, 0xff, 0xff, 0xff, 0x01, 0x00, 0x00, 0x00, 
0x00, 0x00, 0x62, 0xa0, 0xd8, 0xff, 0xff, 0xff, 0x01, 0x00, 0x00, 0x00, 
0x00, 0x00, 0x10, 0x00, 0xf5, 0xff, 0xff, 0xff, 0x01, 0x00, 0x00, 0x00, 
0x00, 0x04, 0x04, 0x00, 0x72, 0xff, 0xff, 0xff, 0x03, 0x00, 0x00, 0x00, 
0x00, 0x00, 0x50, 0x80, 0xe2, 0xff, 0xff, 0xff, 0x07, 0x00, 0x00, 0x00, 
0x00, 0x80, 0x00, 0x40, 0xc4, 0xff, 0xff, 0xff, 0x07, 0x00, 0x00, 0x00, 
0x00, 0x10, 0x00, 0x00, 0xe0, 0xff, 0xff, 0xff, 0x0f, 0x00, 0x00, 0x00, 
0x00, 0x00, 0x00, 0x0a, 0x00, 0xff, 0xff, 0xff, 0x1f, 0x00, 0x00, 0x00, 
0x00, 0x00, 0x02, 0x01, 0x00, 0xfc, 0xff, 0xff, 0x1f, 0x00, 0x00, 0x00, 
0x00, 0x80, 0xc4, 0x01, 0x70, 0xfa, 0xff, 0xff, 0x1f, 0x00, 0x00, 0x00, 
0x00, 0x00, 0x68, 0x80, 0x00, 0xf1, 0xff, 0xff, 0x1f, 0x00, 0x00, 0x00, 
0x00, 0x00, 0x62, 0x80, 0x00, 0xf1, 0xff, 0xff, 0x3f, 0x00, 0x00, 0x00, 
0x00, 0x00, 0x08, 0x04, 0x00, 0xe1, 0xff, 0xff, 0x3f, 0x00, 0x00, 0x00, 
0x00, 0x00, 0x20, 0x00, 0x00, 0xf0, 0xff, 0xff, 0x3f, 0x00, 0x00, 0x00, 
0x00, 0x00, 0x00, 0x00, 0x00, 0x80, 0xf9, 0xff, 0x7f, 0x00, 0x00, 0x00, 
0x00, 0x00, 0x00, 0x00, 0x00, 0x00, 0xf0, 0xff, 0x3f, 0x00, 0x00, 0x00, 
0x00, 0x00, 0x00, 0x00, 0x00, 0x00, 0xc0, 0xff, 0xff, 0x00, 0x00, 0x00, 
0x00, 0x00, 0x00, 0x00, 0x00, 0x00, 0x80, 0xff, 0xff, 0x00, 0x00, 0x00, 
0x00, 0x00, 0x00, 0x00, 0x00, 0x00, 0x00, 0xfe, 0xff, 0x00, 0x00, 0x00, 
0x00, 0x00, 0x00, 0x00, 0x00, 0x00, 0x00, 0xf8, 0xff, 0x01, 0x00, 0x00, 
0x00, 0x00, 0x00, 0x00, 0x00, 0x00, 0x00, 0xf0, 0xff, 0x01, 0x00, 0x00, 
0x00, 0x00, 0x00, 0x00, 0x00, 0x00, 0x00, 0x00, 0xff, 0x01, 0x00, 0x00, 
0x00, 0x00, 0x00, 0x00, 0x00, 0x00, 0x00, 0x00, 0xe0, 0x03, 0x00, 0x00, 
0x00, 0x00, 0x00, 0x00, 0x00, 0x00, 0x00, 0x00, 0x80, 0x01, 0x00, 0x00, 
0x00, 0x00, 0x00, 0x00, 0x00, 0x00, 0x00, 0x00, 0x00, 0x00, 0x00, 0x00, 
0x00, 0x00, 0x00, 0x00, 0x00, 0x00, 0x00, 0x00, 0x00, 0x00, 0x00, 0x00, 
0x00, 0x00, 0x00, 0x00, 0x00, 0x00, 0x00, 0x00, 0x00, 0x00, 0x00, 0x00, 
0x00, 0x00, 0x00, 0x00, 0x00, 0x00, 0x00, 0x00, 0x00, 0x00, 0x00, 0x00, 
0x00, 0x00, 0x00, 0x00, 0x00, 0x00, 0x00, 0x00, 0x00, 0x00, 0x00, 0x00, 
0x00, 0x00, 0x00, 0x00, 0x00, 0x00, 0x00, 0x00, 0x00, 0x00, 0x00, 0x00, 
0x00, 0x00, 0x00, 0x00, 0x00, 0x00, 0x00, 0x00, 0x00, 0x00, 0x00, 0x00, 
0x00, 0x00, 0x00, 0x00, 0x00, 0x00, 0x00, 0x00, 0x00, 0x00, 0x00, 0x00, 
0x00, 0x00, 0x00, 0x00, 0x00, 0x00, 0x00, 0x00, 0x00, 0x00, 0x00, 0x00, 
0x00, 0x00, 0x00, 0x00, 0x00, 0x00, 0x00, 0x00, 0x00, 0x00, 0x00, 0x00, 
0x00, 0x00, 0x00, 0x00, 0x00, 0x00, 0x00, 0x00, 0x00, 0x00, 0x00, 0x00, 
0x00, 0x00, 0x00, 0x00, 0x00, 0x00, 0x00, 0x00, 0x00, 0x00, 0x00, 0x00, 
0x00, 0x00, 0x00, 0x00, 0x00, 0x00, 0x00, 0x00, 0x00, 0x00, 0x00, 0x00, 
0x00, 0x00, 0x00, 0x00, 0x00, 0x00, 0x00, 0x00, 0x00, 0x00, 0x00, 0x00, 
0x00, 0x00, 0x00, 0x00, 0x00, 0x00, 0x00, 0x00, 0x00, 0x00, 0x00, 0x00, 
0x00, 0x00, 0x00, 0x00, 0x00, 0x00, 0x00, 0x00, 0x00, 0x00, 0x00, 0x00, 
0x00, 0x00, 0x00, 0x00, 0x00, 0x00, 0x00, 0x00, 0x00, 0x00, 0x00, 0x00};