#define x_width 30
#define x_height 30
static char x_bits[] = {
0x00, 0x00, 0x00, 0x00, 0x00, 0x00, 0x00, 0x00, 0x00, 0x00, 0x00, 0x00, 
0x00, 0x00, 0x7c, 0x00, 0x00, 0x00, 0xfe, 0x00, 0x00, 0xf0, 0xff, 0x00, 
0x00, 0xfc, 0xff, 0x00, 0x00, 0xfe, 0xff, 0x00, 0x00, 0xff, 0xff, 0x00, 
0x00, 0xff, 0x7f, 0x00, 0x00, 0xff, 0x7f, 0x00, 0x80, 0xff, 0x7f, 0x00, 
0x80, 0xf7, 0x7f, 0x00, 0x80, 0xf7, 0x7f, 0x00, 0x00, 0xf0, 0x7f, 0x00, 
0x00, 0xf0, 0x3f, 0x00, 0x00, 0xe0, 0x1d, 0x00, 0x00, 0x00, 0x00, 0x00, 
0x00, 0x00, 0x00, 0x00, 0x00, 0x00, 0x00, 0x00, 0x00, 0x00, 0x00, 0x00, 
0x00, 0x00, 0x00, 0x00, 0x00, 0x00, 0x00, 0x00, 0x00, 0x00, 0x00, 0x00, 
0x00, 0x00, 0x00, 0x00, 0x00, 0x00, 0x00, 0x00, 0x00, 0x00, 0x00, 0x00, 
0x00, 0x00, 0x00, 0x00, 0x00, 0x00, 0x00, 0x00, 0x00, 0x00, 0x00, 0x00};