#define x_width 90
#define x_height 90
static char x_bits[] = {
0x00, 0x00, 0x00, 0x00, 0x00, 0x00, 0x00, 0x00, 0x00, 0x00, 0x00, 0x00, 
0x00, 0x00, 0x00, 0x00, 0x00, 0x00, 0x00, 0x00, 0x00, 0x00, 0x00, 0x00, 
0x00, 0x00, 0x00, 0x00, 0x00, 0x00, 0x00, 0x00, 0x00, 0x00, 0x00, 0x00, 
0x00, 0x00, 0x00, 0x00, 0x00, 0x00, 0x00, 0x00, 0x00, 0x00, 0x00, 0x00, 
0x00, 0x00, 0x00, 0x00, 0x00, 0x00, 0x00, 0x00, 0x00, 0x00, 0x00, 0x00, 
0x00, 0x00, 0x00, 0x00, 0x00, 0x00, 0x00, 0x00, 0x00, 0x00, 0x00, 0x00, 
0x00, 0x00, 0x00, 0x00, 0x00, 0x00, 0x00, 0x00, 0x00, 0x00, 0x00, 0x00, 
0x00, 0x00, 0x00, 0x00, 0x00, 0x00, 0x00, 0x00, 0x00, 0x00, 0x00, 0x00, 
0x00, 0x00, 0x00, 0x00, 0x00, 0x00, 0x00, 0x00, 0x00, 0x00, 0x00, 0x00, 
0x00, 0x00, 0x00, 0x00, 0x00, 0x00, 0x00, 0x00, 0x00, 0x00, 0x00, 0x00, 
0x00, 0x00, 0x00, 0x00, 0x00, 0x00, 0x00, 0x00, 0x00, 0x00, 0x00, 0x00, 
0x00, 0x00, 0x00, 0x00, 0x00, 0x00, 0x00, 0x00, 0x00, 0x00, 0x00, 0x00, 
0x00, 0x00, 0x00, 0x00, 0x00, 0x00, 0x00, 0x00, 0x00, 0x00, 0x00, 0x00, 
0x00, 0x00, 0x00, 0x00, 0x00, 0x00, 0x00, 0x00, 0x00, 0x00, 0x00, 0x00, 
0x00, 0x00, 0x00, 0x00, 0x00, 0x00, 0x00, 0x00, 0x00, 0x00, 0x00, 0x00, 
0x00, 0x00, 0x00, 0x00, 0x00, 0x00, 0x02, 0x00, 0x00, 0x00, 0x00, 0x00, 
0x00, 0x00, 0x00, 0x00, 0x00, 0x00, 0x40, 0x00, 0x00, 0x00, 0x00, 0x00, 
0x00, 0x00, 0x06, 0x00, 0x00, 0x10, 0x00, 0x00, 0x00, 0x00, 0x00, 0x00, 
0x00, 0x00, 0x1f, 0x00, 0x00, 0x00, 0x00, 0x00, 0x00, 0x00, 0x00, 0x00, 
0x00, 0x00, 0xfe, 0x03, 0x00, 0x00, 0x00, 0x00, 0x00, 0x00, 0x00, 0x00, 
0x00, 0x00, 0xfe, 0x3f, 0x00, 0x00, 0x00, 0x40, 0x00, 0x00, 0x00, 0x00, 
0x00, 0x00, 0xfe, 0x7f, 0x00, 0x00, 0x02, 0x00, 0x00, 0x00, 0x00, 0x00, 
0x00, 0x00, 0xfe, 0xff, 0x01, 0x60, 0x51, 0x01, 0x00, 0x00, 0x00, 0x00, 
0x00, 0x00, 0xbc, 0xff, 0x07, 0x00, 0x10, 0x01, 0x00, 0x00, 0x00, 0x00, 
0x00, 0x00, 0xfc, 0xff, 0x0f, 0x10, 0x00, 0x18, 0x00, 0x00, 0x00, 0x00, 
0x00, 0x00, 0xfc, 0xff, 0x3f, 0x00, 0x00, 0x80, 0x00, 0x00, 0x00, 0x00, 
0x00, 0x00, 0xf8, 0xff, 0x7f, 0x06, 0x04, 0x00, 0x00, 0x00, 0x00, 0x00, 
0x00, 0x00, 0xf8, 0xff, 0xff, 0x3f, 0x00, 0x08, 0x00, 0x00, 0x00, 0x00, 
0x00, 0x00, 0xf0, 0xff, 0xff, 0x1f, 0x00, 0x00, 0x80, 0x00, 0x00, 0x00, 
0x00, 0x00, 0xf0, 0xff, 0xff, 0x3f, 0x00, 0x00, 0x10, 0x00, 0x00, 0x00, 
0x00, 0x00, 0xf0, 0xff, 0xff, 0x3f, 0x02, 0x00, 0x20, 0x00, 0x00, 0x00, 
0x00, 0x00, 0xf0, 0xff, 0xff, 0x7f, 0x01, 0x00, 0x02, 0x00, 0x00, 0x00, 
0x00, 0x00, 0xf0, 0xff, 0xff, 0xff, 0x00, 0x00, 0x00, 0x10, 0x00, 0x00, 
0x00, 0x00, 0xe0, 0xff, 0xff, 0xff, 0x03, 0x00, 0x00, 0x00, 0x00, 0x00, 
0x00, 0x00, 0xe0, 0xff, 0xff, 0xff, 0x0f, 0x00, 0x80, 0x00, 0x00, 0x00, 
0x00, 0x00, 0x80, 0xff, 0xff, 0xff, 0x07, 0x00, 0x00, 0x04, 0x00, 0x00, 
0x00, 0x00, 0x80, 0xff, 0xff, 0xff, 0x03, 0x02, 0x28, 0x00, 0x00, 0x00, 
0x00, 0x00, 0x00, 0xff, 0xff, 0xcf, 0x01, 0x00, 0x80, 0x00, 0x00, 0x00, 
0x00, 0x00, 0x00, 0xff, 0xff, 0x43, 0x00, 0x00, 0x20, 0x00, 0x00, 0x00, 
0x00, 0x00, 0x00, 0xfe, 0xff, 0x01, 0x0a, 0x08, 0x18, 0x11, 0x00, 0x00, 
0x00, 0x00, 0x00, 0xfe, 0x7f, 0x00, 0x40, 0x0c, 0x28, 0x00, 0x00, 0x00, 
0x00, 0x00, 0x00, 0xfe, 0x3f, 0x80, 0x09, 0x00, 0x04, 0x10, 0x00, 0x00, 
0x00, 0x00, 0x00, 0xfa, 0x3f, 0x80, 0x00, 0x03, 0x00, 0x00, 0x01, 0x00, 
0x00, 0x00, 0x00, 0xfc, 0x3f, 0x24, 0x00, 0x00, 0x00, 0x80, 0x40, 0x00, 
0x00, 0x00, 0x00, 0xd8, 0x1f, 0x00, 0x00, 0x04, 0x00, 0x00, 0x0c, 0x00, 
0x00, 0x00, 0x00, 0xf8, 0x1f, 0x00, 0x00, 0x00, 0x00, 0x00, 0x46, 0x00, 
0x00, 0x00, 0x00, 0x60, 0x0f, 0x00, 0x00, 0x00, 0x00, 0x20, 0x03, 0x00, 
0x00, 0x00, 0x00, 0x86, 0x1f, 0x01, 0x00, 0x40, 0x00, 0xa0, 0x10, 0x00, 
0x00, 0x00, 0x00, 0xc9, 0x0f, 0x01, 0x00, 0x60, 0x00, 0x80, 0x00, 0x00, 
0x00, 0x00, 0x80, 0x50, 0x1d, 0x00, 0x00, 0x00, 0x00, 0x10, 0x00, 0x00, 
0x00, 0x00, 0x80, 0x08, 0x0e, 0x00, 0x04, 0x00, 0x00, 0x14, 0x00, 0x00, 
0x00, 0x00, 0x00, 0x10, 0x44, 0x00, 0x08, 0x10, 0x00, 0x00, 0x00, 0x00, 
0x00, 0x00, 0x00, 0x00, 0x00, 0x00, 0x00, 0x00, 0x00, 0x50, 0x00, 0x00, 
0x00, 0x00, 0x40, 0x00, 0x00, 0x00, 0x02, 0x80, 0x01, 0x00, 0x00, 0x00, 
0x00, 0x00, 0x40, 0x02, 0x08, 0x00, 0x80, 0x00, 0x60, 0x00, 0x00, 0x00, 
0x00, 0x00, 0x00, 0x00, 0xc0, 0x00, 0x00, 0x00, 0xf2, 0x04, 0x00, 0x00, 
0x00, 0x00, 0x20, 0x00, 0x00, 0x14, 0x00, 0x00, 0xf8, 0x00, 0x00, 0x00, 
0x00, 0x00, 0x40, 0x00, 0x10, 0x00, 0x00, 0x90, 0xf8, 0x01, 0x00, 0x00, 
0x00, 0x00, 0x00, 0x00, 0x10, 0x00, 0x00, 0x00, 0xf8, 0x01, 0x00, 0x00, 
0x00, 0x00, 0x50, 0x00, 0x14, 0x00, 0x00, 0x00, 0xfc, 0x03, 0x00, 0x00, 
0x00, 0x00, 0x00, 0x00, 0x08, 0x10, 0x00, 0x00, 0xfc, 0x07, 0x00, 0x00, 
0x00, 0x00, 0x00, 0x00, 0x26, 0x01, 0x08, 0x00, 0xfc, 0x07, 0x00, 0x00, 
0x00, 0x00, 0x80, 0x02, 0x00, 0x00, 0x00, 0x00, 0xfe, 0x07, 0x00, 0x00, 
0x00, 0x00, 0x80, 0x00, 0x00, 0x73, 0x00, 0x00, 0xfe, 0x07, 0x00, 0x00, 
0x00, 0x00, 0x40, 0x02, 0x03, 0x40, 0x20, 0x04, 0xff, 0x0f, 0x00, 0x00, 
0x00, 0x00, 0x00, 0x09, 0x01, 0x00, 0x00, 0x80, 0xff, 0x0f, 0x00, 0x00, 
0x00, 0x00, 0x00, 0xd0, 0x00, 0x00, 0x48, 0xe0, 0xff, 0x0f, 0x00, 0x00, 
0x00, 0x00, 0x00, 0xca, 0x00, 0x00, 0x04, 0xf9, 0xff, 0x0f, 0x00, 0x00, 
0x00, 0x00, 0x00, 0x44, 0x02, 0x00, 0x80, 0xff, 0xff, 0x0f, 0x00, 0x00, 
0x00, 0x00, 0x00, 0x20, 0x00, 0x00, 0xc0, 0xff, 0xff, 0x0f, 0x00, 0x00, 
0x00, 0x00, 0x00, 0x08, 0x00, 0x00, 0x00, 0xff, 0xff, 0x07, 0x00, 0x00, 
0x00, 0x00, 0x00, 0x08, 0x00, 0x00, 0x00, 0xff, 0xff, 0x07, 0x00, 0x00, 
0x00, 0x00, 0x00, 0x00, 0x00, 0x00, 0x00, 0xfc, 0xff, 0x03, 0x00, 0x00, 
0x00, 0x00, 0x00, 0x20, 0x04, 0x03, 0x00, 0xf0, 0xff, 0x00, 0x00, 0x00, 
0x00, 0x00, 0x00, 0x40, 0x00, 0x00, 0x80, 0xc0, 0x3f, 0x00, 0x00, 0x00, 
0x00, 0x00, 0x00, 0x00, 0x80, 0x00, 0x20, 0x00, 0x1f, 0x00, 0x00, 0x00, 
0x00, 0x00, 0x00, 0x80, 0x04, 0x00, 0x00, 0x00, 0x00, 0x00, 0x00, 0x00, 
0x00, 0x00, 0x00, 0x00, 0x00, 0x00, 0x40, 0x00, 0x00, 0x00, 0x00, 0x00, 
0x00, 0x00, 0x00, 0x00, 0x28, 0x23, 0x10, 0x00, 0x00, 0x00, 0x00, 0x00, 
0x00, 0x00, 0x00, 0x00, 0x00, 0x00, 0x02, 0x00, 0x00, 0x00, 0x00, 0x00, 
0x00, 0x00, 0x00, 0x00, 0x00, 0x48, 0x00, 0x00, 0x00, 0x00, 0x00, 0x00, 
0x00, 0x00, 0x00, 0x00, 0x00, 0x44, 0x00, 0x00, 0x00, 0x00, 0x00, 0x00, 
0x00, 0x00, 0x00, 0x00, 0x00, 0x60, 0x01, 0x00, 0x00, 0x00, 0x00, 0x00, 
0x00, 0x00, 0x00, 0x00, 0x00, 0x3c, 0x00, 0x00, 0x00, 0x00, 0x00, 0x00, 
0x00, 0x00, 0x00, 0x00, 0x00, 0x10, 0x00, 0x00, 0x00, 0x00, 0x00, 0x00, 
0x00, 0x00, 0x00, 0x00, 0x00, 0x40, 0x00, 0x00, 0x00, 0x00, 0x00, 0x00, 
0x00, 0x00, 0x00, 0x00, 0x00, 0x00, 0x00, 0x00, 0x00, 0x00, 0x00, 0x00, 
0x00, 0x00, 0x00, 0x00, 0x00, 0x00, 0x00, 0x00, 0x00, 0x00, 0x00, 0x00, 
0x00, 0x00, 0x00, 0x00, 0x00, 0x00, 0x00, 0x00, 0x00, 0x00, 0x00, 0x00, 
0x00, 0x00, 0x00, 0x00, 0x00, 0x00, 0x00, 0x00, 0x00, 0x00, 0x00, 0x00};