#define x_width 90
#define x_height 90
static char x_bits[] = {
0x00, 0x00, 0x00, 0x00, 0x00, 0x00, 0x00, 0x00, 0x00, 0x00, 0x00, 0x00, 
0x00, 0x00, 0x00, 0x00, 0x00, 0x00, 0x00, 0x00, 0x00, 0x00, 0x00, 0x00, 
0x00, 0x00, 0x00, 0x00, 0x00, 0x00, 0x00, 0x00, 0x00, 0x00, 0x00, 0x00, 
0x00, 0x00, 0x00, 0x00, 0x00, 0x00, 0x00, 0x00, 0x00, 0x00, 0x00, 0x00, 
0x00, 0x00, 0x00, 0x00, 0x00, 0x00, 0x00, 0x00, 0x00, 0x00, 0x00, 0x00, 
0x00, 0x00, 0x00, 0x00, 0x00, 0x00, 0x00, 0x00, 0x00, 0x00, 0x00, 0x00, 
0x00, 0x00, 0x00, 0x00, 0x00, 0x00, 0x00, 0x00, 0x00, 0x00, 0x00, 0x00, 
0x00, 0x00, 0x00, 0x00, 0x00, 0x00, 0x00, 0x00, 0x00, 0x00, 0x00, 0x00, 
0x00, 0x00, 0x00, 0x00, 0x00, 0x00, 0x00, 0x00, 0x00, 0x00, 0x00, 0x00, 
0x00, 0x00, 0x00, 0x00, 0x00, 0x00, 0x00, 0x00, 0x00, 0x00, 0x00, 0x00, 
0x00, 0x00, 0x00, 0x00, 0x02, 0x00, 0x00, 0x00, 0x00, 0x00, 0x00, 0x00, 
0x00, 0x00, 0x00, 0x80, 0x00, 0x00, 0x00, 0x00, 0x00, 0x00, 0x00, 0x00, 
0x00, 0x00, 0x00, 0x44, 0x03, 0x00, 0x00, 0x00, 0x00, 0x00, 0x00, 0x00, 
0x00, 0x00, 0x14, 0x80, 0x00, 0x00, 0x00, 0x00, 0x00, 0x00, 0x00, 0x00, 
0x00, 0x40, 0xa9, 0x0d, 0x00, 0x04, 0x00, 0x00, 0x00, 0x00, 0x00, 0x00, 
0x00, 0x40, 0x00, 0x00, 0x00, 0x0a, 0x00, 0x00, 0x00, 0x00, 0x00, 0x00, 
0x00, 0x00, 0x3e, 0x00, 0x40, 0x03, 0x00, 0x00, 0x00, 0x00, 0x00, 0x00, 
0x00, 0x80, 0xff, 0x00, 0x76, 0x08, 0x00, 0x00, 0x00, 0x00, 0x00, 0x00, 
0x00, 0x60, 0xff, 0x0f, 0x40, 0x02, 0x00, 0x00, 0x00, 0x00, 0x00, 0x00, 
0x00, 0x20, 0xff, 0x3f, 0x04, 0x00, 0x00, 0x00, 0x00, 0x00, 0x00, 0x00, 
0x00, 0x00, 0xff, 0x7f, 0x06, 0x00, 0x00, 0x00, 0x00, 0x00, 0x00, 0x00, 
0x00, 0x40, 0xff, 0xff, 0x0f, 0x20, 0x00, 0x00, 0x00, 0x00, 0x00, 0x00, 
0x00, 0x00, 0xff, 0xff, 0x0b, 0x14, 0x00, 0x00, 0x00, 0x00, 0x00, 0x00, 
0x00, 0x00, 0xff, 0xff, 0x0f, 0x01, 0x00, 0x00, 0x00, 0x00, 0x00, 0x00, 
0x00, 0x80, 0xfe, 0xff, 0x7f, 0x00, 0x00, 0x00, 0x00, 0x00, 0x00, 0x00, 
0x00, 0x80, 0xfe, 0xff, 0xff, 0x01, 0x00, 0x00, 0x00, 0x00, 0x00, 0x00, 
0x00, 0x80, 0xfc, 0xff, 0xff, 0x03, 0x00, 0x1f, 0x00, 0x00, 0x00, 0x00, 
0x00, 0x00, 0xfc, 0xff, 0xff, 0x07, 0x80, 0x7f, 0x00, 0x00, 0x00, 0x00, 
0x00, 0x10, 0xf9, 0xff, 0xff, 0x0f, 0xe0, 0x7f, 0x00, 0x00, 0x00, 0x00, 
0x00, 0x80, 0xf8, 0xff, 0xff, 0x1f, 0xf0, 0x9f, 0x00, 0x00, 0x00, 0x00, 
0x00, 0x00, 0xf1, 0xff, 0xff, 0x3f, 0xf8, 0x0f, 0x01, 0x00, 0x00, 0x00, 
0x00, 0x00, 0xf0, 0xff, 0xff, 0x7f, 0xfc, 0x0f, 0x01, 0x00, 0x00, 0x00, 
0x00, 0x20, 0xf3, 0xff, 0xff, 0xff, 0xff, 0x1f, 0x02, 0x00, 0x00, 0x00, 
0x00, 0x00, 0xf0, 0xff, 0xff, 0xff, 0xff, 0x3f, 0x02, 0x00, 0x00, 0x00, 
0x00, 0x20, 0xfa, 0xff, 0xff, 0xff, 0xff, 0x5f, 0x02, 0x00, 0x00, 0x00, 
0x00, 0x00, 0xe2, 0xff, 0xff, 0xff, 0xff, 0x4f, 0x02, 0x00, 0x00, 0x00, 
0x00, 0x40, 0x80, 0xff, 0xff, 0xff, 0xff, 0x43, 0x04, 0x00, 0x00, 0x00, 
0x00, 0x00, 0x01, 0xff, 0xff, 0xff, 0xff, 0x41, 0x04, 0x00, 0x00, 0x00, 
0x00, 0x00, 0x02, 0xff, 0xff, 0xff, 0xff, 0x80, 0x04, 0x00, 0x00, 0x00, 
0x00, 0x40, 0x01, 0xfe, 0xff, 0xff, 0x7f, 0x80, 0x04, 0x00, 0x00, 0x00, 
0x00, 0x00, 0x02, 0xfe, 0xff, 0xff, 0xff, 0x80, 0x04, 0x00, 0x00, 0x00, 
0x00, 0x00, 0x02, 0xfc, 0xff, 0xff, 0xff, 0x81, 0x05, 0x00, 0x00, 0x00, 
0x00, 0x00, 0x10, 0xf8, 0xff, 0xff, 0xff, 0x03, 0x05, 0x00, 0x00, 0x00, 
0x00, 0x20, 0x00, 0xf8, 0xff, 0xff, 0xff, 0x07, 0x01, 0x00, 0x00, 0x00, 
0x00, 0x00, 0x08, 0xf0, 0xff, 0xff, 0xff, 0x0f, 0x09, 0x00, 0x00, 0x00, 
0x00, 0x00, 0x00, 0xe0, 0xff, 0xff, 0xff, 0x1f, 0x0a, 0x00, 0x00, 0x00, 
0x00, 0x00, 0x08, 0xe0, 0xff, 0xff, 0xff, 0x3f, 0x0a, 0x00, 0x00, 0x00, 
0x00, 0x00, 0x00, 0xf8, 0xff, 0xff, 0xff, 0x7f, 0x0a, 0x00, 0x00, 0x00, 
0x00, 0x00, 0x00, 0xfe, 0xff, 0xff, 0xff, 0xff, 0x0a, 0x00, 0x00, 0x00, 
0x00, 0x00, 0x00, 0xff, 0xff, 0xff, 0xff, 0xff, 0x13, 0x00, 0x00, 0x00, 
0x00, 0x00, 0x80, 0xff, 0xff, 0xff, 0xff, 0xff, 0x17, 0x00, 0x00, 0x00, 
0x00, 0x00, 0x80, 0xff, 0xff, 0xff, 0xff, 0xff, 0x17, 0x00, 0x00, 0x00, 
0x00, 0x00, 0xc0, 0xff, 0xf7, 0xff, 0xff, 0xff, 0x1f, 0x00, 0x00, 0x00, 
0x00, 0x00, 0xc0, 0xff, 0xef, 0xff, 0xff, 0xff, 0x1f, 0x00, 0x00, 0x00, 
0x00, 0x00, 0x80, 0xff, 0xdb, 0xff, 0xff, 0xff, 0x1f, 0x00, 0x00, 0x00, 
0x00, 0x00, 0x00, 0x7f, 0xa0, 0xff, 0xff, 0xff, 0x3f, 0x00, 0x00, 0x00, 
0x00, 0x00, 0x00, 0x38, 0x40, 0xff, 0xff, 0xff, 0x7f, 0x00, 0x00, 0x00, 
0x00, 0x00, 0x00, 0x40, 0x80, 0xfe, 0xff, 0xff, 0x7f, 0x00, 0x00, 0x00, 
0x00, 0x00, 0x00, 0x80, 0x01, 0xfe, 0xff, 0xff, 0x7f, 0x00, 0x00, 0x00, 
0x00, 0x00, 0x00, 0x00, 0x02, 0xfc, 0xff, 0xff, 0x7f, 0x00, 0x00, 0x00, 
0x00, 0x00, 0x00, 0x00, 0x0c, 0xf8, 0xff, 0xff, 0xff, 0x00, 0x00, 0x00, 
0x00, 0x00, 0x00, 0x00, 0xf0, 0xf0, 0xff, 0xff, 0xff, 0x00, 0x00, 0x00, 
0x00, 0x00, 0x00, 0x00, 0x00, 0xe1, 0xff, 0xff, 0xff, 0x00, 0x00, 0x00, 
0x00, 0x00, 0x00, 0x00, 0x00, 0x06, 0xff, 0xff, 0xff, 0x01, 0x00, 0x00, 
0x00, 0x00, 0x00, 0x00, 0x00, 0x38, 0xff, 0xff, 0xff, 0x01, 0x00, 0x00, 
0x00, 0x00, 0x00, 0x00, 0x00, 0xc0, 0xfe, 0xff, 0xff, 0x21, 0x00, 0x00, 
0x00, 0x00, 0x00, 0x00, 0x00, 0x00, 0xff, 0xff, 0xff, 0x03, 0x01, 0x00, 
0x00, 0x00, 0x00, 0x00, 0x00, 0x00, 0xec, 0xff, 0xff, 0x03, 0x00, 0x00, 
0x00, 0x00, 0x00, 0x00, 0x00, 0x00, 0xe0, 0xff, 0xff, 0x63, 0x02, 0x00, 
0x00, 0x00, 0x00, 0x00, 0x00, 0x00, 0x00, 0xff, 0xff, 0x07, 0x00, 0x00, 
0x00, 0x00, 0x00, 0x00, 0x00, 0x00, 0x00, 0xfe, 0xff, 0x07, 0x0b, 0x00, 
0x00, 0x00, 0x00, 0x00, 0x00, 0x00, 0x00, 0xf8, 0xff, 0x07, 0x21, 0x00, 
0x00, 0x00, 0x00, 0x00, 0x00, 0x00, 0x00, 0x80, 0xff, 0x03, 0xa0, 0x01, 
0x00, 0x00, 0x00, 0x00, 0x00, 0x00, 0x00, 0x80, 0xff, 0x01, 0x10, 0x00, 
0x00, 0x00, 0x00, 0x00, 0x00, 0x00, 0x00, 0x00, 0xf8, 0x20, 0x02, 0x00, 
0x00, 0x00, 0x00, 0x00, 0x00, 0x00, 0x00, 0x00, 0x62, 0x60, 0x00, 0x00, 
0x00, 0x00, 0x00, 0x00, 0x00, 0x00, 0x00, 0x00, 0x04, 0x01, 0x04, 0x00, 
0x00, 0x00, 0x00, 0x00, 0x00, 0x00, 0x00, 0x00, 0x00, 0x04, 0x20, 0x00, 
0x00, 0x00, 0x00, 0x00, 0x00, 0x00, 0x00, 0x00, 0x08, 0x00, 0x00, 0x00, 
0x00, 0x00, 0x00, 0x00, 0x00, 0x00, 0x00, 0x00, 0x48, 0x40, 0x00, 0x00, 
0x00, 0x00, 0x00, 0x00, 0x00, 0x00, 0x00, 0x00, 0x48, 0x02, 0x20, 0x00, 
0x00, 0x00, 0x00, 0x00, 0x00, 0x00, 0x00, 0x00, 0x50, 0x00, 0x04, 0x00, 
0x00, 0x00, 0x00, 0x00, 0x00, 0x00, 0x00, 0x00, 0x00, 0x08, 0x04, 0x00, 
0x00, 0x00, 0x00, 0x00, 0x00, 0x00, 0x00, 0x00, 0x08, 0x28, 0x00, 0x00, 
0x00, 0x00, 0x00, 0x00, 0x00, 0x00, 0x00, 0x00, 0x80, 0x00, 0x40, 0x00, 
0x00, 0x00, 0x00, 0x00, 0x00, 0x00, 0x00, 0x00, 0x18, 0x80, 0x00, 0x00, 
0x00, 0x00, 0x00, 0x00, 0x00, 0x00, 0x00, 0x00, 0x10, 0x00, 0x52, 0x00, 
0x00, 0x00, 0x00, 0x00, 0x00, 0x00, 0x00, 0x00, 0x00, 0x00, 0x40, 0x00, 
0x00, 0x00, 0x00, 0x00, 0x00, 0x00, 0x00, 0x00, 0x00, 0x00, 0x00, 0x00, 
0x00, 0x00, 0x00, 0x00, 0x00, 0x00, 0x00, 0x00, 0x00, 0x00, 0x00, 0x00};