#define x_width 30
#define x_height 30
static char x_bits[] = {
0x00, 0x00, 0x00, 0x00, 0x00, 0x00, 0x00, 0x00, 0x00, 0x00, 0x00, 0x00, 
0x00, 0x00, 0x00, 0x00, 0x00, 0x00, 0x00, 0x00, 0x00, 0x00, 0x00, 0x00, 
0x00, 0x00, 0x00, 0x00, 0x00, 0x00, 0x00, 0x00, 0x20, 0x00, 0x01, 0x00, 
0x60, 0x00, 0x01, 0x00, 0xc0, 0x07, 0x02, 0x00, 0x00, 0x08, 0x06, 0x00, 
0x00, 0xb8, 0x8a, 0x03, 0x00, 0x30, 0xea, 0x02, 0x00, 0xf0, 0x7f, 0x02, 
0x00, 0x30, 0xdf, 0x02, 0x00, 0xb0, 0x8a, 0x01, 0x00, 0x08, 0x02, 0x00, 
0xc0, 0x07, 0x02, 0x00, 0x60, 0x00, 0x01, 0x00, 0x20, 0x00, 0x01, 0x00, 
0x00, 0x00, 0x01, 0x00, 0x00, 0x00, 0x00, 0x00, 0x00, 0x00, 0x00, 0x00, 
0x00, 0x00, 0x00, 0x00, 0x00, 0x00, 0x00, 0x00, 0x00, 0x00, 0x00, 0x00, 
0x00, 0x00, 0x00, 0x00, 0x00, 0x00, 0x00, 0x00, 0x00, 0x00, 0x00, 0x00};