#define x_width 30
#define x_height 30
static char x_bits[] = {
0x00, 0x00, 0x00, 0x00, 0x00, 0x00, 0x00, 0x00, 0x00, 0x00, 0x00, 0x00, 
0x00, 0x00, 0x00, 0x00, 0x00, 0x00, 0x00, 0x00, 0x00, 0x00, 0x00, 0x00, 
0x00, 0x00, 0x00, 0x00, 0x00, 0x00, 0x00, 0x00, 0x00, 0x00, 0x00, 0x00, 
0x00, 0x00, 0x00, 0x00, 0x00, 0x00, 0x00, 0x00, 0xc0, 0x01, 0x38, 0x00, 
0xc0, 0x03, 0x38, 0x00, 0x80, 0xe3, 0x39, 0x00, 0x80, 0xf3, 0x3b, 0x00, 
0x80, 0xf7, 0x7b, 0x00, 0x80, 0xff, 0x7f, 0x00, 0x80, 0xff, 0x7f, 0x00, 
0x80, 0xff, 0x7f, 0x00, 0x80, 0xff, 0x7f, 0x00, 0x80, 0xff, 0x7f, 0x00, 
0x80, 0xff, 0x7f, 0x00, 0x80, 0xff, 0x3f, 0x00, 0x80, 0xff, 0x1f, 0x00, 
0x80, 0xff, 0x0f, 0x00, 0x00, 0x3f, 0x00, 0x00, 0x00, 0x1e, 0x00, 0x00, 
0x00, 0x00, 0x00, 0x00, 0x00, 0x00, 0x00, 0x00, 0x00, 0x00, 0x00, 0x00};