#define x_width 30
#define x_height 30
static char x_bits[] = {
0x00, 0x00, 0x00, 0x00, 0x00, 0x00, 0x60, 0x00, 0x00, 0x00, 0x28, 0x03, 
0x00, 0x00, 0x38, 0x03, 0x00, 0x00, 0x80, 0x03, 0x00, 0x40, 0x50, 0x03, 
0xa8, 0x22, 0x98, 0x07, 0x0c, 0x20, 0x0c, 0x0f, 0xb4, 0xd0, 0x64, 0x0b, 
0x84, 0xd1, 0x20, 0x08, 0x80, 0xc1, 0x00, 0x00, 0x80, 0xc0, 0x00, 0x00, 
0x80, 0xc1, 0x00, 0x00, 0x80, 0xc1, 0x00, 0x00, 0x00, 0x80, 0x00, 0x00, 
0x10, 0x80, 0x00, 0x02, 0x18, 0x00, 0x20, 0x02, 0x18, 0x00, 0x20, 0x02, 
0x18, 0x00, 0x38, 0x02, 0x18, 0x00, 0x20, 0x00, 0x18, 0x00, 0x00, 0x02, 
0x10, 0x00, 0x20, 0x00, 0x80, 0x01, 0x20, 0x00, 0x00, 0x01, 0x00, 0x00, 
0x00, 0x00, 0x00, 0x00, 0x00, 0x00, 0x00, 0x00, 0x00, 0x00, 0x00, 0x00, 
0x00, 0x00, 0x00, 0x00, 0x00, 0x00, 0x00, 0x00, 0x00, 0x00, 0x00, 0x00};