#define x_width 90
#define x_height 90
static char x_bits[] = {
0x00, 0x00, 0x00, 0x00, 0x00, 0x00, 0x00, 0x00, 0x00, 0x00, 0x00, 0x00, 
0x00, 0x00, 0x00, 0x00, 0x00, 0x00, 0x00, 0x00, 0x00, 0x00, 0x00, 0x00, 
0x00, 0x00, 0x00, 0x00, 0x00, 0x00, 0x00, 0x00, 0x00, 0x00, 0x00, 0x00, 
0x00, 0x00, 0x00, 0x00, 0x00, 0x00, 0x00, 0x00, 0x00, 0x00, 0x00, 0x00, 
0x00, 0x00, 0x00, 0x00, 0x00, 0x00, 0x00, 0x00, 0x00, 0x00, 0x00, 0x00, 
0x00, 0x00, 0x00, 0x00, 0x00, 0x00, 0x00, 0x00, 0x00, 0x00, 0x00, 0x00, 
0x00, 0x00, 0x00, 0x00, 0x00, 0x00, 0x00, 0x00, 0x00, 0x00, 0x00, 0x00, 
0x00, 0x00, 0x00, 0x00, 0x00, 0x00, 0x00, 0x00, 0x00, 0x00, 0x00, 0x00, 
0x00, 0x00, 0x00, 0x00, 0x00, 0x00, 0x00, 0x00, 0x00, 0x00, 0x00, 0x00, 
0x00, 0x00, 0x00, 0x00, 0x00, 0x00, 0x00, 0x00, 0x00, 0x00, 0x00, 0x00, 
0x00, 0x00, 0x00, 0x00, 0x00, 0x00, 0x00, 0x00, 0x00, 0x00, 0x00, 0x00, 
0x00, 0x00, 0x00, 0x00, 0x00, 0x00, 0x80, 0x84, 0x00, 0x00, 0x00, 0x00, 
0x00, 0x00, 0x00, 0x00, 0x00, 0x00, 0x10, 0x00, 0x04, 0x00, 0x00, 0x00, 
0x00, 0x00, 0x00, 0x00, 0x00, 0x00, 0xc4, 0x02, 0x08, 0x00, 0x00, 0x00, 
0x00, 0x00, 0x00, 0x00, 0x00, 0x00, 0x1a, 0x20, 0x00, 0x0c, 0x00, 0x00, 
0x00, 0x00, 0x00, 0x00, 0x00, 0x00, 0x18, 0x00, 0x20, 0x0c, 0x00, 0x00, 
0x00, 0x00, 0x00, 0x00, 0x00, 0x00, 0x18, 0x00, 0x20, 0x0c, 0x00, 0x00, 
0x00, 0x00, 0x00, 0x00, 0x00, 0x80, 0x18, 0x00, 0x00, 0x0c, 0x00, 0x00, 
0x00, 0x00, 0x00, 0x00, 0x00, 0x00, 0x08, 0x10, 0x80, 0x04, 0x00, 0x00, 
0x00, 0x00, 0x00, 0x00, 0x00, 0x40, 0x08, 0x44, 0x00, 0x04, 0x00, 0x00, 
0x00, 0x00, 0x00, 0x00, 0x00, 0x00, 0x08, 0x09, 0x00, 0x04, 0x00, 0x00, 
0x00, 0x00, 0x00, 0x00, 0x00, 0x20, 0x04, 0x29, 0x00, 0x03, 0x00, 0x00, 
0x00, 0x00, 0x00, 0x00, 0x00, 0x10, 0x04, 0x28, 0x00, 0x00, 0x00, 0x00, 
0x00, 0x00, 0x00, 0x00, 0x00, 0x10, 0x04, 0x0c, 0x00, 0x00, 0x00, 0x00, 
0x00, 0x00, 0x00, 0x00, 0x00, 0x00, 0x00, 0x08, 0x00, 0x08, 0x00, 0x00, 
0x00, 0x00, 0x00, 0x00, 0x00, 0x08, 0x00, 0x08, 0x00, 0x00, 0x00, 0x00, 
0x00, 0x00, 0x00, 0x00, 0x00, 0x00, 0x02, 0x08, 0x00, 0x10, 0x00, 0x00, 
0x00, 0x00, 0x00, 0x00, 0x00, 0x02, 0x02, 0x0c, 0x00, 0x00, 0x00, 0x00, 
0x00, 0x00, 0x00, 0x00, 0x10, 0x01, 0xa2, 0x88, 0x00, 0x10, 0x00, 0x00, 
0x00, 0x00, 0x00, 0x00, 0x20, 0x41, 0x01, 0x0c, 0x80, 0x00, 0x00, 0x00, 
0x00, 0x00, 0x00, 0x00, 0x20, 0x00, 0x9d, 0x08, 0x40, 0x10, 0x00, 0x00, 
0x00, 0x00, 0x00, 0x80, 0x21, 0x0c, 0x41, 0x08, 0x43, 0x00, 0x00, 0x00, 
0x00, 0x00, 0x00, 0xf0, 0xa7, 0x7f, 0x05, 0xe9, 0x5f, 0x00, 0x00, 0x00, 
0x00, 0x00, 0x00, 0xf8, 0xff, 0xff, 0x23, 0xfc, 0xff, 0x01, 0x00, 0x00, 
0x00, 0x00, 0x00, 0xf0, 0xff, 0xff, 0x23, 0xfe, 0xff, 0x3f, 0x00, 0x00, 
0x00, 0x00, 0x00, 0xff, 0xff, 0xff, 0x01, 0xfc, 0xff, 0xff, 0x03, 0x00, 
0x00, 0x00, 0xf0, 0xff, 0xff, 0xff, 0xa5, 0xfa, 0xff, 0xff, 0x0f, 0x00, 
0x00, 0x00, 0xfe, 0xff, 0xff, 0xff, 0x85, 0xf0, 0xff, 0xff, 0x1f, 0x00, 
0x00, 0xc0, 0xff, 0xff, 0xff, 0xff, 0x81, 0xf0, 0xff, 0xff, 0x3f, 0x00, 
0x00, 0xf0, 0xff, 0xff, 0xff, 0xff, 0x01, 0xf8, 0xff, 0xff, 0x7f, 0x00, 
0x00, 0xfc, 0xff, 0xff, 0xff, 0xff, 0x51, 0xf4, 0xff, 0xff, 0xff, 0x00, 
0x00, 0xff, 0xff, 0xff, 0xff, 0xff, 0x01, 0xf2, 0xff, 0xff, 0xff, 0x00, 
0x80, 0xff, 0xff, 0xff, 0xff, 0xff, 0x01, 0xf0, 0xff, 0xff, 0xff, 0x00, 
0xe0, 0xff, 0xff, 0xff, 0xff, 0xff, 0x01, 0xf0, 0xff, 0xff, 0xff, 0x01, 
0xfc, 0xff, 0xff, 0xff, 0xff, 0xff, 0x51, 0xf4, 0xff, 0xff, 0xff, 0x01, 
0xfc, 0xff, 0xff, 0xff, 0xff, 0xff, 0x45, 0xe0, 0xff, 0xff, 0xff, 0x01, 
0xfc, 0xff, 0xff, 0xff, 0xff, 0xff, 0x05, 0xe0, 0xff, 0xff, 0xff, 0x01, 
0xf0, 0xff, 0xff, 0xff, 0xff, 0xff, 0x25, 0xe2, 0xff, 0xff, 0xff, 0x01, 
0xe0, 0xff, 0xff, 0xff, 0xff, 0xff, 0x31, 0xf0, 0xff, 0xff, 0xff, 0x00, 
0x00, 0xff, 0xff, 0xff, 0xff, 0xff, 0x83, 0xf0, 0xff, 0xff, 0xff, 0x00, 
0x00, 0xfc, 0xff, 0xff, 0xff, 0xff, 0x1b, 0xf2, 0xff, 0xff, 0xff, 0x00, 
0x00, 0xf0, 0xff, 0xff, 0xff, 0xff, 0x81, 0xf8, 0xff, 0xff, 0x7f, 0x00, 
0x00, 0xc0, 0xff, 0xff, 0xff, 0xff, 0x84, 0xf8, 0xff, 0xff, 0x3f, 0x00, 
0x00, 0x00, 0xff, 0xff, 0xff, 0xff, 0x54, 0xf8, 0xff, 0xff, 0x1f, 0x00, 
0x00, 0x00, 0xfe, 0xff, 0xff, 0xff, 0x41, 0xfc, 0xff, 0xff, 0x0f, 0x00, 
0x00, 0x00, 0xc0, 0xff, 0xff, 0xff, 0x93, 0xfd, 0xff, 0xff, 0x01, 0x00, 
0x00, 0x00, 0x00, 0xfc, 0xff, 0xff, 0x43, 0xfc, 0xff, 0x3f, 0x00, 0x00, 
0x00, 0x00, 0x00, 0xf8, 0xff, 0xff, 0x07, 0xfc, 0xff, 0x01, 0x00, 0x00, 
0x00, 0x00, 0x00, 0xf0, 0xaf, 0x7f, 0x56, 0xe8, 0x5f, 0x00, 0x00, 0x00, 
0x00, 0x00, 0x00, 0x80, 0x21, 0x0c, 0x22, 0x09, 0x43, 0x00, 0x00, 0x00, 
0x00, 0x00, 0x00, 0x00, 0x24, 0x00, 0x02, 0x08, 0x40, 0x02, 0x00, 0x00, 
0x00, 0x00, 0x00, 0x00, 0xd0, 0x10, 0x02, 0x08, 0x80, 0x00, 0x00, 0x00, 
0x00, 0x00, 0x00, 0x00, 0x10, 0x00, 0x02, 0x08, 0x80, 0x00, 0x00, 0x00, 
0x00, 0x00, 0x00, 0x00, 0x10, 0x14, 0x04, 0x04, 0xa0, 0x00, 0x00, 0x00, 
0x00, 0x00, 0x00, 0x00, 0x10, 0x10, 0x04, 0x04, 0x10, 0x00, 0x00, 0x00, 
0x00, 0x00, 0x00, 0x00, 0x08, 0x04, 0x04, 0x14, 0x00, 0x00, 0x00, 0x00, 
0x00, 0x00, 0x00, 0x00, 0x08, 0x30, 0x04, 0x04, 0x2c, 0x00, 0x00, 0x00, 
0x00, 0x00, 0x00, 0x00, 0x0c, 0x40, 0x00, 0x15, 0x00, 0x00, 0x00, 0x00, 
0x00, 0x00, 0x00, 0x00, 0x08, 0x80, 0x00, 0x0e, 0x02, 0x00, 0x00, 0x00, 
0x00, 0x00, 0x00, 0x00, 0x04, 0x00, 0x0a, 0x40, 0x01, 0x00, 0x00, 0x00, 
0x00, 0x00, 0x00, 0x00, 0x08, 0x00, 0x08, 0x28, 0x00, 0x00, 0x00, 0x00, 
0x00, 0x00, 0x00, 0x00, 0x00, 0x00, 0x48, 0x05, 0x00, 0x04, 0x00, 0x00, 
0x00, 0x00, 0x00, 0x00, 0x00, 0x00, 0x18, 0x00, 0x00, 0x0c, 0x00, 0x00, 
0x00, 0x00, 0x00, 0x00, 0x00, 0x00, 0x18, 0x00, 0x00, 0x18, 0x00, 0x00, 
0x00, 0x00, 0x00, 0x00, 0x00, 0x00, 0x18, 0x00, 0x00, 0x18, 0x00, 0x00, 
0x00, 0x00, 0x00, 0x00, 0x00, 0x00, 0x10, 0x00, 0x00, 0x18, 0x00, 0x00, 
0x00, 0x00, 0x00, 0x00, 0x00, 0x00, 0x10, 0x00, 0x00, 0x10, 0x00, 0x00, 
0x00, 0x00, 0x00, 0x00, 0x00, 0x00, 0x00, 0x00, 0x00, 0x00, 0x00, 0x00, 
0x00, 0x00, 0x00, 0x00, 0x00, 0x00, 0x00, 0x00, 0x00, 0x00, 0x00, 0x00, 
0x00, 0x00, 0x00, 0x00, 0x00, 0x00, 0x00, 0x00, 0x00, 0x00, 0x00, 0x00, 
0x00, 0x00, 0x00, 0x00, 0x00, 0x00, 0x00, 0x00, 0x00, 0x00, 0x00, 0x00, 
0x00, 0x00, 0x00, 0x00, 0x00, 0x00, 0x00, 0x00, 0x00, 0x00, 0x00, 0x00, 
0x00, 0x00, 0x00, 0x00, 0x00, 0x00, 0x00, 0x00, 0x00, 0x00, 0x00, 0x00, 
0x00, 0x00, 0x00, 0x00, 0x00, 0x00, 0x00, 0x00, 0x00, 0x00, 0x00, 0x00, 
0x00, 0x00, 0x00, 0x00, 0x00, 0x00, 0x00, 0x00, 0x00, 0x00, 0x00, 0x00, 
0x00, 0x00, 0x00, 0x00, 0x00, 0x00, 0x00, 0x00, 0x00, 0x00, 0x00, 0x00, 
0x00, 0x00, 0x00, 0x00, 0x00, 0x00, 0x00, 0x00, 0x00, 0x00, 0x00, 0x00, 
0x00, 0x00, 0x00, 0x00, 0x00, 0x00, 0x00, 0x00, 0x00, 0x00, 0x00, 0x00, 
0x00, 0x00, 0x00, 0x00, 0x00, 0x00, 0x00, 0x00, 0x00, 0x00, 0x00, 0x00, 
0x00, 0x00, 0x00, 0x00, 0x00, 0x00, 0x00, 0x00, 0x00, 0x00, 0x00, 0x00};