#define x_width 30
#define x_height 30
static char x_bits[] = {
0x00, 0x00, 0x00, 0x00, 0x00, 0x00, 0x00, 0x00, 0x00, 0x00, 0x00, 0x00, 
0x00, 0x00, 0x00, 0x00, 0x00, 0x00, 0x00, 0x00, 0x00, 0xfc, 0x03, 0x00, 
0x00, 0xfe, 0x0f, 0x00, 0x00, 0xff, 0x1f, 0x00, 0x80, 0xff, 0x3f, 0x00, 
0x80, 0xff, 0x3f, 0x00, 0x80, 0xff, 0x3f, 0x00, 0x80, 0xff, 0x7f, 0x00, 
0x80, 0xff, 0x7b, 0x00, 0x80, 0xff, 0x7b, 0x00, 0x98, 0xf7, 0xfb, 0x03, 
0x60, 0xf7, 0xfb, 0x03, 0x80, 0xe7, 0xf9, 0x03, 0x00, 0x07, 0xf8, 0x03, 
0x00, 0x07, 0xf8, 0x03, 0x00, 0x18, 0xf8, 0x03, 0x00, 0x30, 0x00, 0x00, 
0x00, 0x50, 0x00, 0x00, 0x00, 0x30, 0x00, 0x00, 0x00, 0x00, 0x00, 0x00, 
0x00, 0x00, 0x00, 0x00, 0x00, 0x00, 0x00, 0x00, 0x00, 0x00, 0x00, 0x00, 
0x00, 0x00, 0x00, 0x00, 0x00, 0x00, 0x00, 0x00, 0x00, 0x00, 0x00, 0x00};