#define x_width 30
#define x_height 30
static char x_bits[] = {
0x00, 0x00, 0x00, 0x00, 0x00, 0x00, 0x00, 0x00, 0x00, 0x00, 0x00, 0x00, 
0x00, 0x00, 0x00, 0x00, 0x00, 0x00, 0x00, 0x00, 0x00, 0x00, 0x00, 0x00, 
0x00, 0x00, 0x00, 0x06, 0x00, 0x00, 0x80, 0x07, 0x00, 0x00, 0xe0, 0x01, 
0x00, 0x00, 0x30, 0x00, 0x00, 0x00, 0x1c, 0x00, 0x00, 0x00, 0x3f, 0x00, 
0x00, 0xc0, 0x39, 0x00, 0x00, 0xf0, 0x39, 0x00, 0x00, 0xfc, 0x3b, 0x00, 
0x00, 0xff, 0x7b, 0x00, 0x80, 0xf7, 0x7f, 0x00, 0xc0, 0xf7, 0x7f, 0x00, 
0xc0, 0xff, 0x7f, 0x00, 0x00, 0xff, 0x7f, 0x00, 0x00, 0xff, 0x7f, 0x00, 
0x00, 0xff, 0x7f, 0x00, 0x00, 0xfe, 0x3f, 0x00, 0x00, 0xfc, 0x1f, 0x00, 
0x00, 0xf0, 0x0f, 0x00, 0x00, 0x00, 0x00, 0x00, 0x00, 0x00, 0x00, 0x00, 
0x00, 0x00, 0x00, 0x00, 0x00, 0x00, 0x00, 0x00, 0x00, 0x00, 0x00, 0x00};