#define x_width 90
#define x_height 90
static char x_bits[] = {
0x00, 0x00, 0x00, 0x00, 0x00, 0x00, 0x00, 0x00, 0x00, 0x00, 0x00, 0x00, 
0x00, 0x00, 0x00, 0x00, 0x00, 0x00, 0x00, 0x00, 0x00, 0x00, 0x00, 0x00, 
0x00, 0x00, 0x00, 0x00, 0x00, 0x00, 0x00, 0x00, 0x00, 0x00, 0x00, 0x00, 
0x00, 0x00, 0x00, 0x00, 0x00, 0x28, 0x00, 0x00, 0x00, 0x00, 0x00, 0x00, 
0x00, 0x00, 0x00, 0x00, 0x00, 0x00, 0x00, 0x00, 0x00, 0x00, 0x00, 0x00, 
0x00, 0x00, 0x00, 0x00, 0x00, 0x80, 0x00, 0x00, 0x00, 0x00, 0x00, 0x00, 
0x00, 0x00, 0x00, 0x00, 0x00, 0x10, 0x00, 0x00, 0x00, 0x00, 0x00, 0x00, 
0x00, 0x00, 0x00, 0x00, 0x00, 0x30, 0x00, 0x00, 0x00, 0x00, 0x00, 0x00, 
0x00, 0x00, 0x00, 0x00, 0x00, 0x60, 0x00, 0x00, 0x00, 0x00, 0x00, 0x00, 
0x00, 0x00, 0x00, 0x00, 0x00, 0x44, 0x00, 0x00, 0x00, 0x00, 0x00, 0x00, 
0x00, 0x00, 0x00, 0x00, 0x00, 0x88, 0x01, 0x00, 0x00, 0x00, 0x00, 0x00, 
0x00, 0x00, 0x00, 0x00, 0x00, 0x00, 0x10, 0x00, 0x00, 0x00, 0x00, 0x00, 
0x00, 0x00, 0x00, 0x00, 0x00, 0xc0, 0x00, 0x00, 0x00, 0x00, 0x00, 0x00, 
0x00, 0x00, 0x00, 0x00, 0x81, 0x02, 0x16, 0x00, 0x00, 0x00, 0x00, 0x00, 
0x00, 0x00, 0x00, 0x00, 0x00, 0x00, 0x00, 0x00, 0x3f, 0x00, 0x00, 0x00, 
0x00, 0x00, 0x00, 0x00, 0x08, 0x00, 0x84, 0xf0, 0xff, 0x00, 0x00, 0x00, 
0x00, 0x00, 0x00, 0x00, 0x00, 0x00, 0x00, 0xf8, 0xff, 0x01, 0x00, 0x00, 
0x00, 0x00, 0x00, 0x00, 0x80, 0x00, 0x00, 0xfe, 0xff, 0x01, 0x00, 0x00, 
0x00, 0x00, 0x00, 0x10, 0x24, 0x00, 0x80, 0xff, 0xff, 0x03, 0x00, 0x00, 
0x00, 0x00, 0x00, 0x00, 0x00, 0x00, 0xc0, 0xff, 0xff, 0x03, 0x00, 0x00, 
0x00, 0x00, 0x00, 0x40, 0x50, 0x01, 0xc0, 0xff, 0xff, 0x07, 0x00, 0x00, 
0x00, 0x00, 0x00, 0x20, 0x80, 0x00, 0x80, 0xff, 0xff, 0x0f, 0x00, 0x00, 
0x00, 0x00, 0x00, 0x00, 0x90, 0x01, 0x00, 0xff, 0xff, 0x0f, 0x00, 0x00, 
0x00, 0x00, 0x00, 0x00, 0x00, 0x02, 0x00, 0xf8, 0xff, 0x0f, 0x00, 0x00, 
0x00, 0x00, 0x00, 0x80, 0x00, 0x00, 0x80, 0xc0, 0xff, 0x0f, 0x00, 0x00, 
0x00, 0x00, 0x00, 0x00, 0x00, 0x00, 0x20, 0x00, 0xff, 0x0f, 0x00, 0x00, 
0x00, 0x00, 0x00, 0x02, 0x00, 0x00, 0x20, 0x02, 0xfe, 0x07, 0x00, 0x00, 
0x00, 0x00, 0x10, 0x00, 0x00, 0x80, 0x01, 0x00, 0xfc, 0x07, 0x00, 0x00, 
0x00, 0x00, 0x00, 0x00, 0x00, 0x00, 0x01, 0x00, 0xfc, 0x03, 0x00, 0x00, 
0x00, 0x00, 0x00, 0x01, 0x00, 0x00, 0x08, 0x02, 0xf8, 0x03, 0x00, 0x00, 
0x00, 0x00, 0x00, 0x09, 0x80, 0x01, 0x00, 0x00, 0xf8, 0x01, 0x00, 0x00, 
0x00, 0x00, 0x00, 0x00, 0x00, 0x11, 0x00, 0x00, 0xf1, 0x01, 0x00, 0x00, 
0x00, 0x00, 0x00, 0x00, 0x10, 0x04, 0x00, 0x00, 0xf0, 0x00, 0x00, 0x00, 
0x00, 0x00, 0xc0, 0x00, 0x00, 0x04, 0x00, 0x00, 0xf8, 0x00, 0x00, 0x00, 
0x00, 0x00, 0x00, 0x00, 0x00, 0x00, 0x40, 0x00, 0x30, 0x04, 0x00, 0x00, 
0x00, 0x00, 0x41, 0x00, 0x00, 0x01, 0x00, 0x00, 0x24, 0x20, 0x00, 0x00, 
0x00, 0x00, 0x00, 0x00, 0x00, 0x00, 0x00, 0x00, 0x01, 0x08, 0x00, 0x00, 
0x00, 0x00, 0xc0, 0x00, 0x00, 0x00, 0x00, 0x00, 0x00, 0x40, 0x00, 0x00, 
0x00, 0x00, 0x00, 0x00, 0x84, 0x02, 0x08, 0x20, 0x04, 0x00, 0x00, 0x00, 
0x00, 0x00, 0x00, 0x04, 0x0c, 0x00, 0x04, 0x00, 0x08, 0x00, 0x00, 0x00, 
0x00, 0x80, 0x20, 0x40, 0x9e, 0x00, 0x20, 0x00, 0x00, 0x80, 0x00, 0x00, 
0x00, 0x00, 0x40, 0x80, 0x3e, 0x02, 0x00, 0x00, 0x00, 0x00, 0x04, 0x00, 
0x00, 0x00, 0x00, 0x00, 0x3f, 0x06, 0x00, 0x00, 0x00, 0x00, 0x00, 0x00, 
0x00, 0x00, 0x40, 0x80, 0x7f, 0x00, 0x00, 0x80, 0x01, 0x00, 0x27, 0x00, 
0x00, 0x00, 0x40, 0xe8, 0x1f, 0x08, 0x00, 0x80, 0x00, 0x40, 0x0c, 0x00, 
0x00, 0x00, 0x02, 0xf9, 0x1f, 0x00, 0x00, 0x91, 0x00, 0x00, 0x18, 0x00, 
0x00, 0x00, 0x00, 0xf8, 0x3f, 0x00, 0x00, 0x00, 0x00, 0x00, 0x09, 0x00, 
0x00, 0x00, 0x00, 0xfc, 0x3f, 0x08, 0x00, 0x01, 0x00, 0x00, 0x0a, 0x00, 
0x00, 0x00, 0x00, 0xfc, 0x7f, 0x00, 0x00, 0x80, 0x00, 0x42, 0x00, 0x00, 
0x00, 0x00, 0x00, 0xf8, 0xff, 0x80, 0x01, 0xa0, 0x00, 0x42, 0x00, 0x00, 
0x00, 0x00, 0x00, 0xf8, 0xff, 0x00, 0x80, 0x00, 0x00, 0x08, 0x00, 0x00, 
0x00, 0x00, 0x00, 0xfc, 0xff, 0x01, 0x88, 0x00, 0x00, 0x00, 0x00, 0x00, 
0x00, 0x00, 0x00, 0xfe, 0xff, 0x0f, 0x00, 0x20, 0x00, 0x40, 0x00, 0x00, 
0x00, 0x00, 0x00, 0xfe, 0xff, 0xbf, 0x02, 0x0e, 0x00, 0x00, 0x00, 0x00, 
0x00, 0x00, 0x00, 0xff, 0xff, 0xff, 0x47, 0x10, 0x00, 0x40, 0x00, 0x00, 
0x00, 0x00, 0x80, 0xff, 0xff, 0xff, 0x0f, 0x28, 0x00, 0x12, 0x00, 0x00, 
0x00, 0x00, 0x80, 0xff, 0xff, 0xff, 0x05, 0x20, 0x11, 0x00, 0x00, 0x00, 
0x00, 0x00, 0xc0, 0xff, 0xff, 0xff, 0x03, 0x00, 0x03, 0x00, 0x00, 0x00, 
0x00, 0x00, 0xc0, 0xff, 0xff, 0xbf, 0x01, 0x00, 0x0c, 0x10, 0x00, 0x00, 
0x00, 0x00, 0xe0, 0xff, 0xff, 0x7f, 0x03, 0x00, 0x1c, 0x04, 0x00, 0x00, 
0x00, 0x00, 0xf0, 0xff, 0xff, 0x6f, 0x00, 0x00, 0x20, 0x02, 0x00, 0x00, 
0x00, 0x00, 0xf0, 0xff, 0xff, 0x3f, 0x0a, 0x00, 0x04, 0x00, 0x00, 0x00, 
0x00, 0x00, 0xf0, 0xff, 0xff, 0x3f, 0x05, 0x00, 0xca, 0x00, 0x00, 0x00, 
0x00, 0x00, 0xf0, 0xff, 0xff, 0x8b, 0x00, 0x00, 0x10, 0x00, 0x00, 0x00, 
0x00, 0x00, 0xf8, 0xff, 0xff, 0x87, 0x40, 0x40, 0x09, 0x00, 0x00, 0x00, 
0x00, 0x00, 0xf8, 0xff, 0x7f, 0x00, 0x01, 0x00, 0x02, 0x00, 0x00, 0x00, 
0x00, 0x00, 0xf8, 0xff, 0x1f, 0x00, 0x06, 0xc0, 0x00, 0x00, 0x00, 0x00, 
0x00, 0x00, 0x78, 0xff, 0x07, 0x00, 0x60, 0x0a, 0x01, 0x00, 0x00, 0x00, 
0x00, 0x00, 0xf8, 0xff, 0x07, 0x00, 0x00, 0x01, 0x00, 0x00, 0x00, 0x00, 
0x00, 0x00, 0xfc, 0xff, 0x01, 0x00, 0x00, 0x08, 0x00, 0x00, 0x00, 0x00, 
0x00, 0x00, 0xfc, 0x0f, 0x00, 0x00, 0x00, 0x00, 0x00, 0x00, 0x00, 0x00, 
0x00, 0x00, 0xfe, 0x03, 0x00, 0x00, 0x00, 0x00, 0x00, 0x00, 0x00, 0x00, 
0x00, 0x00, 0x7e, 0x00, 0x00, 0x00, 0x00, 0x00, 0x00, 0x00, 0x00, 0x00, 
0x00, 0x00, 0x04, 0x00, 0x00, 0x00, 0x00, 0x00, 0x00, 0x00, 0x00, 0x00, 
0x00, 0x00, 0x00, 0x00, 0x00, 0x00, 0x00, 0x00, 0x00, 0x00, 0x00, 0x00, 
0x00, 0x00, 0x00, 0x00, 0x00, 0x00, 0x00, 0x00, 0x00, 0x00, 0x00, 0x00, 
0x00, 0x00, 0x00, 0x00, 0x00, 0x00, 0x00, 0x00, 0x00, 0x00, 0x00, 0x00, 
0x00, 0x00, 0x00, 0x00, 0x00, 0x00, 0x00, 0x00, 0x00, 0x00, 0x00, 0x00, 
0x00, 0x00, 0x00, 0x00, 0x00, 0x00, 0x00, 0x00, 0x00, 0x00, 0x00, 0x00, 
0x00, 0x00, 0x00, 0x00, 0x00, 0x00, 0x00, 0x00, 0x00, 0x00, 0x00, 0x00, 
0x00, 0x00, 0x00, 0x00, 0x00, 0x00, 0x00, 0x00, 0x00, 0x00, 0x00, 0x00, 
0x00, 0x00, 0x00, 0x00, 0x00, 0x00, 0x00, 0x00, 0x00, 0x00, 0x00, 0x00, 
0x00, 0x00, 0x00, 0x00, 0x00, 0x00, 0x00, 0x00, 0x00, 0x00, 0x00, 0x00, 
0x00, 0x00, 0x00, 0x00, 0x00, 0x00, 0x00, 0x00, 0x00, 0x00, 0x00, 0x00, 
0x00, 0x00, 0x00, 0x00, 0x00, 0x00, 0x00, 0x00, 0x00, 0x00, 0x00, 0x00, 
0x00, 0x00, 0x00, 0x00, 0x00, 0x00, 0x00, 0x00, 0x00, 0x00, 0x00, 0x00, 
0x00, 0x00, 0x00, 0x00, 0x00, 0x00, 0x00, 0x00, 0x00, 0x00, 0x00, 0x00, 
0x00, 0x00, 0x00, 0x00, 0x00, 0x00, 0x00, 0x00, 0x00, 0x00, 0x00, 0x00, 
0x00, 0x00, 0x00, 0x00, 0x00, 0x00, 0x00, 0x00, 0x00, 0x00, 0x00, 0x00, 
0x00, 0x00, 0x00, 0x00, 0x00, 0x00, 0x00, 0x00, 0x00, 0x00, 0x00, 0x00};