#define x_width 30
#define x_height 30
static char x_bits[] = {
0x00, 0x00, 0x00, 0x00, 0x00, 0x00, 0x00, 0x00, 0x00, 0x00, 0x00, 0x00, 
0x00, 0x00, 0x00, 0x00, 0x00, 0x00, 0x00, 0x00, 0x00, 0xf0, 0x0f, 0x00, 
0x00, 0xfc, 0x1f, 0x00, 0x20, 0xfe, 0x3f, 0x00, 0x20, 0xff, 0x7f, 0x00, 
0x40, 0xff, 0x7f, 0x00, 0x40, 0xff, 0x7f, 0x00, 0x80, 0xff, 0x7f, 0x00, 
0x80, 0xf7, 0x7f, 0x00, 0x80, 0xf7, 0x7f, 0x00, 0x00, 0xf1, 0x7b, 0x00, 
0x00, 0xf1, 0x3b, 0x00, 0x00, 0xe2, 0x39, 0x00, 0x00, 0x02, 0x3a, 0x00, 
0x00, 0x05, 0x3f, 0x00, 0x00, 0x05, 0x1f, 0x00, 0x00, 0x82, 0x3f, 0x00, 
0x00, 0xc0, 0x1f, 0x00, 0x00, 0x80, 0x0f, 0x00, 0x00, 0x00, 0x0e, 0x00, 
0x00, 0x00, 0x04, 0x00, 0x00, 0x00, 0x00, 0x00, 0x00, 0x00, 0x00, 0x00, 
0x00, 0x00, 0x00, 0x00, 0x00, 0x00, 0x00, 0x00, 0x00, 0x00, 0x00, 0x00};