#define x_width 30
#define x_height 30
static char x_bits[] = {
0x00, 0x00, 0x00, 0x00, 0x00, 0x00, 0x00, 0x00, 0x00, 0x00, 0x00, 0x00, 
0x00, 0xc0, 0x00, 0x00, 0x00, 0xe0, 0x00, 0x00, 0x00, 0xf0, 0x01, 0x00, 
0x00, 0xf0, 0x01, 0x00, 0x00, 0xe0, 0x01, 0x00, 0x00, 0xd0, 0x00, 0x00, 
0x00, 0xd4, 0x07, 0x00, 0x00, 0xe8, 0x05, 0x00, 0x00, 0x74, 0x0a, 0x00, 
0xa0, 0xff, 0x97, 0x02, 0xe0, 0xff, 0x7f, 0x02, 0x48, 0xf8, 0xe7, 0x00, 
0x00, 0xf4, 0x00, 0x00, 0x00, 0xfc, 0x03, 0x00, 0x00, 0xf8, 0x03, 0x00, 
0x00, 0xbe, 0x07, 0x00, 0x00, 0x3c, 0x0e, 0x00, 0x00, 0x6e, 0x07, 0x00, 
0x00, 0x0c, 0x0c, 0x00, 0x00, 0x04, 0x0e, 0x00, 0x00, 0x06, 0x04, 0x00, 
0x00, 0x0a, 0x0a, 0x00, 0x00, 0x00, 0x00, 0x00, 0x00, 0x00, 0x00, 0x00, 
0x00, 0x00, 0x00, 0x00, 0x00, 0x00, 0x00, 0x00, 0x00, 0x00, 0x00, 0x00};