#define x_width 30
#define x_height 30
static char x_bits[] = {
0x00, 0x00, 0x00, 0x00, 0x00, 0x00, 0x00, 0x00, 0x00, 0x00, 0x00, 0x00, 
0x00, 0x00, 0x00, 0x00, 0x00, 0x00, 0x00, 0x00, 0x00, 0x00, 0x00, 0x00, 
0x00, 0x00, 0x00, 0x00, 0x00, 0x00, 0x00, 0x00, 0x00, 0x00, 0x00, 0x00, 
0x00, 0x00, 0x00, 0x00, 0x00, 0x00, 0x00, 0x00, 0x00, 0x00, 0x00, 0x00, 
0x00, 0xc0, 0x07, 0x00, 0x00, 0xe0, 0x1f, 0x00, 0x00, 0xe0, 0x1f, 0x00, 
0x00, 0xe0, 0x1f, 0x00, 0x00, 0xe0, 0x1f, 0x00, 0x00, 0xc0, 0x1f, 0x00, 
0x00, 0x00, 0x1c, 0x00, 0x00, 0xf0, 0x01, 0x00, 0x00, 0xf0, 0x03, 0x00, 
0x00, 0xf0, 0x03, 0x00, 0x00, 0x80, 0x01, 0x00, 0x00, 0x00, 0x00, 0x00, 
0x00, 0x00, 0x00, 0x00, 0x00, 0x00, 0x00, 0x00, 0x00, 0x00, 0x00, 0x00, 
0x00, 0x00, 0x00, 0x00, 0x00, 0x00, 0x00, 0x00, 0x00, 0x00, 0x00, 0x00};