#define x_width 30
#define x_height 30
static char x_bits[] = {
0x00, 0x00, 0x00, 0x00, 0x00, 0x00, 0x00, 0x00, 0x00, 0x00, 0x00, 0x00, 
0x00, 0x00, 0x00, 0x00, 0x00, 0x08, 0x00, 0x00, 0x00, 0x30, 0x00, 0x00, 
0x00, 0x60, 0x00, 0x00, 0x00, 0xc0, 0x00, 0x00, 0x00, 0x80, 0x01, 0x00, 
0x00, 0x00, 0x03, 0x00, 0x00, 0x00, 0x06, 0x00, 0x00, 0x07, 0x3c, 0x00, 
0x00, 0x07, 0x38, 0x00, 0x00, 0xe7, 0x39, 0x00, 0x80, 0xf3, 0x73, 0x00, 
0x80, 0xf7, 0xfb, 0x00, 0x80, 0xff, 0xff, 0x03, 0x80, 0xff, 0xff, 0x00, 
0x80, 0xff, 0xff, 0x00, 0x00, 0xff, 0xff, 0x00, 0x00, 0xff, 0x7f, 0x00, 
0x00, 0xfe, 0x7f, 0x00, 0x00, 0xfc, 0x3f, 0x00, 0x00, 0xf8, 0x1f, 0x00, 
0x00, 0xf0, 0x0f, 0x00, 0x00, 0x00, 0x00, 0x00, 0x00, 0x00, 0x00, 0x00, 
0x00, 0x00, 0x00, 0x00, 0x00, 0x00, 0x00, 0x00, 0x00, 0x00, 0x00, 0x00};