#define x_width 90
#define x_height 90
static char x_bits[] = {
0x00, 0x00, 0x00, 0x00, 0x00, 0x00, 0x00, 0x00, 0x00, 0x00, 0x00, 0x00, 
0x00, 0x00, 0x00, 0x00, 0x00, 0xf8, 0x00, 0x00, 0x00, 0x00, 0x00, 0x00, 
0x00, 0x00, 0x00, 0x00, 0x00, 0xff, 0x07, 0x00, 0x00, 0x00, 0x00, 0x00, 
0x00, 0x00, 0x00, 0x00, 0x80, 0xff, 0x0f, 0x00, 0x00, 0x00, 0x00, 0x00, 
0x00, 0x00, 0x00, 0x00, 0xc0, 0xff, 0x1f, 0x00, 0x00, 0x00, 0x00, 0x00, 
0x00, 0x00, 0x00, 0x00, 0xe0, 0xff, 0x3f, 0x00, 0x00, 0x00, 0x00, 0x00, 
0x00, 0x00, 0x00, 0x00, 0xf0, 0xff, 0x7f, 0x00, 0x00, 0x00, 0x00, 0x00, 
0x00, 0x00, 0x00, 0x00, 0xf0, 0xff, 0x7f, 0x00, 0x00, 0x00, 0x00, 0x00, 
0x00, 0x00, 0x00, 0x00, 0xf8, 0xff, 0x7f, 0x00, 0x00, 0x00, 0x00, 0x00, 
0x00, 0x00, 0x00, 0x00, 0xf8, 0xff, 0xff, 0x00, 0x00, 0x00, 0x00, 0x00, 
0x00, 0x00, 0x00, 0x00, 0xf8, 0xff, 0xff, 0x00, 0x00, 0x00, 0x00, 0x00, 
0x00, 0x00, 0x00, 0x00, 0xf8, 0xff, 0xff, 0x00, 0x00, 0x00, 0x00, 0x00, 
0x00, 0x00, 0x00, 0x00, 0xfc, 0xff, 0xff, 0x01, 0x00, 0x00, 0x00, 0x00, 
0x00, 0x00, 0x00, 0x54, 0xfc, 0xff, 0xff, 0x01, 0x00, 0x1e, 0x00, 0x00, 
0x00, 0xc0, 0x03, 0x01, 0xfc, 0xff, 0xff, 0x01, 0x00, 0x0f, 0x00, 0x00, 
0x00, 0xc0, 0x1f, 0x00, 0xfc, 0xff, 0xff, 0x01, 0x80, 0x01, 0x00, 0x00, 
0x00, 0x00, 0x20, 0x00, 0xfc, 0xff, 0xff, 0x11, 0x00, 0x00, 0x00, 0x00, 
0x00, 0x00, 0x20, 0x00, 0xfe, 0xff, 0xff, 0x03, 0x00, 0x00, 0x00, 0x00, 
0x00, 0x00, 0x04, 0x20, 0xfe, 0xff, 0xff, 0xe3, 0x00, 0x00, 0x00, 0x00, 
0x00, 0x00, 0x00, 0xc0, 0xff, 0xff, 0xff, 0x1f, 0x00, 0x00, 0x00, 0x00, 
0x00, 0x80, 0x01, 0x00, 0xfe, 0xff, 0xff, 0x83, 0x04, 0x00, 0x00, 0x00, 
0x00, 0x00, 0x00, 0x00, 0xff, 0xff, 0xff, 0x07, 0x01, 0x00, 0x00, 0x00, 
0x00, 0x20, 0x00, 0x00, 0xff, 0xff, 0xff, 0x07, 0x04, 0x00, 0x00, 0x00, 
0x00, 0x10, 0x00, 0x00, 0xff, 0xff, 0xff, 0x07, 0x04, 0x00, 0x00, 0x00, 
0x00, 0x00, 0x00, 0x80, 0xff, 0xff, 0xff, 0x0f, 0x10, 0x00, 0x00, 0x00, 
0x00, 0x00, 0x00, 0x80, 0xff, 0xff, 0xff, 0x0f, 0x20, 0x00, 0x00, 0x00, 
0x00, 0x08, 0x00, 0x10, 0xff, 0xff, 0xff, 0x07, 0x00, 0x00, 0x00, 0x00, 
0x00, 0x00, 0x08, 0x00, 0xff, 0xff, 0xff, 0x07, 0x20, 0x00, 0x00, 0x00, 
0x00, 0x40, 0x60, 0x00, 0xff, 0xff, 0xff, 0x07, 0x40, 0x00, 0x00, 0x00, 
0x00, 0x00, 0x04, 0x00, 0xfe, 0x1f, 0xff, 0x03, 0x0a, 0x00, 0x00, 0x00, 
0x00, 0x00, 0xf0, 0xff, 0x9f, 0x00, 0xf8, 0x7f, 0x50, 0x00, 0x00, 0x00, 
0x00, 0x08, 0x88, 0x28, 0x0e, 0x11, 0xc0, 0x83, 0x9f, 0x00, 0x00, 0x00, 
0x00, 0x20, 0x00, 0x00, 0x14, 0x82, 0x04, 0x00, 0x10, 0x00, 0x00, 0x00, 
0x00, 0x00, 0x30, 0x00, 0x01, 0x00, 0x80, 0x08, 0x88, 0x00, 0x00, 0x00, 
0x00, 0x28, 0x00, 0x50, 0x70, 0x00, 0x9a, 0x00, 0x00, 0x00, 0x00, 0x00, 
0x00, 0x20, 0x00, 0x80, 0x00, 0x31, 0x60, 0x05, 0x80, 0x00, 0x00, 0x00, 
0x00, 0x00, 0x00, 0x10, 0x16, 0x80, 0x01, 0x08, 0x00, 0x00, 0x00, 0x00, 
0x00, 0xd0, 0x03, 0x40, 0x00, 0x11, 0xa5, 0x04, 0x00, 0x1f, 0x00, 0x00, 
0x00, 0xc0, 0x1f, 0x40, 0x00, 0x00, 0x04, 0x00, 0xe0, 0x07, 0x00, 0x00, 
0x00, 0x20, 0xe0, 0x40, 0x31, 0xe0, 0x30, 0x86, 0x07, 0x00, 0x00, 0x00, 
0x00, 0x40, 0x00, 0x1c, 0x06, 0x00, 0x86, 0x7f, 0x20, 0x00, 0x00, 0x00, 
0x00, 0x00, 0x00, 0xe0, 0xff, 0xff, 0xcf, 0x03, 0x00, 0x00, 0x00, 0x00, 
0x00, 0x00, 0x02, 0x00, 0xfe, 0xff, 0xff, 0x03, 0x10, 0x00, 0x00, 0x00, 
0x00, 0x00, 0x08, 0x20, 0xff, 0xff, 0xff, 0x07, 0x08, 0x00, 0x00, 0x00, 
0x00, 0x00, 0x20, 0x00, 0xff, 0xff, 0xff, 0x07, 0x04, 0x00, 0x00, 0x00, 
0x00, 0x00, 0xc0, 0x00, 0xff, 0xff, 0xff, 0xa7, 0x05, 0x00, 0x00, 0x00, 
0x00, 0x00, 0x00, 0x82, 0xff, 0xff, 0xff, 0x0f, 0x00, 0x00, 0x00, 0x00, 
0x00, 0x00, 0x00, 0x80, 0xff, 0xff, 0xff, 0x8f, 0x02, 0x00, 0x00, 0x00, 
0x00, 0x00, 0x00, 0x08, 0xff, 0xff, 0xff, 0x07, 0x00, 0x00, 0x00, 0x00, 
0x00, 0x00, 0x00, 0x30, 0xff, 0xff, 0xff, 0x07, 0x00, 0x00, 0x00, 0x00, 
0x00, 0x00, 0x00, 0x00, 0xff, 0xff, 0xff, 0x27, 0x00, 0x00, 0x00, 0x00, 
0x00, 0x00, 0x00, 0x00, 0xfe, 0xff, 0xff, 0x23, 0x00, 0x00, 0x00, 0x00, 
0x00, 0x00, 0x00, 0xe0, 0xff, 0xff, 0xff, 0x1f, 0x00, 0x00, 0x00, 0x00, 
0x00, 0x00, 0x00, 0x10, 0xfe, 0xff, 0xff, 0xe3, 0x01, 0x00, 0x00, 0x00, 
0x00, 0x00, 0x00, 0x00, 0xfe, 0xff, 0xff, 0x07, 0x5e, 0x00, 0x00, 0x00, 
0x00, 0x00, 0x00, 0x00, 0xff, 0xff, 0xff, 0x17, 0x28, 0x00, 0x00, 0x00, 
0x00, 0x00, 0x00, 0x00, 0xff, 0xff, 0xff, 0x07, 0x00, 0x00, 0x00, 0x00, 
0x00, 0x00, 0x00, 0x80, 0xff, 0xff, 0xff, 0x0f, 0x00, 0x00, 0x00, 0x00, 
0x00, 0x00, 0x00, 0x80, 0xff, 0xff, 0xff, 0x0f, 0x00, 0x00, 0x00, 0x00, 
0x00, 0x00, 0x00, 0x00, 0xff, 0xff, 0xff, 0x07, 0x00, 0x00, 0x00, 0x00, 
0x00, 0x00, 0x00, 0x00, 0xff, 0xff, 0xff, 0x07, 0x00, 0x00, 0x00, 0x00, 
0x00, 0x00, 0x00, 0x00, 0xff, 0xff, 0xff, 0x07, 0x00, 0x00, 0x00, 0x00, 
0x00, 0x00, 0x00, 0x00, 0xfa, 0xff, 0xff, 0x03, 0x00, 0x00, 0x00, 0x00, 
0x00, 0x00, 0x00, 0x00, 0xf8, 0xff, 0xff, 0x01, 0x00, 0x00, 0x00, 0x00, 
0x00, 0x00, 0x00, 0x00, 0xf8, 0xff, 0xff, 0x00, 0x00, 0x00, 0x00, 0x00, 
0x00, 0x00, 0x00, 0x00, 0xf8, 0xff, 0xff, 0x00, 0x00, 0x00, 0x00, 0x00, 
0x00, 0x00, 0x00, 0x00, 0xf0, 0xff, 0xff, 0x00, 0x00, 0x00, 0x00, 0x00, 
0x00, 0x00, 0x00, 0x00, 0xf0, 0xff, 0xff, 0x00, 0x00, 0x00, 0x00, 0x00, 
0x00, 0x00, 0x00, 0x00, 0xf0, 0xff, 0x7f, 0x00, 0x00, 0x00, 0x00, 0x00, 
0x00, 0x00, 0x00, 0x00, 0xf0, 0xff, 0x7f, 0x00, 0x00, 0x00, 0x00, 0x00, 
0x00, 0x00, 0x00, 0x00, 0xe0, 0xff, 0x7f, 0x00, 0x00, 0x00, 0x00, 0x00, 
0x00, 0x00, 0x00, 0x00, 0xe0, 0xff, 0x7f, 0x00, 0x00, 0x00, 0x00, 0x00, 
0x00, 0x00, 0x00, 0x00, 0xe0, 0xff, 0x7f, 0x00, 0x00, 0x00, 0x00, 0x00, 
0x00, 0x00, 0x00, 0x00, 0xc0, 0xff, 0x3f, 0x00, 0x00, 0x00, 0x00, 0x00, 
0x00, 0x00, 0x00, 0x00, 0xc0, 0xff, 0x1f, 0x00, 0x00, 0x00, 0x00, 0x00, 
0x00, 0x00, 0x00, 0x00, 0xc0, 0xff, 0x1f, 0x00, 0x00, 0x00, 0x00, 0x00, 
0x00, 0x00, 0x00, 0x00, 0x80, 0xff, 0x0f, 0x00, 0x00, 0x00, 0x00, 0x00, 
0x00, 0x00, 0x00, 0x00, 0x80, 0xff, 0x0f, 0x00, 0x00, 0x00, 0x00, 0x00, 
0x00, 0x00, 0x00, 0x00, 0x00, 0xff, 0x07, 0x00, 0x00, 0x00, 0x00, 0x00, 
0x00, 0x00, 0x00, 0x00, 0x00, 0xff, 0x07, 0x00, 0x00, 0x00, 0x00, 0x00, 
0x00, 0x00, 0x00, 0x00, 0x00, 0xfe, 0x03, 0x00, 0x00, 0x00, 0x00, 0x00, 
0x00, 0x00, 0x00, 0x00, 0x00, 0xfe, 0x03, 0x00, 0x00, 0x00, 0x00, 0x00, 
0x00, 0x00, 0x00, 0x00, 0x00, 0xfc, 0x01, 0x00, 0x00, 0x00, 0x00, 0x00, 
0x00, 0x00, 0x00, 0x00, 0x00, 0xf8, 0x01, 0x00, 0x00, 0x00, 0x00, 0x00, 
0x00, 0x00, 0x00, 0x00, 0x00, 0xf8, 0x01, 0x00, 0x00, 0x00, 0x00, 0x00, 
0x00, 0x00, 0x00, 0x00, 0x00, 0xf0, 0x00, 0x00, 0x00, 0x00, 0x00, 0x00, 
0x00, 0x00, 0x00, 0x00, 0x00, 0x70, 0x00, 0x00, 0x00, 0x00, 0x00, 0x00, 
0x00, 0x00, 0x00, 0x00, 0x00, 0x70, 0x00, 0x00, 0x00, 0x00, 0x00, 0x00, 
0x00, 0x00, 0x00, 0x00, 0x00, 0x00, 0x00, 0x00, 0x00, 0x00, 0x00, 0x00, 
0x00, 0x00, 0x00, 0x00, 0x00, 0x00, 0x00, 0x00, 0x00, 0x00, 0x00, 0x00};