#define x_width 30
#define x_height 30
static char x_bits[] = {
0x00, 0x00, 0x00, 0x00, 0x00, 0x00, 0x00, 0x00, 0x10, 0x00, 0x00, 0x00, 
0x04, 0x00, 0x00, 0x00, 0x1e, 0x00, 0x40, 0x03, 0x1e, 0x00, 0xc0, 0x03, 
0x0c, 0xe8, 0xe0, 0x02, 0x80, 0x03, 0xab, 0x05, 0x80, 0x00, 0x10, 0x00, 
0x60, 0x00, 0xc0, 0x00, 0x00, 0x00, 0x80, 0x00, 0x20, 0x00, 0x00, 0x00, 
0x20, 0x00, 0x80, 0x00, 0x20, 0x00, 0x00, 0x00, 0x20, 0x00, 0x80, 0x00, 
0x20, 0x00, 0x00, 0x00, 0x20, 0x00, 0x80, 0x00, 0x00, 0x00, 0x00, 0x00, 
0x40, 0x00, 0x80, 0x00, 0x40, 0x00, 0x40, 0x00, 0x80, 0x00, 0x00, 0x00, 
0x00, 0x00, 0x20, 0x00, 0x38, 0x0b, 0xc5, 0x03, 0x28, 0xb0, 0xa0, 0x01, 
0x30, 0x00, 0xc0, 0x01, 0x18, 0x00, 0x80, 0x01, 0x00, 0x00, 0x00, 0x02, 
0x00, 0x00, 0x00, 0x00, 0x00, 0x00, 0x00, 0x00, 0x00, 0x00, 0x00, 0x00};