#define x_width 30
#define x_height 30
static char x_bits[] = {
0x00, 0x00, 0x00, 0x00, 0x00, 0x00, 0x00, 0x00, 0x00, 0x00, 0x00, 0x00, 
0x00, 0x00, 0x00, 0x00, 0x00, 0x00, 0x00, 0x00, 0x00, 0x14, 0x14, 0x00, 
0x00, 0x08, 0x18, 0x00, 0x00, 0x1c, 0x08, 0x00, 0x00, 0x0c, 0x0c, 0x00, 
0x00, 0xb8, 0x1d, 0x00, 0x00, 0x1c, 0x0f, 0x00, 0x00, 0x78, 0x1f, 0x00, 
0x00, 0xf0, 0x07, 0x00, 0x00, 0xf0, 0x0f, 0x00, 0x00, 0xc0, 0x0b, 0x00, 
0xc0, 0xf9, 0x87, 0x04, 0x90, 0xff, 0xff, 0x01, 0x50, 0xfa, 0x7f, 0x01, 
0x00, 0x94, 0x0b, 0x00, 0x00, 0xe8, 0x05, 0x00, 0x00, 0xf8, 0x0a, 0x00, 
0x00, 0xc0, 0x02, 0x00, 0x00, 0xe0, 0x01, 0x00, 0x00, 0xe0, 0x03, 0x00, 
0x00, 0xe0, 0x03, 0x00, 0x00, 0xc0, 0x01, 0x00, 0x00, 0xc0, 0x00, 0x00, 
0x00, 0x00, 0x00, 0x00, 0x00, 0x00, 0x00, 0x00, 0x00, 0x00, 0x00, 0x00};