#define x_width 90
#define x_height 90
static char x_bits[] = {
0x00, 0x00, 0x00, 0x00, 0x00, 0x00, 0x00, 0x00, 0x00, 0x00, 0x00, 0x00, 
0x00, 0x00, 0x00, 0x00, 0x00, 0x7c, 0x00, 0x00, 0x00, 0x00, 0x00, 0x00, 
0x00, 0x00, 0x00, 0x00, 0x00, 0x7c, 0x00, 0x00, 0x00, 0x00, 0x00, 0x00, 
0x00, 0x00, 0x00, 0x00, 0x00, 0xfe, 0x00, 0x00, 0x00, 0x00, 0x00, 0x00, 
0x00, 0x00, 0x00, 0x00, 0x00, 0xff, 0x01, 0x00, 0x00, 0x00, 0x00, 0x00, 
0x00, 0x00, 0x00, 0x00, 0x00, 0xff, 0x01, 0x00, 0x00, 0x00, 0x00, 0x00, 
0x00, 0x00, 0x00, 0x00, 0x80, 0xff, 0x03, 0x00, 0x00, 0x00, 0x00, 0x00, 
0x00, 0x00, 0x00, 0x00, 0x80, 0xff, 0x03, 0x00, 0x00, 0x00, 0x00, 0x00, 
0x00, 0x00, 0x00, 0x00, 0xc0, 0xff, 0x07, 0x00, 0x00, 0x00, 0x00, 0x00, 
0x00, 0x00, 0x00, 0x00, 0xc0, 0xff, 0x07, 0x00, 0x00, 0x00, 0x00, 0x00, 
0x00, 0x00, 0x00, 0x00, 0xe0, 0xff, 0x0f, 0x00, 0x00, 0x00, 0x00, 0x00, 
0x00, 0x00, 0x00, 0x00, 0xe0, 0xff, 0x0f, 0x00, 0x00, 0x00, 0x00, 0x00, 
0x00, 0x00, 0x00, 0x00, 0xe0, 0xff, 0x0f, 0x00, 0x00, 0x00, 0x00, 0x00, 
0x00, 0x00, 0x00, 0x00, 0xf0, 0xff, 0x1f, 0x00, 0x00, 0x00, 0x00, 0x00, 
0x00, 0x00, 0x00, 0x00, 0xf0, 0xff, 0x1f, 0x00, 0x00, 0x00, 0x00, 0x00, 
0x00, 0x00, 0x00, 0x00, 0xf0, 0xff, 0x1f, 0x00, 0x00, 0x00, 0x00, 0x00, 
0x00, 0x00, 0x00, 0x00, 0xf8, 0xff, 0x3f, 0x00, 0x00, 0x00, 0x00, 0x00, 
0x00, 0x00, 0x00, 0x00, 0xf8, 0xff, 0x3f, 0x00, 0x00, 0x00, 0x00, 0x00, 
0x00, 0x00, 0x00, 0x00, 0xf8, 0xff, 0x3f, 0x00, 0x00, 0x00, 0x00, 0x00, 
0x00, 0x00, 0x00, 0x00, 0xf8, 0xff, 0x3f, 0x00, 0x00, 0x00, 0x00, 0x00, 
0x00, 0x00, 0x00, 0x00, 0xfc, 0xff, 0x7f, 0x00, 0x00, 0x00, 0x00, 0x00, 
0x00, 0x00, 0x00, 0x00, 0xfc, 0xff, 0x7f, 0x00, 0x00, 0x00, 0x00, 0x00, 
0x00, 0x00, 0x00, 0x00, 0xfc, 0xff, 0x7f, 0x00, 0x00, 0x00, 0x00, 0x00, 
0x00, 0x00, 0x00, 0x00, 0xfc, 0xff, 0x7f, 0x00, 0x00, 0x00, 0x00, 0x00, 
0x00, 0x20, 0x00, 0x00, 0xfe, 0xff, 0xff, 0x00, 0x00, 0x04, 0x00, 0x00, 
0x00, 0x00, 0x00, 0x00, 0xfe, 0xff, 0xff, 0x00, 0x00, 0x41, 0x00, 0x00, 
0x00, 0x88, 0x00, 0x00, 0xfe, 0xff, 0xff, 0x00, 0x00, 0x00, 0x00, 0x00, 
0x00, 0xe8, 0x00, 0x00, 0xff, 0xff, 0xff, 0x01, 0x00, 0x8f, 0x00, 0x00, 
0x00, 0xe0, 0x03, 0x00, 0xff, 0xff, 0xff, 0x01, 0x80, 0x0f, 0x00, 0x00, 
0x00, 0x88, 0x07, 0x00, 0xff, 0xff, 0xff, 0x01, 0xc0, 0x03, 0x00, 0x00, 
0x00, 0x60, 0x38, 0x00, 0xff, 0xff, 0xff, 0x01, 0x38, 0x20, 0x00, 0x00, 
0x00, 0x00, 0xc0, 0x03, 0xff, 0xff, 0xff, 0x81, 0x07, 0x10, 0x00, 0x00, 
0x00, 0x00, 0x00, 0x3c, 0xff, 0xff, 0xff, 0x79, 0x00, 0x00, 0x00, 0x00, 
0x00, 0x00, 0x00, 0xc0, 0xff, 0xff, 0xff, 0x07, 0x00, 0x00, 0x00, 0x00, 
0x00, 0x00, 0x00, 0x00, 0xff, 0xff, 0xff, 0x01, 0x00, 0x00, 0x00, 0x00, 
0x00, 0x10, 0x00, 0x00, 0xff, 0xff, 0xff, 0x01, 0x00, 0x00, 0x00, 0x00, 
0x00, 0x08, 0x01, 0x00, 0xff, 0xff, 0xff, 0x01, 0x00, 0x12, 0x00, 0x00, 
0x00, 0x00, 0x00, 0x00, 0xff, 0xff, 0xff, 0x01, 0x00, 0x02, 0x00, 0x00, 
0x00, 0xe0, 0x00, 0x00, 0xff, 0xff, 0xff, 0x01, 0x00, 0x0e, 0x00, 0x00, 
0x00, 0xe0, 0x03, 0x00, 0xff, 0xff, 0xff, 0x01, 0x80, 0x2f, 0x00, 0x00, 
0x00, 0x80, 0x07, 0x00, 0xff, 0xff, 0xff, 0x01, 0xc0, 0x03, 0x00, 0x00, 
0x00, 0x30, 0x38, 0x00, 0xff, 0xff, 0xff, 0x01, 0x38, 0x0c, 0x00, 0x00, 
0x00, 0x80, 0xc0, 0x03, 0xff, 0xff, 0xff, 0x81, 0x07, 0x00, 0x00, 0x00, 
0x00, 0x00, 0x00, 0x3c, 0xff, 0xff, 0xff, 0x79, 0x00, 0x00, 0x00, 0x00, 
0x00, 0x00, 0x00, 0xc0, 0xff, 0xff, 0xff, 0x07, 0x00, 0x00, 0x00, 0x00, 
0x00, 0x00, 0x00, 0x00, 0xff, 0xff, 0xff, 0x01, 0x00, 0x00, 0x00, 0x00, 
0x00, 0x10, 0x00, 0x00, 0xff, 0xff, 0xff, 0x01, 0x00, 0x0a, 0x00, 0x00, 
0x00, 0x40, 0x00, 0x00, 0xff, 0xff, 0xff, 0x01, 0x00, 0x00, 0x00, 0x00, 
0x00, 0x00, 0x01, 0x00, 0xff, 0xff, 0xff, 0x01, 0x00, 0x01, 0x00, 0x00, 
0x00, 0xe8, 0x00, 0x00, 0xff, 0xff, 0xff, 0x01, 0x00, 0x4e, 0x00, 0x00, 
0x00, 0xf0, 0x03, 0x00, 0xff, 0xff, 0xff, 0x01, 0x80, 0x4f, 0x00, 0x00, 
0x00, 0x80, 0x07, 0x00, 0xff, 0xff, 0xff, 0x01, 0xc0, 0x13, 0x00, 0x00, 
0x00, 0x00, 0x38, 0x00, 0xff, 0xff, 0xff, 0x01, 0x38, 0x08, 0x00, 0x00, 
0x00, 0xc0, 0xc0, 0x03, 0xff, 0xff, 0xff, 0x81, 0x07, 0x00, 0x00, 0x00, 
0x00, 0x00, 0x00, 0x3c, 0xff, 0xff, 0xff, 0x79, 0x00, 0x00, 0x00, 0x00, 
0x00, 0x00, 0x00, 0xc0, 0xff, 0xff, 0xff, 0x07, 0x00, 0x00, 0x00, 0x00, 
0x00, 0x00, 0x00, 0x00, 0xff, 0xff, 0xff, 0x01, 0x00, 0x00, 0x00, 0x00, 
0x00, 0x00, 0x00, 0x00, 0xff, 0xff, 0xff, 0x01, 0x00, 0x00, 0x00, 0x00, 
0x00, 0x20, 0x00, 0x00, 0xff, 0xff, 0xff, 0x01, 0x00, 0x14, 0x00, 0x00, 
0x00, 0x88, 0x00, 0x00, 0xff, 0xff, 0xff, 0x01, 0x00, 0x01, 0x00, 0x00, 
0x00, 0xe0, 0x00, 0x00, 0xff, 0xff, 0xff, 0x01, 0x00, 0x2e, 0x00, 0x00, 
0x00, 0xe8, 0x03, 0x00, 0xff, 0xff, 0xff, 0x01, 0x80, 0x2f, 0x00, 0x00, 
0x00, 0xa0, 0x07, 0x00, 0xff, 0xff, 0xff, 0x01, 0xc0, 0x13, 0x00, 0x00, 
0x00, 0xc0, 0x38, 0x00, 0xff, 0xff, 0xff, 0x01, 0x38, 0x04, 0x00, 0x00, 
0x00, 0x00, 0xc0, 0x03, 0xff, 0xff, 0xff, 0x81, 0x07, 0x00, 0x00, 0x00, 
0x00, 0x00, 0x00, 0x3c, 0xff, 0xff, 0xff, 0x79, 0x00, 0x00, 0x00, 0x00, 
0x00, 0x00, 0x00, 0xc0, 0xff, 0xff, 0xff, 0x07, 0x00, 0x00, 0x00, 0x00, 
0x00, 0x00, 0x00, 0x00, 0xff, 0xff, 0xff, 0x01, 0x00, 0x00, 0x00, 0x00, 
0x00, 0x00, 0x00, 0x00, 0xff, 0xff, 0xff, 0x01, 0x00, 0x00, 0x00, 0x00, 
0x00, 0x00, 0x00, 0x00, 0xfe, 0xff, 0xff, 0x01, 0x00, 0x00, 0x00, 0x00, 
0x00, 0x00, 0x00, 0x00, 0xfe, 0xff, 0xff, 0x01, 0x00, 0x00, 0x00, 0x00, 
0x00, 0x00, 0x00, 0x00, 0xfe, 0xff, 0xff, 0x01, 0x00, 0x00, 0x00, 0x00, 
0x00, 0x00, 0x00, 0x00, 0xfe, 0xff, 0xff, 0x00, 0x00, 0x00, 0x00, 0x00, 
0x00, 0x00, 0x00, 0x00, 0xfc, 0xff, 0xff, 0x00, 0x00, 0x00, 0x00, 0x00, 
0x00, 0x00, 0x00, 0x00, 0xfc, 0xff, 0xff, 0x00, 0x00, 0x00, 0x00, 0x00, 
0x00, 0x00, 0x00, 0x00, 0xfc, 0xff, 0x7f, 0x00, 0x00, 0x00, 0x00, 0x00, 
0x00, 0x00, 0x00, 0x00, 0xf8, 0xff, 0x7f, 0x00, 0x00, 0x00, 0x00, 0x00, 
0x00, 0x00, 0x00, 0x00, 0xf8, 0xff, 0x3f, 0x00, 0x00, 0x00, 0x00, 0x00, 
0x00, 0x00, 0x00, 0x00, 0xf0, 0xff, 0x3f, 0x00, 0x00, 0x00, 0x00, 0x00, 
0x00, 0x00, 0x00, 0x00, 0xf0, 0xff, 0x1f, 0x00, 0x00, 0x00, 0x00, 0x00, 
0x00, 0x00, 0x00, 0x00, 0xe0, 0xff, 0x0f, 0x00, 0x00, 0x00, 0x00, 0x00, 
0x00, 0x00, 0x00, 0x00, 0xe0, 0xff, 0x0f, 0x00, 0x00, 0x00, 0x00, 0x00, 
0x00, 0x00, 0x00, 0x00, 0xe0, 0xff, 0x0f, 0x00, 0x00, 0x00, 0x00, 0x00, 
0x00, 0x00, 0x00, 0x00, 0xc0, 0xff, 0x07, 0x00, 0x00, 0x00, 0x00, 0x00, 
0x00, 0x00, 0x00, 0x00, 0xc0, 0xff, 0x07, 0x00, 0x00, 0x00, 0x00, 0x00, 
0x00, 0x00, 0x00, 0x00, 0x80, 0xff, 0x03, 0x00, 0x00, 0x00, 0x00, 0x00, 
0x00, 0x00, 0x00, 0x00, 0x80, 0xff, 0x03, 0x00, 0x00, 0x00, 0x00, 0x00, 
0x00, 0x00, 0x00, 0x00, 0x00, 0xff, 0x01, 0x00, 0x00, 0x00, 0x00, 0x00, 
0x00, 0x00, 0x00, 0x00, 0x00, 0xff, 0x01, 0x00, 0x00, 0x00, 0x00, 0x00, 
0x00, 0x00, 0x00, 0x00, 0x00, 0xfe, 0x00, 0x00, 0x00, 0x00, 0x00, 0x00};