#define x_width 30
#define x_height 30
static char x_bits[] = {
0x00, 0x00, 0x00, 0x00, 0x00, 0x00, 0x00, 0x00, 0x00, 0x00, 0x00, 0x00, 
0x00, 0x00, 0x00, 0x00, 0x00, 0x00, 0x00, 0x00, 0x00, 0x00, 0x00, 0x00, 
0x40, 0x00, 0x00, 0x00, 0xe0, 0x01, 0x00, 0x00, 0xc0, 0x03, 0x10, 0x00, 
0xc0, 0x01, 0x78, 0x00, 0x80, 0x00, 0xf0, 0x00, 0x00, 0x00, 0x70, 0x00, 
0x00, 0x20, 0x20, 0x00, 0x00, 0xf0, 0x00, 0x00, 0x00, 0xe0, 0x01, 0x00, 
0x00, 0xe0, 0x00, 0x00, 0x00, 0x40, 0x00, 0x00, 0x00, 0x00, 0x00, 0x00, 
0x00, 0x00, 0x00, 0x00, 0x00, 0x00, 0x00, 0x00, 0x00, 0x00, 0x00, 0x00, 
0x00, 0x01, 0x40, 0x00, 0x80, 0x07, 0xe0, 0x01, 0x00, 0x0f, 0xc0, 0x03, 
0x00, 0x07, 0xc0, 0x01, 0x00, 0x02, 0x80, 0x00, 0x00, 0x00, 0x00, 0x00, 
0x00, 0x00, 0x00, 0x00, 0x00, 0x00, 0x00, 0x00, 0x00, 0x00, 0x00, 0x00};