#define x_width 90
#define x_height 90
static char x_bits[] = {
0x00, 0x00, 0x00, 0x00, 0x00, 0x00, 0x00, 0x00, 0x00, 0x00, 0x00, 0x00, 
0x00, 0x00, 0x00, 0x00, 0x00, 0x00, 0x00, 0x00, 0x00, 0x00, 0x00, 0x00, 
0x00, 0x00, 0x00, 0x00, 0x00, 0x00, 0x00, 0x00, 0x00, 0x00, 0x00, 0x00, 
0x00, 0x00, 0x00, 0x00, 0x00, 0x00, 0x00, 0x00, 0x00, 0x00, 0x00, 0x00, 
0x00, 0x00, 0x00, 0x00, 0x00, 0x00, 0x00, 0x00, 0x00, 0x00, 0x00, 0x00, 
0x00, 0x00, 0x00, 0x00, 0x00, 0x00, 0x00, 0x00, 0x00, 0x00, 0x00, 0x00, 
0x00, 0x00, 0x00, 0x00, 0x01, 0x00, 0x00, 0x00, 0x00, 0x00, 0x00, 0x00, 
0x00, 0x00, 0x80, 0x20, 0x80, 0x80, 0x00, 0x00, 0x00, 0x00, 0x00, 0x00, 
0x00, 0x00, 0x08, 0x00, 0x10, 0x02, 0x08, 0x00, 0x00, 0x00, 0x00, 0x00, 
0x00, 0x00, 0x80, 0x02, 0x02, 0x11, 0x40, 0x08, 0x00, 0x00, 0x00, 0x00, 
0x00, 0x80, 0x20, 0x14, 0x06, 0x02, 0x00, 0x00, 0x01, 0x00, 0x00, 0x00, 
0x00, 0x20, 0x04, 0x00, 0x40, 0x09, 0x06, 0x34, 0x00, 0x00, 0x00, 0x00, 
0x00, 0x08, 0x01, 0x00, 0x00, 0x00, 0x40, 0x02, 0x20, 0x00, 0x00, 0x00, 
0x00, 0x24, 0x50, 0x00, 0x2c, 0x00, 0x00, 0x09, 0x80, 0x00, 0x00, 0x00, 
0x00, 0x60, 0x00, 0x00, 0x24, 0x82, 0x02, 0x88, 0x04, 0x02, 0x00, 0x00, 
0x00, 0x68, 0x00, 0x00, 0x60, 0x00, 0x48, 0x00, 0x08, 0x00, 0x00, 0x00, 
0x00, 0x60, 0x00, 0x00, 0x60, 0x00, 0x00, 0x08, 0x21, 0x08, 0x00, 0x00, 
0x00, 0xc4, 0x08, 0x00, 0x60, 0x00, 0x00, 0x80, 0x08, 0x00, 0x00, 0x00, 
0x00, 0x80, 0x02, 0x00, 0x44, 0x00, 0x00, 0x00, 0x00, 0x01, 0x00, 0x00, 
0x80, 0x08, 0x01, 0x00, 0x40, 0x02, 0x00, 0x00, 0x82, 0x00, 0x00, 0x00, 
0x00, 0x20, 0x00, 0x00, 0x44, 0x01, 0x00, 0x00, 0x80, 0x04, 0x00, 0x00, 
0x60, 0x00, 0x00, 0x00, 0x08, 0x00, 0x00, 0x00, 0x10, 0x40, 0x00, 0x00, 
0x08, 0x00, 0x00, 0x00, 0x10, 0x88, 0x00, 0x00, 0x00, 0x22, 0x00, 0x00, 
0x00, 0x09, 0x00, 0x20, 0x80, 0x00, 0x90, 0x00, 0x80, 0x80, 0x00, 0x00, 
0x80, 0x00, 0x80, 0x00, 0x80, 0x04, 0x00, 0x08, 0x00, 0x00, 0x00, 0x00, 
0xc8, 0x00, 0x00, 0x00, 0x80, 0x00, 0x00, 0x00, 0x00, 0x00, 0x00, 0x00, 
0x00, 0x00, 0x00, 0x00, 0x88, 0x00, 0x10, 0x00, 0x00, 0x10, 0x00, 0x00, 
0x80, 0x00, 0x01, 0x00, 0x00, 0x09, 0xa8, 0x00, 0x00, 0x00, 0x01, 0x00, 
0x20, 0x00, 0x00, 0x00, 0x10, 0x00, 0x20, 0x00, 0x00, 0x04, 0x00, 0x00, 
0x08, 0x00, 0x00, 0x00, 0x00, 0x08, 0x94, 0x20, 0x00, 0x20, 0x04, 0x00, 
0x20, 0x40, 0x00, 0x00, 0x00, 0x00, 0x10, 0x00, 0x00, 0x00, 0x00, 0x00, 
0x00, 0x00, 0x00, 0x00, 0x80, 0x00, 0x10, 0x00, 0x00, 0x80, 0x00, 0x00, 
0x01, 0x00, 0x08, 0x00, 0x04, 0x00, 0x40, 0x00, 0x00, 0x10, 0x00, 0x00, 
0x00, 0x00, 0x00, 0x20, 0x00, 0x00, 0x60, 0x40, 0x00, 0x80, 0x08, 0x00, 
0x04, 0x00, 0x00, 0x01, 0x00, 0x00, 0x04, 0x00, 0x40, 0x00, 0x00, 0x00, 
0x00, 0x08, 0x00, 0x00, 0x00, 0x00, 0x00, 0x00, 0x00, 0x02, 0x04, 0x00, 
0x04, 0x00, 0x20, 0x00, 0x00, 0x00, 0x00, 0x40, 0x00, 0x01, 0x00, 0x00, 
0x30, 0x00, 0x00, 0x00, 0x00, 0x08, 0x00, 0x00, 0x00, 0x10, 0x00, 0x00, 
0x68, 0x00, 0x00, 0x00, 0x00, 0x02, 0x00, 0x00, 0x10, 0x79, 0x00, 0x00, 
0x7c, 0x00, 0x00, 0x00, 0x00, 0x00, 0x00, 0x00, 0x00, 0xf8, 0x03, 0x00, 
0x7c, 0x00, 0x20, 0x00, 0x00, 0x00, 0x00, 0x00, 0x00, 0xfc, 0x0f, 0x00, 
0x7c, 0x02, 0x20, 0x00, 0x01, 0x00, 0x10, 0x00, 0x01, 0xfe, 0x1f, 0x00, 
0x1e, 0x00, 0x80, 0x00, 0x00, 0x00, 0x00, 0x00, 0x00, 0xff, 0x3f, 0x00, 
0x1e, 0x00, 0x00, 0x00, 0x00, 0x00, 0x00, 0x80, 0x00, 0xff, 0xff, 0x00, 
0x1e, 0x00, 0x00, 0x00, 0x00, 0x00, 0x00, 0x00, 0x80, 0xff, 0xff, 0x00, 
0x1f, 0x00, 0x00, 0x00, 0x00, 0x00, 0x00, 0x80, 0xc0, 0xff, 0xff, 0x00, 
0x3f, 0x00, 0x00, 0x00, 0x00, 0x00, 0x00, 0x00, 0xc0, 0xff, 0x1f, 0x00, 
0x3f, 0x00, 0x00, 0x00, 0x00, 0x00, 0x00, 0x00, 0xe0, 0xff, 0x07, 0x00, 
0x7e, 0x01, 0x20, 0x00, 0x00, 0x02, 0x00, 0x10, 0xf0, 0xff, 0x03, 0x00, 
0x7e, 0x00, 0x00, 0x00, 0x00, 0x00, 0x00, 0x00, 0xfc, 0xff, 0x00, 0x00, 
0x7c, 0x00, 0x00, 0x00, 0x00, 0x00, 0x01, 0x00, 0xff, 0x3f, 0x00, 0x00, 
0x78, 0x00, 0x00, 0x40, 0x00, 0x02, 0x00, 0x80, 0xff, 0x0f, 0x00, 0x00, 
0x30, 0x00, 0x00, 0x00, 0x00, 0x00, 0x00, 0xc4, 0xff, 0x81, 0x00, 0x00, 
0x60, 0x02, 0x00, 0x00, 0x00, 0x00, 0x00, 0xd0, 0x3f, 0x00, 0x00, 0x00, 
0x00, 0x00, 0x00, 0x00, 0x00, 0x00, 0x40, 0x40, 0x03, 0x00, 0x01, 0x00, 
0x00, 0x00, 0x00, 0x00, 0x00, 0x00, 0x00, 0x00, 0x00, 0x04, 0x06, 0x00, 
0x00, 0x00, 0x00, 0x00, 0x00, 0x00, 0x00, 0x00, 0x00, 0x00, 0x00, 0x00, 
0x10, 0x00, 0x00, 0x00, 0x00, 0x00, 0x00, 0x00, 0x00, 0x80, 0x02, 0x00, 
0x04, 0x00, 0x00, 0x00, 0x00, 0x00, 0x00, 0x08, 0x00, 0x00, 0x00, 0x00, 
0x40, 0x00, 0x00, 0x00, 0x00, 0x00, 0x00, 0x00, 0x10, 0x0a, 0x00, 0x00, 
0x00, 0x10, 0x00, 0x00, 0x00, 0x00, 0x00, 0x00, 0x00, 0x20, 0x00, 0x00, 
0x40, 0x04, 0x00, 0x00, 0x00, 0x00, 0x00, 0x00, 0x00, 0x08, 0x00, 0x00, 
0x88, 0x00, 0x00, 0x00, 0x00, 0x00, 0x00, 0x00, 0x41, 0x04, 0x00, 0x00, 
0x00, 0x11, 0x01, 0x00, 0x00, 0x00, 0x00, 0x00, 0x00, 0x20, 0x00, 0x00, 
0x00, 0x00, 0x00, 0x40, 0x00, 0x00, 0x08, 0x00, 0x00, 0x04, 0x00, 0x00, 
0x90, 0x12, 0x20, 0x41, 0x80, 0x00, 0x00, 0x10, 0x00, 0x00, 0x00, 0x00, 
0x00, 0x00, 0x00, 0xc0, 0x00, 0x00, 0x00, 0x01, 0x40, 0x10, 0x00, 0x00, 
0x00, 0x04, 0x01, 0x50, 0x00, 0x00, 0x00, 0x01, 0x08, 0x01, 0x00, 0x00, 
0x00, 0x01, 0x0f, 0x50, 0x02, 0x2c, 0x12, 0x00, 0x03, 0x00, 0x00, 0x00, 
0x10, 0xc0, 0x00, 0x40, 0x02, 0x00, 0x00, 0x00, 0x00, 0x01, 0x00, 0x00, 
0x40, 0x80, 0x00, 0x88, 0x00, 0x00, 0x00, 0x40, 0x00, 0x00, 0x00, 0x00, 
0x00, 0x84, 0x48, 0x20, 0x00, 0x00, 0x00, 0x00, 0x10, 0x00, 0x00, 0x00, 
0x00, 0xc8, 0x40, 0x02, 0x00, 0x00, 0x00, 0x00, 0x08, 0x00, 0x00, 0x00, 
0x00, 0xc2, 0x00, 0x21, 0x00, 0x00, 0x00, 0x01, 0x00, 0x00, 0x00, 0x00, 
0x20, 0xd0, 0x04, 0x00, 0x84, 0x00, 0x20, 0x00, 0x00, 0x00, 0x00, 0x00, 
0x00, 0xc0, 0x00, 0x48, 0x81, 0x20, 0x02, 0x90, 0x00, 0x00, 0x00, 0x00, 
0x00, 0x00, 0x00, 0x00, 0x80, 0x00, 0x04, 0x00, 0x00, 0x00, 0x00, 0x00, 
0x80, 0x40, 0x00, 0x00, 0x80, 0x08, 0x00, 0x00, 0x00, 0x00, 0x00, 0x00, 
0x00, 0x10, 0x40, 0x04, 0x09, 0x00, 0x08, 0x01, 0x00, 0x00, 0x00, 0x00, 
0x00, 0x00, 0x00, 0x40, 0x00, 0xa0, 0x02, 0x02, 0x00, 0x00, 0x00, 0x00, 
0x00, 0x00, 0x00, 0x00, 0xc1, 0x20, 0x00, 0x00, 0x00, 0x00, 0x00, 0x00, 
0x00, 0x00, 0x00, 0x00, 0x00, 0x04, 0x04, 0x00, 0x00, 0x00, 0x00, 0x00, 
0x00, 0x00, 0x00, 0x00, 0x00, 0x20, 0x00, 0x00, 0x00, 0x00, 0x00, 0x00, 
0x00, 0x00, 0x00, 0x00, 0x00, 0x00, 0x00, 0x00, 0x00, 0x00, 0x00, 0x00, 
0x00, 0x00, 0x00, 0x00, 0x00, 0x00, 0x00, 0x00, 0x00, 0x00, 0x00, 0x00, 
0x00, 0x00, 0x00, 0x00, 0x00, 0x00, 0x00, 0x00, 0x00, 0x00, 0x00, 0x00, 
0x00, 0x00, 0x00, 0x00, 0x00, 0x00, 0x00, 0x00, 0x00, 0x00, 0x00, 0x00, 
0x00, 0x00, 0x00, 0x00, 0x00, 0x00, 0x00, 0x00, 0x00, 0x00, 0x00, 0x00, 
0x00, 0x00, 0x00, 0x00, 0x00, 0x00, 0x00, 0x00, 0x00, 0x00, 0x00, 0x00, 
0x00, 0x00, 0x00, 0x00, 0x00, 0x00, 0x00, 0x00, 0x00, 0x00, 0x00, 0x00};