#define x_width 30
#define x_height 30
static char x_bits[] = {
0x00, 0x00, 0x00, 0x00, 0x00, 0x00, 0x00, 0x00, 0x00, 0x00, 0x00, 0x00, 
0xc0, 0x01, 0x00, 0x00, 0x00, 0x01, 0x00, 0x00, 0x50, 0x20, 0x00, 0x00, 
0x60, 0x2a, 0x80, 0x00, 0x60, 0x40, 0x4b, 0x02, 0x40, 0x55, 0x10, 0x05, 
0x40, 0x28, 0x08, 0x01, 0xc0, 0xc1, 0x0c, 0x0a, 0x10, 0x00, 0xe1, 0x00, 
0x30, 0xe3, 0xdc, 0x00, 0x70, 0x4a, 0x49, 0x00, 0x00, 0x00, 0x0a, 0x00, 
0x00, 0x40, 0x0a, 0x00, 0x40, 0xa8, 0x09, 0x00, 0x00, 0xd9, 0x00, 0x00, 
0x20, 0x00, 0x80, 0x00, 0x80, 0x01, 0x00, 0x00, 0x80, 0x08, 0x00, 0x00, 
0x80, 0x23, 0xc0, 0x00, 0x40, 0x02, 0x30, 0x04, 0x80, 0x62, 0x00, 0x02, 
0x40, 0x0a, 0x00, 0x02, 0x80, 0x04, 0xa0, 0x04, 0x00, 0x1b, 0x80, 0x06, 
0x40, 0x05, 0x00, 0x00, 0x00, 0x00, 0x00, 0x00, 0x00, 0x00, 0x00, 0x00};